NotoSansMath-Regular v2-500.glyphspackage
{
glyphname = dollar;
layers = (
{
layerId = master01;
shapes = (
{
closed = 1;
nodes = (
(317,-58,l),
(317,53,l),
(444,66,o),
(516,127,o),
(516,220,cs),
(516,320,o),
(449,357,o),
(317,395,c),
(317,596,l),
(370,592,o),
(423,578,o),
(466,561,c),
(493,635,l),
(445,655,o),
(388,670,o),
(317,672,c),
(317,759,l),
(253,759,l),
(253,671,l),
(136,664,o),
(62,606,o),
(62,508,cs),
(62,413,o),
(121,364,o),
(253,328,c),
(253,126,l),
(185,127,o),
(107,146,o),
(62,167,c),
(62,82,l),
(105,62,o),
(179,50,o),
(253,49,c),
(253,-58,l)
);
},
{
closed = 1;
nodes = (
(317,307,l),
(404,285,o),
(430,264,o),
(430,214,cs),
(430,169,o),
(395,139,o),
(317,131,c)
);
},
{
closed = 1;
nodes = (
(173,437,o),
(148,462,o),
(148,515,cs),
(148,559,o),
(181,589,o),
(253,594,c),
(253,417,l)
);
}
);
width = 572;
}
);
unicode = 36;
}
{
glyphname = quotesingle;
kernLeft = quote.right;
kernRight = quote.left;
layers = (
{
layerId = master01;
shapes = (
{
closed = 1;
nodes = (
(140,456,l),
(160,714,l),
(65,714,l),
(85,456,l)
);
}
);
width = 225;
}
);
unicode = 39;
}
{
glyphname = five;
layers = (
{
layerId = master01;
shapes = (
{
closed = 1;
nodes = (
(416,-10,o),
(515,80,o),
(515,228,cs),
(515,361,o),
(421,438,o),
(275,438,cs),
(228,438,o),
(188,431,o),
(165,427,c),
(182,634,l),
(465,634,l),
(465,714,l),
(107,714,l),
(80,377,l),
(124,349,l),
(153,356,o),
(208,364,o),
(246,364,cs),
(370,364,o),
(425,312,o),
(425,219,cs),
(425,114,o),
(354,65,o),
(249,65,cs),
(186,65,o),
(111,83,o),
(63,112,c),
(63,29,l),
(107,3,o),
(174,-10,o),
(248,-10,cs)
);
}
);
width = 572;
}
);
unicode = 53;
}
{
glyphname = colon;
kernLeft = colon;
layers = (
{
layerId = master01;
shapes = (
{
closed = 1;
nodes = (
(167,414,o),
(196,434,o),
(196,482,cs),
(196,532,o),
(167,550,o),
(133,550,cs),
(99,550,o),
(72,532,o),
(72,482,cs),
(72,434,o),
(99,414,o),
(133,414,cs)
);
},
{
closed = 1;
nodes = (
(167,-14,o),
(196,6,o),
(196,54,cs),
(196,103,o),
(167,121,o),
(133,121,cs),
(99,121,o),
(72,103,o),
(72,54,cs),
(72,6,o),
(99,-14,o),
(133,-14,cs)
);
}
);
width = 268;
}
);
unicode = 58;
}
{
glyphname = F;
layers = (
{
anchors = (
{
name = bottom;
pos = (260,0);
},
{
name = math.ta;
pos = (298,764);
},
{
name = top;
pos = (298,714);
},
{
name = topright;
pos = (499,714);
}
);
layerId = master01;
shapes = (
{
closed = 1;
nodes = (
(187,0,l),
(187,303,l),
(477,303,l),
(477,382,l),
(187,382,l),
(187,635,l),
(496,635,l),
(496,714,l),
(97,714,l),
(97,0,l)
);
}
);
width = 519;
}
);
unicode = 70;
}
{
glyphname = J;
layers = (
{
anchors = (
{
name = bottom;
pos = (-4,-170);
},
{
name = math.ta;
pos = (137,764);
},
{
name = top;
pos = (137,714);
},
{
name = topright;
pos = (253,714);
}
);
layerId = master01;
shapes = (
{
closed = 1;
nodes = (
(108,-190,o),
(182,-127,o),
(182,11,cs),
(182,714,l),
(92,714,l),
(92,4,ls),
(92,-87,o),
(44,-111,o),
(-6,-111,cs),
(-33,-111,o),
(-57,-107,o),
(-78,-101,c),
(-78,-177,l),
(-60,-185,o),
(-36,-190,o),
(-4,-190,cs)
);
}
);
width = 273;
}
);
unicode = 74;
}
{
glyphname = t;
kernLeft = t.right;
kernRight = t.left;
layers = (
{
anchors = (
{
name = bottom;
pos = (214,0);
},
{
name = center;
pos = (181,268);
},
{
name = math.ta;
pos = (154,709);
},
{
name = top;
pos = (154,659);
},
{
name = topright;
pos = (335,659);
}
);
layerId = master01;
shapes = (
{
closed = 1;
nodes = (
(281,-10,o),
(320,-3,o),
(339,6,c),
(339,73,l),
(322,67,o),
(290,62,o),
(264,62,cs),
(215,62,o),
(180,93,o),
(180,158,cs),
(180,468,l),
(335,468,l),
(335,536,l),
(180,536,l),
(180,659,l),
(128,659,l),
(93,545,l),
(16,510,l),
(16,468,l),
(92,468,l),
(92,156,ls),
(92,26,o),
(165,-10,o),
(249,-10,cs)
);
}
);
width = 361;
}
);
unicode = 116;
}
{
glyphname = u;
kernLeft = n.right;
layers = (
{
anchors = (
{
name = bottom;
pos = (294,0);
},
{
name = math.ta;
pos = (309,586);
},
{
name = top;
pos = (309,536);
},
{
name = topright;
pos = (562,536);
}
);
layerId = master01;
shapes = (
{
closed = 1;
nodes = (
(343,-10,o),
(409,15,o),
(444,71,c),
(448,71,l),
(461,0,l),
(533,0,l),
(533,536,l),
(445,536,l),
(445,257,ls),
(445,132,o),
(406,63,o),
(287,63,cs),
(206,63,o),
(168,105,o),
(168,191,cs),
(168,536,l),
(79,536,l),
(79,185,ls),
(79,49,o),
(145,-10,o),
(274,-10,cs)
);
}
);
width = 618;
}
);
unicode = 117;
}
{
color = 4;
glyphname = bar;
layers = (
{
layerId = master01;
shapes = (
{
closed = 1;
nodes = (
(253,-175,l),
(253,825,l),
(180,825,l),
(180,-175,l)
);
}
);
userData = {
com.schriftgestaltung.Glyphs.glyph.rightMetricsKey = "=|";
};
width = 433;
}
);
unicode = 124;
userData = {
com.nagwa.MATHPlugin.extendedShape = 1;
com.nagwa.MATHPlugin.variants = {
vAssembly = (
(
bar,
1,
900,
900
),
(
bar,
0,
900,
900
)
);
};
};
}
{
glyphname = asciitilde;
layers = (
{
layerId = master01;
shapes = (
{
closed = 1;
nodes = (
(82,320,o),
(127,346,o),
(164,346,cs),
(193,346,o),
(221,340,o),
(269,319,cs),
(329,293,o),
(363,287,o),
(401,287,cs),
(449,287,o),
(489,306,o),
(521,341,c),
(521,418,l),
(489,385,o),
(445,359,o),
(406,359,cs),
(378,359,o),
(350,365,o),
(302,386,cs),
(241,412,o),
(208,418,o),
(170,418,cs),
(122,418,o),
(82,400,o),
(50,365,c),
(50,287,l)
);
}
);
width = 572;
}
);
unicode = 126;
}
{
glyphname = section;
layers = (
{
layerId = master01;
shapes = (
{
closed = 1;
nodes = (
(365,-5,o),
(446,48,o),
(446,140,cs),
(446,191,o),
(419,225,o),
(372,250,c),
(411,273,o),
(447,315,o),
(447,383,cs),
(447,463,o),
(388,505,o),
(284,543,cs),
(182,580,o),
(152,601,o),
(152,638,cs),
(152,675,o),
(181,697,o),
(261,697,cs),
(325,697,o),
(365,682,o),
(411,664,c),
(438,731,l),
(388,751,o),
(342,765,o),
(267,765,cs),
(140,765,o),
(70,716,o),
(70,636,cs),
(70,582,o),
(98,547,o),
(146,521,c),
(105,501,o),
(67,461,o),
(67,395,cs),
(67,307,o),
(128,270,o),
(233,231,cs),
(342,190,o),
(362,170,o),
(362,133,cs),
(362,95,o),
(331,62,o),
(232,62,cs),
(169,62,o),
(102,83,o),
(59,103,c),
(59,28,l),
(101,7,o),
(154,-5,o),
(228,-5,cs)
);
},
{
closed = 1;
nodes = (
(285,287,ls),
(178,327,o),
(142,356,o),
(142,405,cs),
(142,449,o),
(177,481,o),
(214,491,c),
(337,452,o),
(371,420,o),
(371,370,cs),
(371,325,o),
(338,297,o),
(307,279,c)
);
}
);
width = 513;
}
);
unicode = 167;
}
{
glyphname = gravecomb;
layers = (
{
anchors = (
{
name = _top;
pos = (101,536);
},
{
name = math.ta;
pos = (101,486);
},
{
name = top;
pos = (101,766);
}
);
layerId = master01;
shapes = (
{
closed = 1;
nodes = (
(201,606,l),
(201,618,l),
(170,655,o),
(127,721,o),
(105,766,c),
(0,766,l),
(0,756,l),
(23,719,o),
(96,642,o),
(142,606,c)
);
}
);
width = 201;
}
);
unicode = 768;
}
{
glyphname = dotaccentcomb;
layers = (
{
anchors = (
{
name = _top;
pos = (51,536);
},
{
name = math.ta;
pos = (51,486);
},
{
name = top;
pos = (51,737);
}
);
layerId = master01;
shapes = (
{
closed = 1;
nodes = (
(79,625,o),
(103,643,o),
(103,681,cs),
(103,720,o),
(79,737,o),
(52,737,cs),
(23,737,o),
(0,720,o),
(0,681,cs),
(0,643,o),
(23,625,o),
(52,625,cs)
);
}
);
width = 103;
}
);
unicode = 775;
}
{
glyphname = hungarumlautcomb;
layers = (
{
anchors = (
{
name = _top;
pos = (220,536);
},
{
name = math.ta;
pos = (220,486);
},
{
name = top;
pos = (220,766);
}
);
layerId = master01;
shapes = (
{
closed = 1;
nodes = (
(399,766,l),
(303,766,l),
(282,721,o),
(244,656,o),
(216,618,c),
(216,606,l),
(266,606,l),
(311,642,o),
(378,721,o),
(399,756,c)
);
},
{
closed = 1;
nodes = (
(223,766,l),
(127,766,l),
(105,721,o),
(68,656,o),
(40,618,c),
(40,606,l),
(90,606,l),
(135,642,o),
(202,721,o),
(223,756,c)
);
}
);
width = 439;
}
);
unicode = 779;
}
{
glyphname = caroncomb;
layers = (
{
anchors = (
{
name = _top;
pos = (209,536);
},
{
name = math.ta;
pos = (209,586);
},
{
name = top;
pos = (211,766);
}
);
layerId = master01;
shapes = (
{
closed = 1;
nodes = (
(253,606,l),
(277,651,o),
(340,715,o),
(378,753,c),
(378,766,l),
(316,766,l),
(281,743,o),
(243,710,o),
(207,674,c),
(174,710,o),
(135,743,o),
(100,766,c),
(40,766,l),
(40,753,l),
(76,715,o),
(137,651,o),
(163,606,c)
);
}
);
width = 418;
}
);
unicode = 780;
userData = {
com.nagwa.MATHPlugin.variants = {
hVariants = (
caroncomb,
caron.s1,
caron.s2,
caron.s3,
caron.s4,
caron.s5
);
};
};
}
{
color = 1;
glyphname = circumflexbelowcomb;
layers = (
{
anchors = (
{
name = _bottom;
pos = (194,0);
},
{
name = bottom;
pos = (194,-200);
},
{
name = math.ta;
pos = (194,50);
}
);
layerId = master01;
shapes = (
{
closed = 1;
nodes = (
(85,-200,l),
(120,-178,o),
(156,-146,o),
(192,-110,c),
(228,-146,o),
(266,-179,o),
(301,-200,c),
(363,-200,l),
(363,-189,l),
(325,-151,o),
(262,-85,o),
(238,-40,c),
(148,-40,l),
(122,-85,o),
(62,-150,o),
(25,-189,c),
(25,-200,l)
);
}
);
width = 388;
}
);
unicode = 813;
}
{
color = 1;
glyphname = dbllowlinecomb;
layers = (
{
anchors = (
{
name = _bottom;
pos = (232,0);
},
{
name = bottom;
pos = (232,-244);
},
{
name = math.ta;
pos = (232,50);
}
);
layerId = master01;
shapes = (
{
closed = 1;
nodes = (
(440,-112,l),
(440,-48,l),
(25,-48,l),
(25,-112,l)
);
},
{
closed = 1;
nodes = (
(440,-244,l),
(440,-180,l),
(25,-180,l),
(25,-244,l)
);
}
);
width = 465;
}
);
unicode = 819;
}
{
color = 1;
glyphname = bridgeinvertedbelowcomb;
layers = (
{
anchors = (
{
name = _bottom;
pos = (203,0);
},
{
name = bottom;
pos = (203,-218);
},
{
name = math.ta;
pos = (203,50);
}
);
layerId = master01;
shapes = (
{
closed = 1;
nodes = (
(381,-218,l),
(381,-48,l),
(315,-48,l),
(315,-158,l),
(91,-158,l),
(91,-48,l),
(25,-48,l),
(25,-218,l)
);
}
);
width = 406;
}
);
unicode = 826;
}
{
glyphname = Sigma;
layers = (
{
anchors = (
{
name = bottom;
pos = (285,0);
},
{
name = math.ta;
pos = (285,764);
},
{
name = top;
pos = (285,714);
}
);
layerId = master01;
shapes = (
{
closed = 1;
nodes = (
(546,0,l),
(546,79,l),
(288,79,ls),
(235,79,o),
(185,79,o),
(135,78,c),
(370,374,l),
(145,635,l),
(166,634,o),
(233,634,o),
(262,634,cs),
(517,634,l),
(517,714,l),
(42,714,l),
(42,639,l),
(270,373,l),
(36,74,l),
(36,0,l)
);
}
);
width = 570;
}
);
unicode = 931;
}
{
glyphname = epsilon;
kernLeft = epsilon;
kernRight = epsilon;
layers = (
{
anchors = (
{
name = bottom;
pos = (242,0);
},
{
name = math.ta;
pos = (268,586);
},
{
name = top;
pos = (268,536);
}
);
layerId = master01;
shapes = (
{
closed = 1;
nodes = (
(350,-10,o),
(406,5,o),
(447,27,c),
(447,104,l),
(403,83,o),
(347,62,o),
(273,62,cs),
(193,62,o),
(131,85,o),
(131,151,cs),
(131,212,o),
(180,243,o),
(282,243,cs),
(355,243,l),
(355,315,l),
(299,315,ls),
(206,315,o),
(146,338,o),
(146,397,cs),
(146,447,o),
(187,473,o),
(267,473,cs),
(329,473,o),
(372,458,o),
(416,438,c),
(449,508,l),
(396,532,o),
(345,546,o),
(268,546,cs),
(147,546,o),
(62,494,o),
(62,404,cs),
(62,339,o),
(102,300,o),
(162,282,c),
(162,277,l),
(98,259,o),
(43,226,o),
(43,146,cs),
(43,57,o),
(115,-10,o),
(268,-10,cs)
);
}
);
width = 483;
}
);
unicode = 949;
}
{
glyphname = lambda;
layers = (
{
anchors = (
{
name = bottom;
pos = (271,0);
},
{
name = math.ta;
pos = (271,816);
},
{
name = top;
pos = (271,766);
}
);
layerId = master01;
shapes = (
{
closed = 1;
nodes = (
(508,-10,o),
(527,-5,o),
(542,2,c),
(542,67,l),
(535,65,o),
(522,62,o),
(512,62,cs),
(489,62,o),
(475,79,o),
(462,116,cs),
(289,598,ls),
(248,713,o),
(214,766,o),
(111,766,cs),
(87,766,o),
(63,762,o),
(45,758,c),
(45,687,l),
(59,690,o),
(77,693,o),
(101,693,cs),
(158,693,o),
(177,658,o),
(198,601,cs),
(225,526,l),
(-6,0,l),
(85,0,l),
(207,281,ls),
(229,333,o),
(250,388,o),
(262,435,c),
(266,435,l),
(274,396,o),
(299,324,o),
(316,276,cs),
(389,71,ls),
(410,12,o),
(436,-10,o),
(485,-10,cs)
);
}
);
width = 542;
}
);
unicode = 955;
}
{
glyphname = pi;
kernLeft = tau;
layers = (
{
anchors = (
{
name = bottom;
pos = (330,0);
},
{
name = math.ta;
pos = (330,586);
},
{
name = top;
pos = (330,536);
}
);
layerId = master01;
shapes = (
{
closed = 1;
nodes = (
(577,-10,o),
(601,-3,o),
(612,3,c),
(612,72,l),
(602,67,o),
(586,62,o),
(568,62,cs),
(541,62,o),
(522,77,o),
(522,124,cs),
(522,463,l),
(627,463,l),
(627,536,l),
(84,536,l),
(12,501,l),
(12,463,l),
(121,463,l),
(121,0,l),
(208,0,l),
(208,463,l),
(435,463,l),
(435,118,ls),
(435,33,o),
(473,-10,o),
(546,-10,cs)
);
}
);
width = 659;
}
);
unicode = 960;
}
{
color = 4;
glyphname = Digamma;
layers = (
{
layerId = master01;
shapes = (
{
closed = 1;
nodes = (
(97,0,l),
(187,0,l),
(187,303,l),
(376,303,l),
(376,175,l),
(462,175,l),
(462,382,l),
(187,382,l),
(187,635,l),
(486,635,l),
(486,714,l),
(97,714,l)
);
}
);
width = 534;
}
);
unicode = 988;
}
{
glyphname = epsilonLunateSymbol;
layers = (
{
anchors = (
{
name = bottom;
pos = (248,0);
},
{
name = math.ta;
pos = (248,586);
},
{
name = top;
pos = (248,536);
}
);
layerId = master01;
shapes = (
{
closed = 1;
nodes = (
(372,-10,o),
(415,0,o),
(453,19,c),
(453,95,l),
(413,79,o),
(368,65,o),
(308,65,cs),
(204,65,o),
(151,121,o),
(145,240,c),
(409,240,l),
(409,312,l),
(146,312,l),
(157,419,o),
(208,470,o),
(311,470,cs),
(349,470,o),
(398,459,o),
(435,445,c),
(461,517,l),
(423,534,o),
(367,546,o),
(313,546,cs),
(166,546,o),
(55,465,o),
(55,265,cs),
(55,72,o),
(162,-10,o),
(310,-10,cs)
);
}
);
width = 495;
}
);
unicode = 1013;
}
{
color = 4;
glyphname = quoteleft;
kernLeft = quotedbl;
kernRight = quotedbl;
layers = (
{
layerId = master01;
shapes = (
{
closed = 1;
nodes = (
(113,469,l),
(123,539,o),
(144,639,o),
(163,714,c),
(98,714,l),
(66,643,o),
(30,550,o),
(12,480,c),
(19,469,l)
);
}
);
width = 175;
}
);
unicode = 8216;
}
{
glyphname = minute;
layers = (
{
layerId = master01;
shapes = (
{
closed = 1;
nodes = (
(97,456,l),
(258,714,l),
(168,714,l),
(39,456,l)
);
}
);
userData = {
com.schriftgestaltung.Glyphs.glyph.leftMetricsKey = second;
com.schriftgestaltung.Glyphs.glyph.rightMetricsKey = second;
};
width = 232;
}
);
unicode = 8242;
}
{
color = 4;
glyphname = fraction;
layers = (
{
layerId = master01;
shapes = (
{
closed = 1;
nodes = (
(320,714,l),
(245,714,l),
(-191,0,l),
(-116,0,l)
);
}
);
width = 130;
}
);
unicode = 8260;
}
{
glyphname = ringoverlaycomb;
layers = (
{
anchors = (
{
name = _center;
pos = (0,268);
}
);
layerId = master01;
shapes = (
{
closed = 1;
nodes = (
(125,41,o),
(227,143,o),
(227,268,cs),
(227,393,o),
(125,495,o),
(0,495,cs),
(-125,495,o),
(-227,393,o),
(-227,268,cs),
(-227,143,o),
(-125,41,o),
(0,41,cs)
);
},
{
closed = 1;
nodes = (
(-91,99,o),
(-169,177,o),
(-169,268,cs),
(-169,359,o),
(-91,437,o),
(0,437,cs),
(91,437,o),
(169,359,o),
(169,268,cs),
(169,177,o),
(91,99,o),
(0,99,cs)
);
}
);
width = 0;
}
);
unicode = 8408;
}
{
glyphname = clockwiseringoverlaycomb;
layers = (
{
anchors = (
{
name = _center;
pos = (-1,268);
}
);
layerId = master01;
shapes = (
{
closed = 1;
nodes = (
(125,41,o),
(227,143,o),
(227,268,cs),
(227,313,o),
(215,354,o),
(191,390,c),
(191,502,l),
(137,448,l),
(96,479,o),
(50,495,o),
(0,495,cs),
(-125,495,o),
(-227,393,o),
(-227,268,cs),
(-227,143,o),
(-125,41,o),
(0,41,cs)
);
},
{
closed = 1;
nodes = (
(-91,99,o),
(-169,177,o),
(-169,268,cs),
(-169,359,o),
(-91,437,o),
(0,437,cs),
(35,437,o),
(66,427,o),
(96,407,c),
(40,351,l),
(147,351,l),
(162,325,o),
(169,297,o),
(169,268,cs),
(169,177,o),
(91,99,o),
(0,99,cs)
);
}
);
width = 0;
}
);
unicode = 8409;
}
{
glyphname = anticlockwiseringoverlaycomb;
layers = (
{
anchors = (
{
name = _center;
pos = (-1,268);
}
);
layerId = master01;
shapes = (
{
closed = 1;
nodes = (
(191,146,l),
(215,183,o),
(227,224,o),
(227,268,cs),
(227,393,o),
(125,495,o),
(0,495,cs),
(-125,495,o),
(-227,393,o),
(-227,268,cs),
(-227,143,o),
(-125,41,o),
(0,41,cs),
(50,41,o),
(96,57,o),
(137,88,c),
(191,34,l)
);
},
{
closed = 1;
nodes = (
(-91,99,o),
(-169,177,o),
(-169,268,cs),
(-169,359,o),
(-91,437,o),
(0,437,cs),
(91,437,o),
(169,359,o),
(169,268,cs),
(169,239,o),
(162,211,o),
(147,185,c),
(40,185,l),
(96,129,l),
(66,109,o),
(35,99,o),
(0,99,cs)
);
}
);
width = 0;
}
);
unicode = 8410;
}
{
glyphname = threedotsabovecomb;
layers = (
{
anchors = (
{
name = _top;
pos = (-1,536);
},
{
name = math.ta;
pos = (-1,664);
}
);
layerId = master01;
shapes = (
{
closed = 1;
nodes = (
(218,625,o),
(242,642,o),
(242,681,cs),
(242,720,o),
(218,737,o),
(191,737,cs),
(162,737,o),
(139,720,o),
(139,681,cs),
(139,642,o),
(162,625,o),
(191,625,cs)
);
},
{
closed = 1;
nodes = (
(-164,625,o),
(-140,642,o),
(-140,681,cs),
(-140,720,o),
(-164,737,o),
(-191,737,cs),
(-220,737,o),
(-243,720,o),
(-243,681,cs),
(-243,642,o),
(-220,625,o),
(-191,625,cs)
);
},
{
closed = 1;
nodes = (
(27,625,o),
(51,642,o),
(51,681,cs),
(51,720,o),
(27,737,o),
(0,737,cs),
(-29,737,o),
(-52,720,o),
(-52,681,cs),
(-52,642,o),
(-29,625,o),
(0,625,cs)
);
}
);
width = 0;
}
);
unicode = 8411;
}
{
color = 0;
export = 0;
glyphname = enclosingcirclecomb;
layers = (
{
layerId = master01;
shapes = (
{
closed = 1;
nodes = (
(811,-133,o),
(1031,87,o),
(1031,357,cs),
(1031,627,o),
(811,847,o),
(541,847,cs),
(271,847,o),
(51,627,o),
(51,357,cs),
(51,87,o),
(271,-133,o),
(541,-133,cs)
);
},
{
closed = 1;
nodes = (
(299,-82,o),
(102,115,o),
(102,357,cs),
(102,599,o),
(299,796,o),
(541,796,cs),
(783,796,o),
(980,599,o),
(980,357,cs),
(980,115,o),
(783,-82,o),
(541,-82,cs)
);
}
);
width = 1082;
}
);
unicode = 8413;
}
{
glyphname = reversesolidusoverlaycomb;
layers = (
{
anchors = (
{
name = _center;
pos = (0,357);
}
);
layerId = master01;
shapes = (
{
closed = 1;
nodes = (
(176,0,l),
(-91,714,l),
(-177,714,l),
(89,0,l)
);
}
);
width = 0;
}
);
unicode = 8421;
}
{
glyphname = AnnuitySymbol;
layers = (
{
layerId = master01;
shapes = (
{
closed = 1;
nodes = (
(137,-317,l),
(137,884,l),
(-594,884,l),
(-594,821,l),
(74,821,l),
(74,-317,l)
);
}
);
userData = {
com.schriftgestaltung.Glyphs.originalWidth = 833;
};
width = 197;
}
);
unicode = 8423;
}
{
glyphname = leftarrowoverlaycomb;
layers = (
{
anchors = (
{
name = _center;
pos = (0,290);
},
{
name = math.ta;
pos = (0,353);
}
);
layerId = master01;
shapes = (
{
closed = 1;
nodes = (
(-129,169,l),
(-149,211,o),
(-168,243,o),
(-187,265,c),
(296,265,l),
(296,307,l),
(-187,307,l),
(-168,329,o),
(-149,361,o),
(-129,403,c),
(-164,403,l),
(-206,354,o),
(-250,318,o),
(-296,295,c),
(-296,277,l),
(-250,254,o),
(-206,218,o),
(-164,169,c)
);
}
);
width = 0;
}
);
unicode = 8426;
}
{
color = 4;
glyphname = planckconstant;
kernLeft = b;
kernRight = n;
layers = (
{
anchors = (
{
name = bottom;
pos = (243,0);
},
{
name = center;
pos = (357,268);
},
{
name = math.ta;
pos = (405,810);
},
{
name = top;
pos = (405,760);
},
{
name = topright;
pos = (684,760);
}
);
layerId = master01;
shapes = (
{
closed = 1;
nodes = (
(512,-10,o),
(550,20,o),
(582,47,c),
(564,76,l),
(541,61,o),
(521,53,o),
(500,53,cs),
(478,53,o),
(465,70,o),
(465,101,cs),
(465,131,o),
(470,169,o),
(478,206,cs),
(504,324,ls),
(511,358,o),
(522,401,o),
(522,434,cs),
(522,493,o),
(494,545,o),
(415,545,cs),
(340,545,o),
(284,498,o),
(230,410,c),
(219,410,l),
(226,435,o),
(244,505,o),
(259,576,cs),
(298,760,l),
(114,760,l),
(105,718,l),
(113,718,ls),
(151,718,o),
(183,711,o),
(183,671,cs),
(183,665,o),
(180,645,o),
(174,618,cs),
(44,0,l),
(137,0,l),
(191,256,ls),
(208,337,o),
(296,481,o),
(380,481,cs),
(419,481,o),
(426,448,o),
(426,422,cs),
(426,387,o),
(411,330,o),
(405,303,cs),
(388,225,ls),
(375,164,o),
(369,122,o),
(369,90,cs),
(369,32,o),
(401,-10,o),
(460,-10,cs)
);
}
);
width = 599;
}
);
unicode = 8462;
}
{
color = 4;
glyphname = "I-fraktur";
layers = (
{
anchors = (
{
name = math.ta;
pos = (269,764);
}
);
layerId = master01;
shapes = (
{
closed = 1;
nodes = (
(218,-10,o),
(232,-5,o),
(249,-5,cs),
(336,-5,o),
(383,-3,o),
(425,20,cs),
(467,43,o),
(528,118,o),
(528,165,cs),
(528,187,o),
(519,212,o),
(468,310,cs),
(417,408,o),
(408,438,o),
(408,462,cs),
(408,507,o),
(444,529,o),
(469,529,cs),
(476,529,o),
(482,522,o),
(486,512,cs),
(490,502,o),
(500,496,o),
(511,496,cs),
(523,496,o),
(533,506,o),
(533,521,cs),
(533,545,o),
(511,558,o),
(485,558,cs),
(467,558,o),
(447,551,o),
(427,539,cs),
(378,510,o),
(333,454,o),
(333,413,cs),
(333,390,o),
(349,343,o),
(397,254,cs),
(445,165,o),
(454,142,o),
(454,118,cs),
(454,67,o),
(411,27,o),
(343,27,cs),
(278,27,o),
(241,64,o),
(241,108,cs),
(241,111,o),
(241,114,o),
(242,117,c),
(225,126,l),
(216,120,o),
(207,117,o),
(198,117,cs),
(189,117,o),
(178,118,o),
(166,121,cs),
(154,124,o),
(141,126,o),
(126,126,cs),
(77,126,o),
(34,104,o),
(18,42,c),
(39,36,l),
(53,77,o),
(81,93,o),
(108,93,cs),
(148,93,o),
(187,56,o),
(187,-12,c),
(207,-21,l)
);
},
{
closed = 1;
nodes = (
(175,431,l),
(99,441,o),
(54,491,o),
(54,551,cs),
(54,609,o),
(106,655,o),
(168,655,cs),
(201,655,o),
(232,643,o),
(264,624,cs),
(320,591,ls),
(347,575,o),
(368,563,o),
(384,563,cs),
(414,563,o),
(538,622,o),
(538,668,cs),
(538,686,o),
(527,699,o),
(509,699,cs),
(494,699,o),
(481,689,o),
(481,672,cs),
(481,661,o),
(490,650,o),
(501,650,c),
(501,643,o),
(471,621,o),
(452,621,cs),
(437,621,o),
(411,634,o),
(371,657,cs),
(287,705,ls),
(268,716,o),
(258,723,o),
(258,731,c),
(236,731,l),
(236,721,o),
(230,718,o),
(218,716,cs),
(133,702,o),
(31,655,o),
(31,551,cs),
(31,479,o),
(81,423,o),
(169,408,c)
);
}
);
width = 624;
}
);
unicode = 8465;
}
{
glyphname = NdoubleStruck;
layers = (
{
anchors = (
{
name = math.ta;
pos = (276,764);
}
);
layerId = master01;
shapes = (
{
closed = 1;
nodes = (
(150,0,l),
(150,491,l),
(604,0,l),
(681,0,l),
(681,714,l),
(628,714,l),
(628,224,l),
(173,714,l),
(97,714,l),
(97,0,l)
);
},
{
closed = 1;
nodes = (
(150,562,l),
(150,661,l),
(628,151,l),
(628,53,l)
);
}
);
width = 778;
}
);
unicode = 8469;
}
{
color = 4;
glyphname = escript;
layers = (
{
anchors = (
{
name = math.ta;
pos = (317,358);
}
);
layerId = master01;
shapes = (
{
closed = 1;
nodes = (
(211,-7,o),
(286,29,o),
(344,93,c),
(333,105,l),
(274,44,o),
(214,9,o),
(156,9,cs),
(132,9,o),
(124,20,o),
(124,34,cs),
(124,86,o),
(237,286,o),
(279,286,cs),
(295,286,o),
(306,273,o),
(306,246,cs),
(306,189,o),
(228,127,o),
(149,122,c),
(140,103,l),
(266,125,o),
(364,179,o),
(364,241,cs),
(364,283,o),
(328,308,o),
(279,308,cs),
(171,308,o),
(42,191,o),
(42,99,cs),
(42,27,o),
(82,-7,o),
(158,-7,cs)
);
}
);
width = 388;
}
);
unicode = 8495;
}
{
color = 4;
glyphname = Escript;
layers = (
{
anchors = (
{
name = math.ta;
pos = (500,764);
}
);
layerId = master01;
shapes = (
{
closed = 1;
nodes = (
(371,-10,o),
(486,93,o),
(486,203,cs),
(486,267,o),
(448,299,o),
(395,299,cs),
(324,299,o),
(260,225,o),
(260,129,cs),
(260,106,o),
(263,86,o),
(273,86,cs),
(280,86,o),
(282,96,o),
(287,129,cs),
(300,218,o),
(348,277,o),
(401,277,cs),
(443,277,o),
(466,248,o),
(466,205,cs),
(466,104,o),
(363,10,o),
(250,10,cs),
(171,10,o),
(126,56,o),
(126,132,cs),
(126,275,o),
(239,425,o),
(348,425,cs),
(402,425,o),
(437,413,o),
(437,402,cs),
(437,393,o),
(425,390,o),
(413,390,cs),
(373,390,o),
(328,422,o),
(328,482,cs),
(328,604,o),
(413,698,o),
(493,698,cs),
(555,698,o),
(600,648,o),
(600,588,cs),
(600,523,o),
(551,478,o),
(512,478,cs),
(487,478,o),
(466,496,o),
(466,526,cs),
(466,567,o),
(490,599,o),
(515,619,cs),
(520,623,o),
(522,625,o),
(522,627,cs),
(522,629,o),
(519,630,o),
(515,630,cs),
(493,630,o),
(435,583,o),
(435,528,cs),
(435,484,o),
(467,460,o),
(506,460,cs),
(561,460,o),
(620,510,o),
(620,590,cs),
(620,660,o),
(570,726,o),
(459,726,cs),
(324,726,o),
(241,634,o),
(241,537,cs),
(241,447,o),
(334,374,o),
(411,374,cs),
(441,374,o),
(456,384,o),
(456,401,cs),
(456,424,o),
(411,443,o),
(318,443,cs),
(236,443,o),
(35,379,o),
(35,186,cs),
(35,78,o),
(112,-10,o),
(243,-10,cs)
);
}
);
width = 640;
}
);
unicode = 8496;
}
{
glyphname = gimelsymbol;
layers = (
{
layerId = master01;
shapes = (
{
closed = 1;
nodes = (
(151,68,ls),
(186,90,o),
(214,134,o),
(214,180,c),
(254,0,l),
(325,0,l),
(266,211,ls),
(258,238,o),
(250,267,o),
(250,294,cs),
(250,400,ls),
(250,485,o),
(238,530,o),
(173,551,cs),
(46,592,l),
(46,524,l),
(130,496,ls),
(169,483,o),
(181,465,o),
(181,421,cs),
(181,265,ls),
(181,162,o),
(154,137,o),
(8,49,c),
(8,-23,l)
);
}
);
width = 376;
}
);
unicode = 8503;
}
{
glyphname = daletsymbol;
layers = (
{
layerId = master01;
shapes = (
{
closed = 1;
nodes = (
(359,0,l),
(359,520,l),
(436,520,l),
(436,581,l),
(2,581,l),
(2,520,l),
(290,520,l),
(290,0,l)
);
}
);
width = 458;
}
);
unicode = 8504;
}
{
glyphname = northEastArrow;
layers = (
{
layerId = master01;
shapes = (
{
closed = 1;
nodes = (
(507,505,l),
(469,543,l),
(51,125,l),
(89,87,l)
);
},
{
closed = 1;
nodes = (
(546,373,l),
(540,454,o),
(547,526,o),
(567,588,c),
(552,603,l),
(490,583,o),
(418,576,o),
(337,582,c),
(306,551,l),
(366,529,o),
(416,517,o),
(453,517,c),
(481,489,l),
(481,452,o),
(493,402,o),
(515,342,c)
);
}
);
width = 618;
}
);
unicode = 8599;
}
{
glyphname = rightWaveArrow;
layers = (
{
layerId = master01;
shapes = (
{
closed = 1;
nodes = (
(562,210,o),
(591,232,o),
(630,270,cs),
(743,382,l),
(704,421,l),
(592,308,ls),
(562,278,o),
(544,264,o),
(520,264,cs),
(496,264,o),
(478,274,o),
(415,327,cs),
(381,356,ls),
(338,392,o),
(298,421,o),
(256,421,cs),
(214,421,o),
(184,400,o),
(146,361,cs),
(51,264,l),
(90,226,l),
(184,323,ls),
(214,353,o),
(232,367,o),
(256,367,cs),
(280,367,o),
(298,357,o),
(361,304,cs),
(395,275,ls),
(438,239,o),
(478,210,o),
(520,210,cs)
);
},
{
closed = 1;
nodes = (
(782,250,l),
(780,269,o),
(780,288,o),
(780,307,cs),
(780,365,o),
(788,418,o),
(803,465,c),
(787,480,l),
(740,465,o),
(687,457,o),
(628,457,cs),
(613,457,o),
(592,458,o),
(573,459,c),
(541,428,l),
(602,406,o),
(652,394,o),
(689,394,c),
(717,366,l),
(717,329,o),
(729,279,o),
(751,219,c)
);
}
);
width = 854;
}
);
unicode = 8605;
}
{
glyphname = rightTailArrow;
layers = (
{
layerId = master01;
shapes = (
{
closed = 1;
nodes = (
(584,197,l),
(637,259,o),
(693,305,o),
(751,334,c),
(751,356,l),
(693,385,o),
(637,431,o),
(584,493,c),
(540,493,l),
(567,435,o),
(594,391,o),
(620,365,c),
(620,325,l),
(594,299,o),
(567,255,o),
(540,197,c)
);
},
{
closed = 1;
nodes = (
(115,197,l),
(236,345,l),
(115,493,l),
(51,493,l),
(171,345,l),
(51,197,l)
);
},
{
closed = 1;
nodes = (
(650,318,l),
(650,372,l),
(189,372,l),
(189,318,l)
);
}
);
width = 802;
}
);
unicode = 8611;
}
{
glyphname = leftRightWaveArrow;
layers = (
{
layerId = master01;
shapes = (
{
closed = 1;
nodes = (
(435,231,o),
(422,394,o),
(477,394,cs),
(532,394,o),
(519,231,o),
(625,231,cs),
(664,231,o),
(690,257,o),
(711,318,c),
(801,318,l),
(801,372,l),
(677,372,l),
(667,321,o),
(652,283,o),
(625,283,cs),
(556,283,o),
(580,446,o),
(477,446,cs),
(374,446,o),
(398,283,o),
(329,283,cs),
(302,283,o),
(287,321,o),
(277,372,c),
(153,372,l),
(153,318,l),
(243,318,l),
(264,257,o),
(290,231,o),
(329,231,cs)
);
},
{
closed = 1;
nodes = (
(262,197,l),
(235,255,o),
(208,299,o),
(182,325,c),
(182,365,l),
(208,391,o),
(235,435,o),
(262,493,c),
(218,493,l),
(165,431,o),
(109,385,o),
(51,356,c),
(51,334,l),
(109,305,o),
(165,259,o),
(218,197,c)
);
},
{
closed = 1;
nodes = (
(735,197,l),
(788,259,o),
(844,305,o),
(902,334,c),
(902,356,l),
(844,385,o),
(788,431,o),
(735,493,c),
(691,493,l),
(718,435,o),
(745,391,o),
(771,365,c),
(771,325,l),
(745,299,o),
(718,255,o),
(691,197,c)
);
}
);
userData = {
com.schriftgestaltung.annotations = (
{
position = (
616,
-11
);
type = Text;
width = 100;
}
);
};
width = 953;
}
);
unicode = 8621;
}
{
glyphname = upTipRightArrow;
layers = (
{
layerId = master01;
shapes = (
{
closed = 1;
nodes = (
(169,0,l),
(169,517,l),
(426,517,l),
(426,571,l),
(115,571,l),
(115,0,l)
);
},
{
closed = 1;
nodes = (
(322,396,l),
(375,458,o),
(431,504,o),
(489,533,c),
(489,555,l),
(431,584,o),
(375,630,o),
(322,692,c),
(278,692,l),
(305,634,o),
(332,590,o),
(358,564,c),
(358,524,l),
(332,498,o),
(305,454,o),
(278,396,c)
);
}
);
width = 604;
}
);
unicode = 8625;
}
{
glyphname = rightCornerDownArrow;
layers = (
{
layerId = master01;
shapes = (
{
closed = 1;
nodes = (
(456,121,l),
(456,432,l),
(115,432,l),
(115,378,l),
(402,378,l),
(402,121,l)
);
},
{
closed = 1;
nodes = (
(440,58,l),
(469,116,o),
(515,172,o),
(577,225,c),
(577,269,l),
(519,242,o),
(475,215,o),
(449,189,c),
(409,189,l),
(383,215,o),
(339,242,o),
(281,269,c),
(281,225,l),
(343,172,o),
(389,116,o),
(418,58,c)
);
}
);
width = 692;
}
);
unicode = 8628;
}
{
glyphname = carriagereturn;
layers = (
{
layerId = master01;
shapes = (
{
closed = 1;
nodes = (
(489,235,l),
(489,576,l),
(435,576,l),
(435,289,l),
(178,289,l),
(178,235,l)
);
},
{
closed = 1;
nodes = (
(326,114,l),
(299,172,o),
(272,216,o),
(246,242,c),
(246,282,l),
(272,308,o),
(299,352,o),
(326,410,c),
(282,410,l),
(229,348,o),
(173,302,o),
(115,273,c),
(115,251,l),
(173,222,o),
(229,176,o),
(282,114,c)
);
}
);
width = 604;
}
);
unicode = 8629;
}
{
glyphname = topCircleRightArrow;
layers = (
{
layerId = master01;
shapes = (
{
closed = 1;
nodes = (
(189,203,l),
(189,354,o),
(311,476,o),
(462,476,cs),
(613,476,o),
(735,354,o),
(735,203,c),
(789,203,l),
(789,384,o),
(643,530,o),
(462,530,cs),
(281,530,o),
(135,384,o),
(135,203,c)
);
},
{
closed = 1;
nodes = (
(790,164,l),
(805,228,o),
(837,292,o),
(886,358,c),
(876,401,l),
(826,362,o),
(790,325,o),
(769,294,c),
(731,285,l),
(700,304,o),
(650,321,o),
(588,334,c),
(598,292,l),
(670,253,o),
(727,209,o),
(769,160,c)
);
}
);
width = 1021;
}
);
unicode = 8631;
}
{
glyphname = leftBarbDownHarpoon;
layers = (
{
layerId = master01;
shapes = (
{
closed = 1;
nodes = (
(262,197,l),
(235,255,o),
(208,299,o),
(182,325,c),
(182,372,l),
(51,372,l),
(51,334,l),
(109,305,o),
(165,259,o),
(218,197,c)
);
},
{
closed = 1;
nodes = (
(743,318,l),
(743,372,l),
(152,372,l),
(152,318,l)
);
}
);
width = 794;
}
);
unicode = 8637;
}
{
glyphname = rightBarbdownHarpoon;
layers = (
{
layerId = master01;
shapes = (
{
closed = 1;
nodes = (
(576,197,l),
(629,259,o),
(685,305,o),
(743,334,c),
(743,372,l),
(612,372,l),
(612,325,l),
(586,299,o),
(559,255,o),
(532,197,c)
);
},
{
closed = 1;
nodes = (
(642,318,l),
(642,372,l),
(51,372,l),
(51,318,l)
);
}
);
width = 794;
}
);
unicode = 8641;
}
{
glyphname = leftAndRightArrow;
layers = (
{
layerId = master01;
shapes = (
{
closed = 1;
nodes = (
(576,33,l),
(629,95,o),
(685,141,o),
(743,170,c),
(743,192,l),
(685,221,o),
(629,267,o),
(576,329,c),
(532,329,l),
(559,271,o),
(586,227,o),
(612,201,c),
(612,161,l),
(586,135,o),
(559,91,o),
(532,33,c)
);
},
{
closed = 1;
nodes = (
(642,154,l),
(642,208,l),
(51,208,l),
(51,154,l)
);
},
{
closed = 1;
nodes = (
(262,361,l),
(235,419,o),
(208,463,o),
(182,489,c),
(182,529,l),
(208,555,o),
(235,599,o),
(262,657,c),
(218,657,l),
(165,595,o),
(109,549,o),
(51,520,c),
(51,498,l),
(109,469,o),
(165,423,o),
(218,361,c)
);
},
{
closed = 1;
nodes = (
(743,482,l),
(743,536,l),
(152,536,l),
(152,482,l)
);
}
);
width = 794;
}
);
unicode = 8646;
}
{
glyphname = leftDoublePairedArrow;
layers = (
{
layerId = master01;
shapes = (
{
closed = 1;
nodes = (
(262,361,l),
(235,419,o),
(208,463,o),
(182,489,c),
(182,529,l),
(208,555,o),
(235,599,o),
(262,657,c),
(218,657,l),
(165,595,o),
(109,549,o),
(51,520,c),
(51,498,l),
(109,469,o),
(165,423,o),
(218,361,c)
);
},
{
closed = 1;
nodes = (
(262,33,l),
(235,91,o),
(208,135,o),
(182,161,c),
(182,201,l),
(208,227,o),
(235,271,o),
(262,329,c),
(218,329,l),
(165,267,o),
(109,221,o),
(51,192,c),
(51,170,l),
(109,141,o),
(165,95,o),
(218,33,c)
);
},
{
closed = 1;
nodes = (
(743,154,l),
(743,208,l),
(152,208,l),
(152,154,l)
);
},
{
closed = 1;
nodes = (
(743,482,l),
(743,536,l),
(152,536,l),
(152,482,l)
);
}
);
width = 794;
}
);
unicode = 8647;
}
{
glyphname = rightDoublePairedArrow;
layers = (
{
layerId = master01;
shapes = (
{
closed = 1;
nodes = (
(576,361,l),
(629,423,o),
(685,469,o),
(743,498,c),
(743,520,l),
(685,549,o),
(629,595,o),
(576,657,c),
(532,657,l),
(559,599,o),
(586,555,o),
(612,529,c),
(612,489,l),
(586,463,o),
(559,419,o),
(532,361,c)
);
},
{
closed = 1;
nodes = (
(642,154,l),
(642,208,l),
(51,208,l),
(51,154,l)
);
},
{
closed = 1;
nodes = (
(576,33,l),
(629,95,o),
(685,141,o),
(743,170,c),
(743,192,l),
(685,221,o),
(629,267,o),
(576,329,c),
(532,329,l),
(559,271,o),
(586,227,o),
(612,201,c),
(612,161,l),
(586,135,o),
(559,91,o),
(532,33,c)
);
},
{
closed = 1;
nodes = (
(642,482,l),
(642,536,l),
(51,536,l),
(51,482,l)
);
}
);
width = 794;
}
);
unicode = 8649;
}
{
glyphname = northEastDoubleArrow;
layers = (
{
layerId = master01;
shapes = (
{
closed = 1;
nodes = (
(497,566,l),
(459,605,l),
(51,197,l),
(89,158,l)
);
},
{
closed = 1;
nodes = (
(598,466,l),
(559,504,l),
(151,96,l),
(190,58,l)
);
},
{
closed = 1;
nodes = (
(625,296,l),
(619,378,o),
(615,482,o),
(617,610,c),
(603,624,l),
(475,622,o),
(371,626,o),
(289,632,c),
(258,600,l),
(348,571,o),
(463,549,o),
(559,544,c),
(537,566,l),
(542,470,o),
(564,355,o),
(593,265,c)
);
}
);
width = 676;
}
);
unicode = 8663;
}
{
glyphname = leftDashArrow;
layers = (
{
layerId = master01;
shapes = (
{
closed = 1;
nodes = (
(262,197,l),
(235,255,o),
(208,299,o),
(182,325,c),
(182,365,l),
(208,391,o),
(235,435,o),
(262,493,c),
(218,493,l),
(165,431,o),
(109,385,o),
(51,356,c),
(51,334,l),
(109,305,o),
(165,259,o),
(218,197,c)
);
},
{
closed = 1;
nodes = (
(292,318,l),
(292,372,l),
(152,372,l),
(152,318,l)
);
},
{
closed = 1;
nodes = (
(456,318,l),
(456,372,l),
(346,372,l),
(346,318,l)
);
},
{
closed = 1;
nodes = (
(620,318,l),
(620,372,l),
(510,372,l),
(510,318,l)
);
},
{
closed = 1;
nodes = (
(784,318,l),
(784,372,l),
(674,372,l),
(674,318,l)
);
}
);
width = 835;
}
);
unicode = 8672;
}
{
glyphname = dashdownArrow;
layers = (
{
layerId = master01;
shapes = (
{
closed = 1;
nodes = (
(229,-21,l),
(258,37,o),
(304,93,o),
(366,146,c),
(366,190,l),
(308,163,o),
(264,136,o),
(238,110,c),
(198,110,l),
(172,136,o),
(128,163,o),
(70,190,c),
(70,146,l),
(132,93,o),
(178,37,o),
(207,-21,c)
);
},
{
closed = 1;
nodes = (
(245,80,l),
(245,220,l),
(191,220,l),
(191,80,l)
);
},
{
closed = 1;
nodes = (
(245,274,l),
(245,384,l),
(191,384,l),
(191,274,l)
);
},
{
closed = 1;
nodes = (
(245,438,l),
(245,548,l),
(191,548,l),
(191,438,l)
);
},
{
closed = 1;
nodes = (
(245,602,l),
(245,713,l),
(191,713,l),
(191,602,l)
);
}
);
width = 436;
}
);
unicode = 8675;
}
{
glyphname = northWestArrowToCorner;
layers = (
{
layerId = master01;
shapes = (
{
closed = 1;
nodes = (
(169,0,l),
(169,638,l),
(807,638,l),
(807,692,l),
(115,692,l),
(115,0,l)
);
},
{
closed = 1;
nodes = (
(771,71,l),
(353,489,l),
(315,451,l),
(733,33,l)
);
},
{
closed = 1;
nodes = (
(329,348,o),
(341,398,o),
(341,435,c),
(369,463,l),
(406,463,o),
(456,475,o),
(516,497,c),
(485,528,l),
(404,522,o),
(332,529,o),
(270,549,c),
(255,534,l),
(275,472,o),
(282,400,o),
(276,319,c),
(307,288,l)
);
}
);
width = 897;
}
);
unicode = 8689;
}
{
glyphname = southEastArrowToCorner;
layers = (
{
layerId = master01;
shapes = (
{
closed = 1;
nodes = (
(782,0,l),
(782,692,l),
(728,692,l),
(728,54,l),
(90,54,l),
(90,0,l)
);
},
{
closed = 1;
nodes = (
(582,241,l),
(164,659,l),
(126,621,l),
(544,203,l)
);
},
{
closed = 1;
nodes = (
(642,158,l),
(622,220,o),
(615,292,o),
(621,373,c),
(590,404,l),
(568,344,o),
(556,294,o),
(556,257,c),
(528,229,l),
(491,229,o),
(441,217,o),
(381,195,c),
(412,164,l),
(493,170,o),
(565,163,o),
(627,143,c)
);
}
);
width = 897;
}
);
unicode = 8690;
}
{
glyphname = leftRightDoubleVerticalStrokeArrow;
layers = (
{
layerId = master01;
shapes = (
{
closed = 1;
nodes = (
(666,197,l),
(719,259,o),
(775,305,o),
(833,334,c),
(833,356,l),
(775,385,o),
(719,431,o),
(666,493,c),
(622,493,l),
(649,435,o),
(676,391,o),
(702,365,c),
(702,325,l),
(676,299,o),
(649,255,o),
(622,197,c)
);
},
{
closed = 1;
nodes = (
(262,197,l),
(235,255,o),
(208,299,o),
(182,325,c),
(182,365,l),
(208,391,o),
(235,435,o),
(262,493,c),
(218,493,l),
(165,431,o),
(109,385,o),
(51,356,c),
(51,334,l),
(109,305,o),
(165,259,o),
(218,197,c)
);
},
{
closed = 1;
nodes = (
(407,197,l),
(407,493,l),
(353,493,l),
(353,197,l)
);
},
{
closed = 1;
nodes = (
(732,318,l),
(732,372,l),
(152,372,l),
(152,318,l)
);
},
{
closed = 1;
nodes = (
(531,197,l),
(531,493,l),
(477,493,l),
(477,197,l)
);
}
);
width = 884;
}
);
unicode = 8700;
}
{
glyphname = universal;
layers = (
{
layerId = master01;
shapes = (
{
closed = 1;
nodes = (
(414,-4,l),
(699,715,l),
(602,715,l),
(516,492,l),
(230,492,l),
(148,715,l),
(51,715,l),
(332,-4,l)
);
},
{
closed = 1;
nodes = (
(374,89,o),
(369,106,o),
(360,132,cs),
(351,158,o),
(319,250,o),
(262,410,c),
(488,410,l),
(440,282,o),
(411,199,o),
(398,161,cs),
(385,124,o),
(378,97,o),
(375,82,c)
);
}
);
width = 750;
}
);
unicode = 8704;
}
{
glyphname = increment;
layers = (
{
layerId = master01;
shapes = (
{
closed = 1;
nodes = (
(561,0,l),
(561,54,l),
(335,714,l),
(245,714,l),
(20,55,l),
(20,0,l)
);
},
{
closed = 1;
nodes = (
(243,455,ls),
(257,498,o),
(272,551,o),
(289,616,c),
(299,572,o),
(315,517,o),
(337,451,cs),
(462,79,l),
(116,79,l)
);
}
);
width = 581;
}
);
unicode = 8710;
}
{
glyphname = minus;
layers = (
{
layerId = master01;
shapes = (
{
closed = 1;
nodes = (
(521,317,l),
(521,388,l),
(51,388,l),
(51,317,l)
);
}
);
width = 572;
}
);
unicode = 8722;
}
{
glyphname = divisionslash;
layers = (
{
layerId = master01;
shapes = (
{
closed = 1;
nodes = (
(122,-121,l),
(352,760,l),
(281,760,l),
(51,-121,l)
);
}
);
width = 403;
}
);
unicode = 8725;
}
{
glyphname = proportional;
layers = (
{
layerId = master01;
shapes = (
{
closed = 1;
nodes = (
(254,198,o),
(305,235,o),
(344,302,c),
(383,235,o),
(431,200,o),
(489,198,c),
(489,261,l),
(446,263,o),
(413,291,o),
(380,351,c),
(416,415,o),
(447,441,o),
(489,444,c),
(489,507,l),
(433,503,o),
(385,469,o),
(345,402,c),
(306,472,o),
(257,507,o),
(198,507,cs),
(112,507,o),
(51,442,o),
(51,353,cs),
(51,261,o),
(110,198,o),
(198,198,cs)
);
},
{
closed = 1;
nodes = (
(150,261,o),
(116,300,o),
(116,353,cs),
(116,406,o),
(151,444,o),
(201,444,cs),
(246,444,o),
(278,414,o),
(311,353,c),
(276,290,o),
(243,261,o),
(202,261,cs)
);
}
);
width = 540;
}
);
unicode = 8733;
}
{
glyphname = angle;
layers = (
{
layerId = master01;
shapes = (
{
closed = 1;
nodes = (
(601,0,l),
(601,71,l),
(166,71,l),
(511,464,l),
(461,515,l),
(51,50,l),
(51,0,l)
);
}
);
width = 652;
}
);
unicode = 8736;
}
{
glyphname = sphericalangle;
layers = (
{
layerId = master01;
shapes = (
{
closed = 1;
nodes = (
(340,110,o),
(353,141,o),
(364,178,c),
(521,109,l),
(521,187,l),
(382,245,l),
(389,278,o),
(392,311,o),
(392,345,cs),
(392,383,o),
(388,419,o),
(379,456,c),
(521,523,l),
(521,601,l),
(361,521,l),
(349,558,o),
(337,587,o),
(326,606,c),
(267,577,l),
(282,546,o),
(293,518,o),
(302,491,c),
(51,366,l),
(51,316,l),
(304,204,l),
(295,174,o),
(283,144,o),
(267,113,c),
(326,84,l)
);
},
{
closed = 1;
nodes = (
(145,345,l),
(318,427,l),
(323,396,o),
(325,369,o),
(325,345,cs),
(325,317,o),
(323,292,o),
(319,271,c)
);
}
);
width = 572;
}
);
unicode = 8738;
}
{
glyphname = logicalor;
layers = (
{
layerId = master01;
shapes = (
{
closed = 1;
nodes = (
(382,0,l),
(663,580,l),
(580,580,l),
(357,102,l),
(134,580,l),
(51,580,l),
(332,0,l)
);
}
);
width = 714;
}
);
unicode = 8744;
}
{
glyphname = tripleintegral;
layers = (
{
layerId = master01;
shapes = (
{
closed = 1;
nodes = (
(699,-240,o),
(754,-179,o),
(754,-62,cs),
(754,701,ls),
(754,777,o),
(782,815,o),
(837,815,cs),
(855,815,o),
(874,811,o),
(893,803,c),
(893,876,l),
(878,882,o),
(857,885,o),
(830,885,cs),
(723,885,o),
(669,826,o),
(669,707,cs),
(669,-56,ls),
(669,-132,o),
(640,-170,o),
(583,-170,cs),
(563,-170,o),
(543,-166,o),
(523,-158,c),
(523,-230,l),
(543,-237,o),
(565,-240,o),
(591,-240,cs)
);
},
{
closed = 1;
nodes = (
(181,-240,o),
(236,-179,o),
(236,-62,cs),
(236,701,ls),
(236,777,o),
(264,815,o),
(319,815,cs),
(337,815,o),
(356,811,o),
(375,803,c),
(375,876,l),
(360,882,o),
(339,885,o),
(312,885,cs),
(205,885,o),
(151,826,o),
(151,707,cs),
(151,-56,ls),
(151,-132,o),
(122,-170,o),
(65,-170,cs),
(45,-170,o),
(25,-166,o),
(5,-158,c),
(5,-230,l),
(25,-237,o),
(47,-240,o),
(73,-240,cs)
);
},
{
closed = 1;
nodes = (
(440,-240,o),
(495,-179,o),
(495,-62,cs),
(495,701,ls),
(495,777,o),
(523,815,o),
(578,815,cs),
(597,815,o),
(616,811,o),
(634,803,c),
(634,876,l),
(619,882,o),
(598,885,o),
(571,885,cs),
(464,885,o),
(410,826,o),
(410,707,cs),
(410,-56,ls),
(410,-132,o),
(381,-170,o),
(324,-170,cs),
(304,-170,o),
(284,-166,o),
(264,-158,c),
(264,-230,l),
(284,-237,o),
(307,-240,o),
(332,-240,cs)
);
}
);
width = 905;
}
);
unicode = 8749;
userData = {
com.nagwa.MATHPlugin.extendedShape = 1;
com.nagwa.MATHPlugin.variants = {
vAssembly = (
(
tripleintegral.b,
0,
0,
1100
),
(
tripleintegral.x,
1,
1362,
1362
),
(
tripleintegral.t,
0,
1100,
0
)
);
vVariants = (
tripleintegral,
tripleintegral.s1
);
};
};
}
{
glyphname = therefore;
layers = (
{
layerId = master01;
shapes = (
{
closed = 1;
nodes = (
(319,463,o),
(346,490,o),
(346,523,cs),
(346,556,o),
(319,583,o),
(286,583,cs),
(253,583,o),
(226,556,o),
(226,523,cs),
(226,490,o),
(253,463,o),
(286,463,cs)
);
},
{
closed = 1;
nodes = (
(144,122,o),
(171,149,o),
(171,182,cs),
(171,215,o),
(144,242,o),
(111,242,cs),
(78,242,o),
(51,215,o),
(51,182,cs),
(51,149,o),
(78,122,o),
(111,122,cs)
);
},
{
closed = 1;
nodes = (
(494,122,o),
(521,149,o),
(521,182,cs),
(521,215,o),
(494,242,o),
(461,242,cs),
(428,242,o),
(401,215,o),
(401,182,cs),
(401,149,o),
(428,122,o),
(461,122,cs)
);
}
);
width = 571;
}
);
unicode = 8756;
}
{
glyphname = ratio;
layers = (
{
layerId = master01;
shapes = (
{
closed = 1;
nodes = (
(144,463,o),
(171,490,o),
(171,523,cs),
(171,556,o),
(144,583,o),
(111,583,cs),
(78,583,o),
(51,556,o),
(51,523,cs),
(51,490,o),
(78,463,o),
(111,463,cs)
);
},
{
closed = 1;
nodes = (
(144,122,o),
(171,149,o),
(171,182,cs),
(171,215,o),
(144,242,o),
(111,242,cs),
(78,242,o),
(51,215,o),
(51,182,cs),
(51,149,o),
(78,122,o),
(111,122,cs)
);
}
);
width = 222;
}
);
unicode = 8758;
}
{
glyphname = approxequal;
layers = (
{
layerId = master01;
shapes = (
{
closed = 1;
nodes = (
(90,425,o),
(132,445,o),
(164,445,cs),
(196,445,o),
(233,435,o),
(275,416,cs),
(318,396,o),
(360,386,o),
(401,386,cs),
(447,386,o),
(488,404,o),
(521,440,c),
(521,517,l),
(484,479,o),
(441,458,o),
(406,458,cs),
(375,458,o),
(338,468,o),
(296,487,cs),
(253,507,o),
(212,517,o),
(170,517,cs),
(123,517,o),
(84,499,o),
(51,464,c),
(51,386,l)
);
},
{
closed = 1;
nodes = (
(90,228,o),
(132,248,o),
(164,248,cs),
(196,248,o),
(233,238,o),
(275,219,cs),
(318,199,o),
(360,189,o),
(401,189,cs),
(447,189,o),
(488,207,o),
(521,243,c),
(521,320,l),
(484,282,o),
(441,261,o),
(406,261,cs),
(375,261,o),
(338,271,o),
(296,290,cs),
(253,310,o),
(212,320,o),
(170,320,cs),
(123,320,o),
(84,302,o),
(51,267,c),
(51,189,l)
);
}
);
width = 572;
}
);
unicode = 8776;
}
{
glyphname = tripletilde;
layers = (
{
layerId = master01;
shapes = (
{
closed = 1;
nodes = (
(90,489,o),
(132,509,o),
(164,509,cs),
(196,509,o),
(233,499,o),
(275,480,cs),
(318,460,o),
(360,450,o),
(401,450,cs),
(447,450,o),
(488,468,o),
(521,504,c),
(521,581,l),
(484,543,o),
(441,522,o),
(406,522,cs),
(375,522,o),
(338,532,o),
(296,551,cs),
(253,571,o),
(212,581,o),
(170,581,cs),
(123,581,o),
(84,563,o),
(51,528,c),
(51,450,l)
);
},
{
closed = 1;
nodes = (
(90,169,o),
(132,189,o),
(164,189,cs),
(196,189,o),
(233,179,o),
(275,160,cs),
(318,140,o),
(360,130,o),
(401,130,cs),
(447,130,o),
(488,148,o),
(521,184,c),
(521,261,l),
(484,223,o),
(441,202,o),
(406,202,cs),
(375,202,o),
(338,212,o),
(296,231,cs),
(253,251,o),
(212,261,o),
(170,261,cs),
(123,261,o),
(84,243,o),
(51,208,c),
(51,130,l)
);
},
{
closed = 1;
nodes = (
(90,329,o),
(132,349,o),
(164,349,cs),
(196,349,o),
(233,339,o),
(275,320,cs),
(318,300,o),
(360,290,o),
(401,290,cs),
(447,290,o),
(488,308,o),
(521,344,c),
(521,421,l),
(484,383,o),
(441,362,o),
(406,362,cs),
(375,362,o),
(338,372,o),
(296,391,cs),
(253,411,o),
(212,421,o),
(170,421,cs),
(123,421,o),
(84,403,o),
(51,368,c),
(51,290,l)
);
}
);
width = 572;
}
);
unicode = 8779;
}
{
glyphname = equivalentto;
layers = (
{
layerId = master01;
shapes = (
{
closed = 1;
nodes = (
(366,391,o),
(444,414,o),
(521,458,c),
(484,516,l),
(392,468,o),
(347,462,o),
(286,462,cs),
(228,462,o),
(182,467,o),
(88,516,c),
(51,458,l),
(124,414,o),
(202,391,o),
(286,391,cs)
);
},
{
closed = 1;
nodes = (
(182,243,o),
(226,248,o),
(286,248,cs),
(343,248,o),
(390,243,o),
(484,194,c),
(521,252,l),
(444,296,o),
(366,319,o),
(286,319,cs),
(202,319,o),
(124,296,o),
(51,252,c),
(88,194,l)
);
}
);
width = 572;
}
);
unicode = 8781;
}
{
glyphname = geometricallyequivalentto;
layers = (
{
layerId = master01;
shapes = (
{
closed = 1;
nodes = (
(216,416,l),
(216,487,ls),
(216,530,o),
(244,559,o),
(286,559,cs),
(329,559,o),
(356,530,o),
(356,487,cs),
(356,416,l),
(521,416,l),
(521,487,l),
(429,487,l),
(429,581,o),
(376,630,o),
(286,630,cs),
(196,630,o),
(143,581,o),
(143,487,c),
(51,487,l),
(51,416,l)
);
},
{
closed = 1;
nodes = (
(376,74,o),
(429,123,o),
(429,217,c),
(521,217,l),
(521,288,l),
(356,288,l),
(356,217,ls),
(356,175,o),
(329,145,o),
(286,145,cs),
(245,145,o),
(216,174,o),
(216,217,cs),
(216,288,l),
(51,288,l),
(51,217,l),
(143,217,l),
(143,123,o),
(195,74,o),
(286,74,cs)
);
}
);
width = 572;
}
);
unicode = 8782;
}
{
glyphname = differencebetween;
layers = (
{
layerId = master01;
shapes = (
{
closed = 1;
nodes = (
(216,416,l),
(216,487,ls),
(216,530,o),
(244,559,o),
(286,559,cs),
(329,559,o),
(356,530,o),
(356,487,cs),
(356,416,l),
(521,416,l),
(521,487,l),
(429,487,l),
(429,581,o),
(376,630,o),
(286,630,cs),
(196,630,o),
(143,581,o),
(143,487,c),
(51,487,l),
(51,416,l)
);
},
{
closed = 1;
nodes = (
(521,217,l),
(521,288,l),
(51,288,l),
(51,217,l)
);
}
);
width = 572;
}
);
unicode = 8783;
}
{
glyphname = imageorapproximatelyequal;
layers = (
{
layerId = master01;
shapes = (
{
closed = 1;
nodes = (
(521,416,l),
(521,487,l),
(51,487,l),
(51,416,l)
);
},
{
closed = 1;
nodes = (
(144,22,o),
(171,49,o),
(171,82,cs),
(171,115,o),
(144,142,o),
(111,142,cs),
(78,142,o),
(51,115,o),
(51,82,cs),
(51,49,o),
(78,22,o),
(111,22,cs)
);
},
{
closed = 1;
nodes = (
(521,217,l),
(521,288,l),
(51,288,l),
(51,217,l)
);
},
{
closed = 1;
nodes = (
(494,562,o),
(521,589,o),
(521,622,cs),
(521,655,o),
(494,682,o),
(461,682,cs),
(428,682,o),
(401,655,o),
(401,622,cs),
(401,589,o),
(428,562,o),
(461,562,cs)
);
}
);
width = 572;
}
);
unicode = 8787;
}
{
glyphname = colonequals;
layers = (
{
layerId = master01;
shapes = (
{
closed = 1;
nodes = (
(566,416,l),
(566,487,l),
(226,487,l),
(226,416,l)
);
},
{
closed = 1;
nodes = (
(144,192,o),
(171,219,o),
(171,252,cs),
(171,285,o),
(144,312,o),
(111,312,cs),
(78,312,o),
(51,285,o),
(51,252,cs),
(51,219,o),
(78,192,o),
(111,192,cs)
);
},
{
closed = 1;
nodes = (
(144,392,o),
(171,419,o),
(171,452,cs),
(171,485,o),
(144,512,o),
(111,512,cs),
(78,512,o),
(51,485,o),
(51,452,cs),
(51,419,o),
(78,392,o),
(111,392,cs)
);
},
{
closed = 1;
nodes = (
(566,217,l),
(566,288,l),
(226,288,l),
(226,217,l)
);
}
);
width = 617;
}
);
unicode = 8788;
}
{
glyphname = correspondsto;
layers = (
{
layerId = master01;
shapes = (
{
closed = 1;
nodes = (
(161,450,o),
(217,465,o),
(286,465,cs),
(346,465,o),
(399,456,o),
(479,401,c),
(516,459,l),
(438,516,o),
(369,536,o),
(286,536,cs),
(204,536,o),
(134,516,o),
(56,459,c),
(93,401,l)
);
},
{
closed = 1;
nodes = (
(521,50,l),
(521,121,l),
(51,121,l),
(51,50,l)
);
},
{
closed = 1;
nodes = (
(521,249,l),
(521,320,l),
(51,320,l),
(51,249,l)
);
}
);
width = 572;
}
);
unicode = 8792;
}
{
glyphname = starequals;
layers = (
{
layerId = master01;
shapes = (
{
closed = 1;
nodes = (
(286,461,l),
(402,377,l),
(356,512,l),
(472,596,l),
(330,596,l),
(286,730,l),
(242,596,l),
(100,596,l),
(215,512,l),
(170,377,l)
);
},
{
closed = 1;
nodes = (
(521,50,l),
(521,121,l),
(51,121,l),
(51,50,l)
);
},
{
closed = 1;
nodes = (
(521,249,l),
(521,320,l),
(51,320,l),
(51,249,l)
);
}
);
width = 572;
}
);
unicode = 8795;
}
{
glyphname = deltaequalto;
layers = (
{
layerId = master01;
shapes = (
{
closed = 1;
nodes = (
(434,389,l),
(445,411,l),
(297,695,l),
(275,695,l),
(127,411,l),
(138,389,l)
);
},
{
closed = 1;
nodes = (
(521,50,l),
(521,121,l),
(51,121,l),
(51,50,l)
);
},
{
closed = 1;
nodes = (
(521,249,l),
(521,320,l),
(51,320,l),
(51,249,l)
);
},
{
closed = 1;
nodes = (
(286,600,l),
(363,444,l),
(209,444,l)
);
}
);
width = 572;
}
);
unicode = 8796;
}
{
glyphname = measuredby;
layers = (
{
layerId = master01;
shapes = (
{
closed = 1;
nodes = (
(204,389,l),
(204,478,ls),
(204,516,o),
(215,535,o),
(238,535,cs),
(256,535,o),
(265,524,o),
(265,501,cs),
(265,389,l),
(309,389,l),
(309,485,ls),
(309,519,o),
(320,535,o),
(341,535,cs),
(359,535,o),
(368,524,o),
(368,501,cs),
(368,389,l),
(412,389,l),
(412,503,ls),
(412,550,o),
(391,573,o),
(348,573,cs),
(327,573,o),
(310,564,o),
(297,546,c),
(288,564,o),
(272,573,o),
(250,573,cs),
(229,573,o),
(213,565,o),
(201,548,c),
(197,568,l),
(160,568,l),
(160,389,l)
);
},
{
closed = 1;
nodes = (
(521,50,l),
(521,121,l),
(51,121,l),
(51,50,l)
);
},
{
closed = 1;
nodes = (
(521,249,l),
(521,320,l),
(51,320,l),
(51,249,l)
);
}
);
width = 572;
}
);
unicode = 8798;
}
{
glyphname = equivalence;
layers = (
{
layerId = master01;
shapes = (
{
closed = 1;
nodes = (
(521,491,l),
(521,562,l),
(51,562,l),
(51,491,l)
);
},
{
closed = 1;
nodes = (
(521,143,l),
(521,214,l),
(51,214,l),
(51,143,l)
);
},
{
closed = 1;
nodes = (
(521,317,l),
(521,388,l),
(51,388,l),
(51,317,l)
);
}
);
width = 572;
}
);
unicode = 8801;
}
{
glyphname = strictlyequivalentto;
layers = (
{
layerId = master01;
shapes = (
{
closed = 1;
nodes = (
(521,578,l),
(521,649,l),
(51,649,l),
(51,578,l)
);
},
{
closed = 1;
nodes = (
(521,56,l),
(521,127,l),
(51,127,l),
(51,56,l)
);
},
{
closed = 1;
nodes = (
(521,230,l),
(521,301,l),
(51,301,l),
(51,230,l)
);
},
{
closed = 1;
nodes = (
(521,404,l),
(521,475,l),
(51,475,l),
(51,404,l)
);
}
);
width = 572;
}
);
unicode = 8803;
}
{
glyphname = lessoverequal;
layers = (
{
layerId = master01;
shapes = (
{
closed = 1;
nodes = (
(521,363,l),
(159,484,l),
(521,606,l),
(521,679,l),
(51,509,l),
(51,459,l),
(521,290,l)
);
},
{
closed = 1;
nodes = (
(521,28,l),
(521,99,l),
(51,99,l),
(51,28,l)
);
},
{
closed = 1;
nodes = (
(521,188,l),
(521,259,l),
(51,259,l),
(51,188,l)
);
}
);
width = 572;
}
);
unicode = 8806;
}
{
glyphname = muchless;
layers = (
{
layerId = master01;
shapes = (
{
closed = 1;
nodes = (
(802,175,l),
(455,353,l),
(802,531,l),
(802,609,l),
(351,378,l),
(351,328,l),
(802,97,l)
);
},
{
closed = 1;
nodes = (
(482,175,l),
(135,353,l),
(482,531,l),
(482,609,l),
(31,378,l),
(31,328,l),
(482,97,l)
);
}
);
width = 833;
}
);
unicode = 8810;
}
{
glyphname = between;
layers = (
{
layerId = master01;
shapes = (
{
closed = 1;
nodes = (
(131,0,l),
(152,21,o),
(167,37,o),
(173,45,c),
(185,31,o),
(199,16,o),
(217,0,c),
(295,0,l),
(264,29,o),
(236,61,o),
(213,96,c),
(269,180,o),
(297,273,o),
(297,377,cs),
(297,481,o),
(269,576,o),
(213,662,c),
(236,696,o),
(263,728,o),
(296,760,c),
(217,760,l),
(207,750,o),
(192,735,o),
(173,714,c),
(160,730,o),
(146,746,o),
(131,760,c),
(51,760,l),
(84,728,o),
(112,696,o),
(134,662,c),
(79,578,o),
(51,483,o),
(51,377,cs),
(51,271,o),
(79,178,o),
(134,96,c),
(109,60,o),
(82,27,o),
(52,0,c)
);
},
{
closed = 1;
nodes = (
(129,251,o),
(119,307,o),
(119,378,cs),
(119,448,o),
(129,506,o),
(173,602,c),
(224,490,o),
(229,441,o),
(229,378,cs),
(229,317,o),
(225,271,o),
(173,155,c)
);
}
);
width = 348;
}
);
unicode = 8812;
}
{
glyphname = neithergreaterthannorequivalentto;
layers = (
{
layerId = master01;
shapes = (
{
closed = 1;
nodes = (
(229,98,l),
(317,60,o),
(348,50,o),
(401,50,cs),
(447,50,o),
(487,68,o),
(521,104,c),
(521,181,l),
(486,144,o),
(441,122,o),
(406,122,cs),
(373,122,o),
(346,130,o),
(289,154,cs),
(275,160,o),
(262,165,o),
(248,169,c),
(284,310,l),
(521,395,l),
(521,445,l),
(337,511,l),
(396,737,l),
(334,755,l),
(276,533,l),
(51,615,l),
(51,542,l),
(260,471,l),
(230,359,l),
(51,299,l),
(51,226,l),
(210,283,l),
(184,181,l),
(124,181,o),
(88,167,o),
(51,128,c),
(51,50,l),
(90,89,o),
(131,109,o),
(164,109,cs),
(165,109,l),
(122,-56,l),
(184,-74,l)
);
},
{
closed = 1;
nodes = (
(321,451,l),
(413,420,l),
(303,383,l)
);
}
);
width = 572;
}
);
unicode = 8821;
}
{
glyphname = precedes;
layers = (
{
layerId = master01;
shapes = (
{
closed = 1;
nodes = (
(491,179,l),
(425,238,o),
(286,321,o),
(192,351,c),
(192,355,l),
(296,388,o),
(442,480,o),
(491,527,c),
(491,613,l),
(376,505,o),
(187,407,o),
(51,376,c),
(51,330,l),
(193,297,o),
(376,200,o),
(491,93,c)
);
}
);
width = 542;
}
);
unicode = 8826;
}
{
glyphname = succeedsorequalto;
layers = (
{
layerId = master01;
shapes = (
{
closed = 1;
nodes = (
(152,286,o),
(331,361,o),
(491,390,c),
(491,436,l),
(285,479,o),
(138,547,o),
(51,638,c),
(51,557,l),
(105,495,o),
(230,434,o),
(330,416,c),
(330,412,l),
(230,389,o),
(125,337,o),
(51,271,c),
(51,183,l)
);
},
{
closed = 1;
nodes = (
(126,60,o),
(346,184,o),
(491,207,c),
(491,278,l),
(331,247,o),
(150,153,o),
(51,50,c),
(51,-42,l)
);
}
);
width = 542;
}
);
unicode = 8829;
}
{
glyphname = precedesorequivalentto;
layers = (
{
layerId = master01;
shapes = (
{
closed = 1;
nodes = (
(521,282,l),
(453,342,o),
(303,408,o),
(215,422,c),
(215,426,l),
(316,441,o),
(468,507,o),
(521,566,c),
(521,647,l),
(438,563,o),
(303,499,o),
(51,446,c),
(51,400,l),
(234,368,o),
(429,290,o),
(521,194,c)
);
},
{
closed = 1;
nodes = (
(90,89,o),
(131,109,o),
(164,109,cs),
(193,109,o),
(230,99,o),
(276,80,cs),
(323,61,o),
(363,50,o),
(401,50,cs),
(447,50,o),
(487,68,o),
(521,104,c),
(521,181,l),
(486,144,o),
(441,122,o),
(406,122,cs),
(377,122,o),
(341,133,o),
(295,152,cs),
(250,171,o),
(208,181,o),
(170,181,cs),
(124,181,o),
(83,164,o),
(51,128,c),
(51,50,l)
);
}
);
width = 572;
}
);
unicode = 8830;
}
{
glyphname = succeedsorequivalentto;
layers = (
{
layerId = master01;
shapes = (
{
closed = 1;
nodes = (
(146,290,o),
(334,367,o),
(521,400,c),
(521,446,l),
(271,498,o),
(130,563,o),
(51,647,c),
(51,566,l),
(105,507,o),
(257,441,o),
(357,426,c),
(357,422,l),
(271,408,o),
(119,342,o),
(51,282,c),
(51,194,l)
);
},
{
closed = 1;
nodes = (
(90,89,o),
(132,109,o),
(164,109,cs),
(195,109,o),
(233,100,o),
(276,80,cs),
(319,60,o),
(361,50,o),
(401,50,cs),
(447,50,o),
(488,68,o),
(521,104,c),
(521,181,l),
(486,144,o),
(441,122,o),
(406,122,cs),
(376,122,o),
(339,132,o),
(295,152,cs),
(251,172,o),
(210,181,o),
(170,181,cs),
(124,181,o),
(84,164,o),
(51,128,c),
(51,50,l)
);
}
);
width = 572;
}
);
unicode = 8831;
}
{
glyphname = notsuperset;
layers = (
{
layerId = master01;
shapes = (
{
closed = 1;
nodes = (
(320,62,ls),
(537,62,o),
(648,164,o),
(648,353,cs),
(648,543,o),
(537,644,o),
(320,644,cs),
(51,644,l),
(51,573,l),
(320,573,ls),
(493,573,o),
(576,507,o),
(576,353,cs),
(576,199,o),
(494,132,o),
(320,132,cs),
(51,132,l),
(51,62,l)
);
},
{
closed = 1;
nodes = (
(450,740,l),
(388,763,l),
(82,-34,l),
(144,-57,l)
);
}
);
width = 699;
}
);
unicode = 8837;
}
{
glyphname = reflexsubset;
layers = (
{
layerId = master01;
shapes = (
{
closed = 1;
nodes = (
(648,140,l),
(648,210,l),
(379,210,ls),
(205,210,o),
(123,277,o),
(123,431,cs),
(123,585,o),
(206,651,o),
(379,651,cs),
(648,651,l),
(648,722,l),
(379,722,ls),
(162,722,o),
(51,621,o),
(51,431,cs),
(51,242,o),
(162,140,o),
(379,140,cs)
);
},
{
closed = 1;
nodes = (
(648,0,l),
(648,71,l),
(91,71,l),
(91,0,l)
);
}
);
width = 699;
}
);
unicode = 8838;
}
{
glyphname = multiset;
layers = (
{
layerId = master01;
shapes = (
{
closed = 1;
nodes = (
(504,0,o),
(593,94,o),
(593,291,cs),
(593,696,l),
(522,696,l),
(522,291,ls),
(522,139,o),
(463,72,o),
(322,72,cs),
(181,72,o),
(122,139,o),
(122,291,cs),
(122,696,l),
(51,696,l),
(51,291,ls),
(51,94,o),
(140,0,o),
(322,0,cs)
);
},
{
closed = 1;
nodes = (
(307,231,l),
(448,231,l),
(448,307,l),
(307,307,l),
(307,395,l),
(199,269,l),
(307,143,l)
);
}
);
width = 644;
}
);
unicode = 8844;
}
{
glyphname = multisetmultiplication;
layers = (
{
layerId = master01;
shapes = (
{
closed = 1;
nodes = (
(504,0,o),
(593,94,o),
(593,291,cs),
(593,696,l),
(522,696,l),
(522,291,ls),
(522,139,o),
(463,72,o),
(322,72,cs),
(181,72,o),
(122,139,o),
(122,291,cs),
(122,696,l),
(51,696,l),
(51,291,ls),
(51,94,o),
(140,0,o),
(322,0,cs)
);
},
{
closed = 1;
nodes = (
(371,198,o),
(409,236,o),
(409,286,cs),
(409,333,o),
(371,374,o),
(322,374,cs),
(273,374,o),
(235,335,o),
(235,286,cs),
(235,235,o),
(272,198,o),
(322,198,cs)
);
}
);
width = 644;
}
);
unicode = 8845;
}
{
glyphname = ringoperator.circled;
layers = (
{
layerId = master01;
shapes = (
{
closed = 1;
nodes = (
(692,-64,o),
(877,121,o),
(877,349,cs),
(877,577,o),
(692,762,o),
(464,762,cs),
(236,762,o),
(51,577,o),
(51,349,cs),
(51,121,o),
(236,-64,o),
(464,-64,cs)
);
},
{
closed = 1;
nodes = (
(264,-13,o),
(102,149,o),
(102,349,cs),
(102,549,o),
(264,711,o),
(464,711,cs),
(664,711,o),
(826,549,o),
(826,349,cs),
(826,149,o),
(664,-13,o),
(464,-13,cs)
);
},
{
closed = 1;
nodes = (
(535,224,o),
(590,280,o),
(590,349,cs),
(590,420,o),
(534,475,o),
(464,475,cs),
(393,475,o),
(339,419,o),
(339,349,cs),
(339,277,o),
(393,224,o),
(464,224,cs)
);
},
{
closed = 1;
nodes = (
(428,282,o),
(397,311,o),
(397,349,cs),
(397,388,o),
(427,417,o),
(464,417,cs),
(502,417,o),
(531,387,o),
(531,349,cs),
(531,311,o),
(501,282,o),
(464,282,cs)
);
}
);
width = 928;
}
);
unicode = 8858;
}
{
glyphname = asteriskoperator.circled;
layers = (
{
layerId = master01;
shapes = (
{
closed = 1;
nodes = (
(692,-64,o),
(877,121,o),
(877,349,cs),
(877,577,o),
(692,762,o),
(464,762,cs),
(236,762,o),
(51,577,o),
(51,349,cs),
(51,121,o),
(236,-64,o),
(464,-64,cs)
);
},
{
closed = 1;
nodes = (
(264,-13,o),
(102,149,o),
(102,349,cs),
(102,549,o),
(264,711,o),
(464,711,cs),
(664,711,o),
(826,549,o),
(826,349,cs),
(826,149,o),
(664,-13,o),
(464,-13,cs)
);
},
{
closed = 1;
nodes = (
(500,165,l),
(495,296,l),
(605,226,l),
(641,288,l),
(526,349,l),
(641,410,l),
(605,472,l),
(495,402,l),
(500,533,l),
(428,533,l),
(433,402,l),
(323,472,l),
(287,410,l),
(402,349,l),
(287,288,l),
(323,226,l),
(433,296,l),
(428,165,l)
);
}
);
width = 928;
}
);
unicode = 8859;
}
{
glyphname = uptack;
layers = (
{
layerId = master01;
shapes = (
{
closed = 1;
nodes = (
(705,26,l),
(705,97,l),
(414,97,l),
(414,680,l),
(343,680,l),
(343,97,l),
(51,97,l),
(51,26,l)
);
}
);
width = 756;
}
);
unicode = 8869;
}
{
glyphname = forces;
layers = (
{
layerId = master01;
shapes = (
{
closed = 1;
nodes = (
(312,26,l),
(312,319,l),
(785,319,l),
(785,390,l),
(312,390,l),
(312,680,l),
(241,680,l),
(241,26,l)
);
},
{
closed = 1;
nodes = (
(122,26,l),
(122,680,l),
(51,680,l),
(51,26,l)
);
}
);
width = 836;
}
);
unicode = 8873;
}
{
glyphname = doesnotprove;
layers = (
{
layerId = master01;
shapes = (
{
closed = 1;
nodes = (
(410,318,l),
(705,318,l),
(705,389,l),
(438,389,l),
(555,690,l),
(494,716,l),
(367,389,l),
(122,389,l),
(122,680,l),
(51,680,l),
(51,26,l),
(122,26,l),
(122,318,l),
(339,318,l),
(222,16,l),
(283,-10,l)
);
}
);
width = 756;
}
);
unicode = 8876;
}
{
glyphname = succeedsunderrelation;
layers = (
{
layerId = master01;
shapes = (
{
closed = 1;
nodes = (
(219,66,o),
(254,91,o),
(285,156,c),
(228,186,l),
(211,151,o),
(191,134,o),
(168,134,cs),
(140,134,o),
(122,153,o),
(122,180,cs),
(122,236,o),
(188,269,o),
(286,291,cs),
(334,302,o),
(411,315,o),
(516,332,c),
(516,372,l),
(354,399,ls),
(281,411,o),
(224,428,o),
(183,447,cs),
(143,466,o),
(122,492,o),
(122,524,cs),
(122,550,o),
(140,571,o),
(168,571,cs),
(192,571,o),
(212,553,o),
(228,518,c),
(285,547,l),
(261,607,o),
(217,638,o),
(160,638,cs),
(93,638,o),
(51,592,o),
(51,528,cs),
(51,435,o),
(133,374,o),
(292,352,c),
(134,331,o),
(51,270,o),
(51,176,cs),
(51,113,o),
(102,66,o),
(166,66,cs)
);
}
);
width = 567;
}
);
unicode = 8881;
}
{
glyphname = normalsubgroupof;
layers = (
{
layerId = master01;
shapes = (
{
closed = 1;
nodes = (
(521,541,l),
(51,369,l),
(51,335,l),
(521,164,l)
);
},
{
closed = 1;
nodes = (
(169,351,l),
(454,449,l),
(454,256,l)
);
}
);
width = 572;
}
);
unicode = 8882;
}
{
glyphname = hermitianconjugatematrix;
layers = (
{
layerId = master01;
shapes = (
{
closed = 1;
nodes = (
(320,441,l),
(320,595,l),
(249,595,l),
(249,441,l)
);
},
{
closed = 1;
nodes = (
(320,112,l),
(320,266,l),
(249,266,l),
(249,112,l)
);
},
{
closed = 1;
nodes = (
(205,317,l),
(205,388,l),
(51,388,l),
(51,317,l)
);
},
{
closed = 1;
nodes = (
(521,317,l),
(521,388,l),
(367,388,l),
(367,317,l)
);
}
);
width = 572;
}
);
unicode = 8889;
}
{
glyphname = xor;
layers = (
{
layerId = master01;
shapes = (
{
closed = 1;
nodes = (
(306,139,l),
(521,579,l),
(443,579,l),
(286,248,l),
(129,579,l),
(51,579,l),
(267,139,l)
);
},
{
closed = 1;
nodes = (
(521,0,l),
(521,71,l),
(51,71,l),
(51,0,l)
);
}
);
width = 572;
}
);
unicode = 8891;
}
{
glyphname = rightanglearc;
layers = (
{
layerId = master01;
shapes = (
{
closed = 1;
nodes = (
(601,0,l),
(601,71,l),
(385,71,l),
(375,215,o),
(265,325,o),
(122,334,c),
(122,550,l),
(51,550,l),
(51,0,l)
);
},
{
closed = 1;
nodes = (
(122,273,l),
(232,264,o),
(315,178,o),
(324,71,c),
(122,71,l)
);
}
);
width = 652;
}
);
unicode = 8894;
}
{
glyphname = narylogicaland;
layers = (
{
layerId = master01;
shapes = (
{
closed = 1;
nodes = (
(127,-92,l),
(460,619,l),
(793,-92,l),
(869,-92,l),
(490,714,l),
(430,714,l),
(51,-92,l)
);
}
);
width = 920;
}
);
unicode = 8896;
userData = {
com.nagwa.MATHPlugin.variants = {
vVariants = (
narylogicaland,
narylogicaland.s1
);
};
};
}
{
glyphname = narylogicalor;
layers = (
{
layerId = master01;
shapes = (
{
closed = 1;
nodes = (
(490,-92,l),
(869,714,l),
(793,714,l),
(460,3,l),
(127,714,l),
(51,714,l),
(430,-92,l)
);
}
);
width = 920;
}
);
unicode = 8897;
userData = {
com.nagwa.MATHPlugin.variants = {
vVariants = (
narylogicalor,
narylogicalor.s1
);
};
};
}
{
glyphname = diamondoperator;
layers = (
{
layerId = master01;
shapes = (
{
closed = 1;
nodes = (
(538,353,l),
(295,596,l),
(51,353,l),
(295,109,l)
);
},
{
closed = 1;
nodes = (
(150,353,l),
(295,498,l),
(440,353,l),
(295,208,l)
);
}
);
width = 589;
}
);
unicode = 8900;
}
{
glyphname = staroperator;
layers = (
{
layerId = master01;
shapes = (
{
closed = 1;
nodes = (
(237,261,l),
(353,177,l),
(307,312,l),
(423,396,l),
(281,396,l),
(237,530,l),
(193,396,l),
(51,396,l),
(166,312,l),
(121,177,l)
);
}
);
width = 474;
}
);
unicode = 8902;
}
{
glyphname = leftsemidirectproduct;
layers = (
{
layerId = master01;
shapes = (
{
closed = 1;
nodes = (
(369,276,l),
(638,8,l),
(685,61,l),
(98,646,l),
(51,594,l),
(317,328,l),
(52,61,l),
(98,8,l)
);
}
);
width = 736;
}
);
unicode = 8907;
}
{
glyphname = reversedtildeequals;
layers = (
{
layerId = master01;
shapes = (
{
closed = 1;
nodes = (
(212,379,o),
(254,389,o),
(297,409,cs),
(339,428,o),
(376,438,o),
(408,438,cs),
(440,438,o),
(482,418,o),
(521,379,c),
(521,457,l),
(488,492,o),
(449,510,o),
(402,510,cs),
(360,510,o),
(319,500,o),
(276,480,cs),
(234,461,o),
(197,451,o),
(166,451,cs),
(131,451,o),
(88,472,o),
(51,510,c),
(51,433,l),
(84,397,o),
(125,379,o),
(171,379,cs)
);
},
{
closed = 1;
nodes = (
(521,246,l),
(521,317,l),
(51,317,l),
(51,246,l)
);
}
);
width = 572;
}
);
unicode = 8909;
}
{
glyphname = curlyor;
layers = (
{
layerId = master01;
shapes = (
{
closed = 1;
nodes = (
(388,0,l),
(433,194,o),
(551,430,o),
(679,564,c),
(593,564,l),
(534,503,o),
(407,288,o),
(368,151,c),
(362,151,l),
(324,284,o),
(198,498,o),
(137,564,c),
(51,564,l),
(188,416,o),
(299,187,o),
(342,0,c)
);
}
);
width = 730;
}
);
unicode = 8910;
}
{
glyphname = equalandparallelto;
layers = (
{
layerId = master01;
shapes = (
{
closed = 1;
nodes = (
(242,0,l),
(242,239,l),
(358,239,l),
(358,0,l),
(429,0,l),
(429,239,l),
(549,239,l),
(549,308,l),
(429,308,l),
(429,452,l),
(549,452,l),
(549,521,l),
(429,521,l),
(429,760,l),
(358,760,l),
(358,521,l),
(242,521,l),
(242,760,l),
(171,760,l),
(171,521,l),
(51,521,l),
(51,452,l),
(171,452,l),
(171,308,l),
(51,308,l),
(51,239,l),
(171,239,l),
(171,0,l)
);
},
{
closed = 1;
nodes = (
(242,452,l),
(358,452,l),
(358,308,l),
(242,308,l)
);
}
);
width = 600;
}
);
unicode = 8917;
}
{
glyphname = lessequalorgreater;
layers = (
{
layerId = master01;
shapes = (
{
closed = 1;
nodes = (
(521,499,l),
(159,620,l),
(521,742,l),
(521,815,l),
(51,645,l),
(51,595,l),
(521,426,l)
);
},
{
closed = 1;
nodes = (
(521,61,l),
(521,111,l),
(51,281,l),
(51,208,l),
(413,86,l),
(51,-35,l),
(51,-108,l)
);
},
{
closed = 1;
nodes = (
(521,318,l),
(521,389,l),
(51,389,l),
(51,318,l)
);
}
);
width = 572;
}
);
unicode = 8922;
}
{
glyphname = doesnotsucceedorequal;
layers = (
{
layerId = master01;
shapes = (
{
closed = 1;
nodes = (
(255,118,l),
(343,167,o),
(422,196,o),
(491,207,c),
(491,278,l),
(426,266,o),
(354,242,o),
(278,205,c),
(313,341,l),
(371,363,o),
(430,379,o),
(491,390,c),
(491,436,l),
(444,445,o),
(396,457,o),
(348,472,c),
(417,737,l),
(355,755,l),
(287,494,l),
(185,531,o),
(106,579,o),
(51,638,c),
(51,557,l),
(94,508,o),
(176,461,o),
(270,431,c),
(260,391,l),
(177,361,o),
(108,321,o),
(51,271,c),
(51,183,l),
(97,230,o),
(160,272,o),
(238,309,c),
(200,164,l),
(139,127,o),
(89,89,o),
(51,50,c),
(51,-42,l),
(77,-6,o),
(119,31,o),
(176,70,c),
(143,-56,l),
(205,-74,l)
);
}
);
width = 542;
}
);
unicode = 8929;
}
{
glyphname = squareoriginalofornotequalto;
layers = (
{
layerId = master01;
shapes = (
{
closed = 1;
nodes = (
(521,160,l),
(521,702,l),
(51,702,l),
(51,631,l),
(450,631,l),
(450,231,l),
(51,231,l),
(51,160,l)
);
},
{
closed = 1;
nodes = (
(336,107,l),
(277,136,l),
(180,-57,l),
(239,-86,l)
);
},
{
closed = 1;
nodes = (
(520,0,l),
(520,71,l),
(51,71,l),
(51,0,l)
);
}
);
width = 572;
}
);
unicode = 8933;
}
{
glyphname = midlinehorizontalellipsis;
layers = (
{
layerId = master01;
shapes = (
{
closed = 1;
nodes = (
(753,293,o),
(779,320,o),
(779,353,cs),
(779,386,o),
(753,413,o),
(719,413,cs),
(686,413,o),
(659,386,o),
(659,353,cs),
(659,320,o),
(686,293,o),
(719,293,cs)
);
},
{
closed = 1;
nodes = (
(144,292,o),
(171,319,o),
(171,352,cs),
(171,387,o),
(142,412,o),
(111,412,cs),
(78,412,o),
(51,385,o),
(51,352,cs),
(51,320,o),
(77,292,o),
(111,292,cs)
);
},
{
closed = 1;
nodes = (
(450,292,o),
(477,319,o),
(477,352,cs),
(477,387,o),
(448,412,o),
(417,412,cs),
(385,412,o),
(357,386,o),
(357,352,cs),
(357,319,o),
(384,292,o),
(417,292,cs)
);
}
);
width = 830;
}
);
unicode = 8943;
}
{
glyphname = smallelementofoverbar;
layers = (
{
layerId = master01;
shapes = (
{
closed = 1;
nodes = (
(505,133,l),
(505,204,l),
(300,204,ls),
(172,204,o),
(121,260,o),
(121,352,cs),
(121,444,o),
(172,501,o),
(300,501,cs),
(505,501,l),
(505,572,l),
(308,572,ls),
(140,572,o),
(51,496,o),
(51,352,cs),
(51,209,o),
(140,133,o),
(308,133,cs)
);
},
{
closed = 1;
nodes = (
(505,317,l),
(505,388,l),
(104,388,l),
(104,317,l)
);
},
{
closed = 1;
nodes = (
(505,641,l),
(505,708,l),
(101,708,l),
(101,641,l)
);
}
);
width = 556;
}
);
unicode = 8951;
}
{
glyphname = containslonghorizontalstroke;
layers = (
{
layerId = master01;
shapes = (
{
closed = 1;
nodes = (
(305,61,ls),
(528,61,o),
(648,161,o),
(648,352,cs),
(648,543,o),
(530,643,o),
(305,643,cs),
(51,643,l),
(51,572,l),
(317,572,ls),
(487,572,o),
(576,496,o),
(576,352,cs),
(576,208,o),
(485,132,o),
(317,132,cs),
(51,132,l),
(51,61,l)
);
},
{
closed = 1;
nodes = (
(765,317,l),
(765,388,l),
(51,388,l),
(51,317,l)
);
}
);
width = 816;
}
);
unicode = 8954;
}
{
glyphname = turnedNotSign;
layers = (
{
layerId = master01;
shapes = (
{
closed = 1;
nodes = (
(521,310,l),
(521,381,l),
(122,381,l),
(122,570,l),
(51,570,l),
(51,310,l)
);
}
);
width = 572;
}
);
unicode = 8985;
}
{
glyphname = topLeftCorner;
layers = (
{
layerId = master01;
shapes = (
{
closed = 1;
nodes = (
(122,346,l),
(122,643,l),
(391,643,l),
(391,714,l),
(51,714,l),
(51,346,l)
);
}
);
width = 442;
}
);
unicode = 8988;
}
{
glyphname = topRightcorner;
layers = (
{
layerId = master01;
shapes = (
{
closed = 1;
nodes = (
(391,346,l),
(391,714,l),
(51,714,l),
(51,643,l),
(320,643,l),
(320,346,l)
);
}
);
width = 442;
}
);
unicode = 8989;
}
{
glyphname = bottomRightCorner;
layers = (
{
layerId = master01;
shapes = (
{
closed = 1;
nodes = (
(391,0,l),
(391,368,l),
(320,368,l),
(320,71,l),
(51,71,l),
(51,0,l)
);
}
);
width = 442;
}
);
unicode = 8991;
}
{
glyphname = integraltp;
layers = (
{
layerId = master01;
shapes = (
{
closed = 1;
nodes = (
(236,0,l),
(236,1178,ls),
(236,1254,o),
(264,1292,o),
(319,1292,cs),
(337,1292,o),
(356,1288,o),
(375,1280,c),
(375,1353,l),
(360,1359,o),
(339,1362,o),
(312,1362,cs),
(205,1362,o),
(151,1303,o),
(151,1184,cs),
(151,0,l)
);
}
);
width = 387;
}
);
unicode = 8992;
}
{
glyphname = integralbt;
layers = (
{
layerId = master01;
shapes = (
{
closed = 1;
nodes = (
(182,0,o),
(236,61,o),
(236,178,cs),
(236,1362,l),
(151,1362,l),
(151,184,ls),
(151,108,o),
(123,70,o),
(68,70,cs),
(49,70,o),
(30,74,o),
(12,82,c),
(12,9,l),
(28,3,o),
(49,0,o),
(75,0,cs)
);
}
);
width = 387;
}
);
unicode = 8993;
}
{
glyphname = APLIbeam;
layers = (
{
layerId = master01;
shapes = (
{
closed = 1;
nodes = (
(705,26,l),
(705,97,l),
(414,97,l),
(414,609,l),
(705,609,l),
(705,680,l),
(51,680,l),
(51,609,l),
(343,609,l),
(343,97,l),
(51,97,l),
(51,26,l)
);
}
);
width = 756;
}
);
unicode = 9014;
}
{
glyphname = APLsquishquad;
layers = (
{
layerId = master01;
shapes = (
{
closed = 1;
nodes = (
(425,-102,l),
(425,816,l),
(79,816,l),
(79,-102,l)
);
},
{
closed = 1;
nodes = (
(150,745,l),
(354,745,l),
(354,-31,l),
(150,-31,l)
);
}
);
width = 504;
}
);
unicode = 9015;
}
{
glyphname = APLquadequal;
layers = (
{
layerId = master01;
shapes = (
{
closed = 1;
nodes = (
(561,422,l),
(561,493,l),
(167,493,l),
(167,422,l)
);
},
{
closed = 1;
nodes = (
(561,221,l),
(561,292,l),
(167,292,l),
(167,221,l)
);
},
{
alignment = -1;
ref = APLquad;
}
);
width = 728;
}
);
unicode = 9016;
}
{
glyphname = APLcirclejot;
layers = (
{
layerId = master01;
shapes = (
{
closed = 1;
nodes = (
(569,22,o),
(721,174,o),
(721,357,cs),
(721,545,o),
(569,692,o),
(386,692,cs),
(201,692,o),
(51,540,o),
(51,357,cs),
(51,174,o),
(201,22,o),
(386,22,cs)
);
},
{
closed = 1;
nodes = (
(240,93,o),
(122,213,o),
(122,357,cs),
(122,501,o),
(240,621,o),
(386,621,cs),
(530,621,o),
(650,505,o),
(650,357,cs),
(650,213,o),
(530,93,o),
(386,93,cs)
);
},
{
closed = 1;
nodes = (
(478,189,o),
(554,265,o),
(554,357,cs),
(554,451,o),
(478,525,o),
(386,525,cs),
(293,525,o),
(218,449,o),
(218,357,cs),
(218,265,o),
(293,189,o),
(386,189,cs)
);
},
{
closed = 1;
nodes = (
(328,252,o),
(281,299,o),
(281,357,cs),
(281,415,o),
(328,462,o),
(386,462,cs),
(443,462,o),
(491,416,o),
(491,357,cs),
(491,298,o),
(443,252,o),
(386,252,cs)
);
}
);
width = 772;
}
);
unicode = 9022;
}
{
glyphname = APLslashbar;
layers = (
{
layerId = master01;
shapes = (
{
closed = 1;
nodes = (
(148,-110,l),
(466,713,l),
(391,713,l),
(73,-110,l)
);
},
{
closed = 1;
nodes = (
(488,268,l),
(488,335,l),
(51,335,l),
(51,268,l)
);
}
);
width = 539;
}
);
unicode = 9023;
}
{
glyphname = APLbackslashbar;
layers = (
{
layerId = master01;
shapes = (
{
closed = 1;
nodes = (
(466,-110,l),
(148,713,l),
(73,713,l),
(391,-110,l)
);
},
{
closed = 1;
nodes = (
(488,268,l),
(488,335,l),
(51,335,l),
(51,268,l)
);
}
);
width = 539;
}
);
unicode = 9024;
}
{
glyphname = APLquadslash;
layers = (
{
layerId = master01;
shapes = (
{
closed = 1;
nodes = (
(638,763,l),
(575,798,l),
(90,-49,l),
(153,-84,l)
);
},
{
alignment = -1;
ref = APLquad;
}
);
width = 728;
}
);
unicode = 9025;
}
{
glyphname = APLquadbackslash;
layers = (
{
layerId = master01;
shapes = (
{
closed = 1;
nodes = (
(638,-49,l),
(153,798,l),
(90,763,l),
(575,-84,l)
);
},
{
alignment = -1;
ref = APLquad;
}
);
width = 728;
}
);
unicode = 9026;
}
{
glyphname = APLcirclebackslash;
layers = (
{
layerId = master01;
shapes = (
{
closed = 1;
nodes = (
(571,-82,l),
(172,772,l),
(101,772,l),
(500,-82,l)
);
},
{
closed = 1;
nodes = (
(493,72,o),
(621,200,o),
(621,357,cs),
(621,514,o),
(493,642,o),
(336,642,cs),
(179,642,o),
(51,514,o),
(51,357,cs),
(51,200,o),
(179,72,o),
(336,72,cs)
);
},
{
closed = 1;
nodes = (
(218,143,o),
(122,239,o),
(122,357,cs),
(122,475,o),
(218,571,o),
(336,571,cs),
(454,571,o),
(550,475,o),
(550,357,cs),
(550,240,o),
(454,143,o),
(336,143,cs)
);
}
);
width = 672;
}
);
unicode = 9033;
}
{
glyphname = APLuptackoverbar;
layers = (
{
layerId = master01;
shapes = (
{
closed = 1;
nodes = (
(414,26,l),
(414,609,l),
(705,609,l),
(705,680,l),
(51,680,l),
(51,609,l),
(343,609,l),
(343,26,l)
);
},
{
closed = 1;
nodes = (
(704,758,l),
(704,829,l),
(51,829,l),
(51,758,l)
);
}
);
width = 756;
}
);
unicode = 9041;
}
{
glyphname = APLdiamondunderbar;
layers = (
{
layerId = master01;
shapes = (
{
closed = 1;
nodes = (
(811,380,l),
(431,760,l),
(51,380,l),
(431,0,l)
);
},
{
closed = 1;
nodes = (
(811,-149,l),
(811,-78,l),
(51,-78,l),
(51,-149,l)
);
},
{
closed = 1;
nodes = (
(153,380,l),
(431,658,l),
(709,380,l),
(431,102,l)
);
}
);
width = 862;
}
);
unicode = 9050;
}
{
glyphname = APLcirclestar;
layers = (
{
layerId = master01;
shapes = (
{
closed = 1;
nodes = (
(572,6,o),
(721,156,o),
(721,341,cs),
(721,526,o),
(571,676,o),
(386,676,cs),
(202,676,o),
(51,525,o),
(51,341,cs),
(51,156,o),
(202,6,o),
(386,6,cs)
);
},
{
closed = 1;
nodes = (
(240,77,o),
(122,194,o),
(122,341,cs),
(122,486,o),
(239,605,o),
(386,605,cs),
(534,605,o),
(650,488,o),
(650,341,cs),
(650,194,o),
(533,77,o),
(386,77,cs)
);
},
{
closed = 1;
nodes = (
(386,276,l),
(476,146,l),
(541,193,l),
(446,319,l),
(597,366,l),
(572,442,l),
(423,390,l),
(426,548,l),
(346,548,l),
(349,390,l),
(200,442,l),
(175,366,l),
(326,319,l),
(231,193,l),
(296,146,l)
);
}
);
width = 772;
}
);
unicode = 9055;
}
{
glyphname = APLuptackdieresis;
layers = (
{
layerId = master01;
shapes = (
{
closed = 1;
nodes = (
(414,26,l),
(414,609,l),
(705,609,l),
(705,680,l),
(51,680,l),
(51,609,l),
(343,609,l),
(343,26,l)
);
},
{
closed = 1;
nodes = (
(300,738,o),
(323,759,o),
(323,788,cs),
(323,817,o),
(301,838,o),
(273,838,cs),
(245,838,o),
(223,817,o),
(223,788,cs),
(223,760,o),
(245,738,o),
(273,738,cs)
);
},
{
closed = 1;
nodes = (
(509,738,o),
(532,759,o),
(532,788,cs),
(532,817,o),
(510,838,o),
(482,838,cs),
(454,838,o),
(432,817,o),
(432,788,cs),
(432,760,o),
(454,738,o),
(482,738,cs)
);
}
);
width = 756;
}
);
unicode = 9057;
}
{
glyphname = APLjotdieresis;
layers = (
{
layerId = master01;
shapes = (
{
closed = 1;
nodes = (
(311,189,o),
(387,265,o),
(387,357,cs),
(387,451,o),
(311,525,o),
(219,525,cs),
(126,525,o),
(51,449,o),
(51,357,cs),
(51,265,o),
(126,189,o),
(219,189,cs)
);
},
{
closed = 1;
nodes = (
(161,252,o),
(114,299,o),
(114,357,cs),
(114,415,o),
(161,462,o),
(219,462,cs),
(276,462,o),
(324,416,o),
(324,357,cs),
(324,298,o),
(276,252,o),
(219,252,cs)
);
},
{
closed = 1;
nodes = (
(143,586,o),
(164,607,o),
(164,636,cs),
(164,664,o),
(143,686,o),
(114,686,cs),
(86,686,o),
(64,664,o),
(64,636,cs),
(64,607,o),
(86,586,o),
(114,586,cs)
);
},
{
closed = 1;
nodes = (
(352,586,o),
(374,607,o),
(374,636,cs),
(374,664,o),
(352,686,o),
(324,686,cs),
(295,686,o),
(274,664,o),
(274,636,cs),
(274,607,o),
(295,586,o),
(324,586,cs)
);
}
);
width = 438;
}
);
unicode = 9060;
}
{
glyphname = APLquadquestion;
layers = (
{
layerId = master01;
shapes = (
{
closed = 1;
nodes = (
(366,247,l),
(366,259,ls),
(366,304,o),
(382,322,o),
(435,366,cs),
(487,409,o),
(502,440,o),
(502,487,cs),
(502,559,o),
(444,607,o),
(356,607,cs),
(307,607,o),
(262,596,o),
(220,573,c),
(242,520,l),
(272,534,o),
(306,548,o),
(351,548,cs),
(404,548,o),
(435,523,o),
(435,485,cs),
(435,456,o),
(424,431,o),
(399,412,cs),
(352,376,o),
(308,342,o),
(308,266,cs),
(308,247,l)
);
},
{
closed = 1;
nodes = (
(366,99,o),
(384,112,o),
(384,145,cs),
(384,176,o),
(370,192,o),
(343,192,cs),
(314,192,o),
(300,176,o),
(300,145,cs),
(300,112,o),
(318,99,o),
(343,99,cs)
);
},
{
alignment = -1;
ref = APLquad;
}
);
width = 728;
}
);
unicode = 9072;
}
{
glyphname = rightangledownzigzagArrow;
layers = (
{
layerId = master01;
shapes = (
{
closed = 1;
nodes = (
(180,-81,l),
(284,0,l),
(892,0,l),
(892,71,l),
(370,71,l),
(422,120,o),
(453,165,o),
(453,218,cs),
(453,305,o),
(394,328,o),
(293,367,c),
(293,637,l),
(393,705,l),
(358,758,l),
(293,713,l),
(293,714,l),
(222,714,l),
(222,664,l),
(133,603,o),
(62,553,o),
(62,483,cs),
(62,418,o),
(103,370,o),
(222,323,c),
(222,30,l),
(139,-34,l),
(82,65,l),
(51,-144,l),
(261,-157,l)
);
},
{
closed = 1;
nodes = (
(293,296,l),
(349,273,o),
(382,253,o),
(382,218,cs),
(382,178,o),
(352,139,o),
(293,87,c)
);
},
{
closed = 1;
nodes = (
(153,422,o),
(133,448,o),
(133,483,cs),
(133,515,o),
(167,557,o),
(222,590,c),
(222,394,l)
);
}
);
width = 943;
}
);
unicode = 9084;
}
{
glyphname = APLquad;
layers = (
{
layerId = master01;
shapes = (
{
closed = 1;
nodes = (
(649,-102,l),
(649,816,l),
(79,816,l),
(79,-102,l)
);
},
{
closed = 1;
nodes = (
(150,745,l),
(578,745,l),
(578,-31,l),
(150,-31,l)
);
}
);
width = 728;
}
);
unicode = 9109;
}
{
glyphname = parenleftupperhook;
layers = (
{
layerId = master01;
shapes = (
{
closed = 1;
nodes = (
(136,0,l),
(136,920,ls),
(136,1155,o),
(181,1260,o),
(296,1362,c),
(211,1362,l),
(104,1272,o),
(51,1125,o),
(51,920,cs),
(51,0,l)
);
}
);
width = 316;
}
);
unicode = 9115;
}
{
glyphname = parenrightupperhook;
layers = (
{
layerId = master01;
shapes = (
{
closed = 1;
nodes = (
(265,0,l),
(265,920,ls),
(265,1124,o),
(210,1274,o),
(105,1362,c),
(20,1362,l),
(135,1262,o),
(180,1157,o),
(180,920,cs),
(180,0,l)
);
}
);
width = 316;
}
);
unicode = 9118;
}
{
glyphname = parenrightlowerhook;
layers = (
{
layerId = master01;
shapes = (
{
closed = 1;
nodes = (
(105,0,l),
(210,88,o),
(265,239,o),
(265,442,cs),
(265,1362,l),
(180,1362,l),
(180,442,ls),
(180,214,o),
(138,104,o),
(20,0,c)
);
}
);
width = 316;
}
);
unicode = 9120;
}
{
glyphname = leftsquarebracketextension;
layers = (
{
layerId = master01;
shapes = (
{
closed = 1;
nodes = (
(136,0,l),
(136,1362,l),
(51,1362,l),
(51,0,l)
);
}
);
width = 306;
}
);
unicode = 9122;
}
{
color = 4;
glyphname = boxLightUpAndLeft;
layers = (
{
layerId = master01;
shapes = (
{
closed = 1;
nodes = (
(444,307,l),
(444,1078,l),
(394,1078,l),
(394,357,l),
(-10,357,l),
(-10,307,l)
);
}
);
width = 838;
}
);
unicode = 9496;
}
{
color = 4;
glyphname = boxLightDiagonalUpperRightToLowerLeft;
layers = (
{
layerId = master01;
shapes = (
{
closed = 1;
nodes = (
(25,-25,l),
(625,689,l),
(625,739,l),
(575,739,l),
(-25,25,l),
(-25,-25,l)
);
}
);
width = 600;
}
);
unicode = 9585;
}
{
color = 4;
glyphname = blackSquare;
layers = (
{
anchors = (
{
name = center;
pos = (408,357);
}
);
layerId = master01;
shapes = (
{
closed = 1;
nodes = (
(765,0,l),
(765,714,l),
(51,714,l),
(51,0,l)
);
}
);
width = 816;
}
);
unicode = 9632;
}
{
color = 4;
glyphname = verticalFillSquare;
layers = (
{
layerId = master01;
shapes = (
{
closed = 1;
nodes = (
(776,0,l),
(776,714,l),
(62,714,l),
(62,0,l)
);
},
{
closed = 1;
nodes = (
(279,26,l),
(279,688,l),
(228,688,l),
(228,26,l)
);
},
{
closed = 1;
nodes = (
(113,663,l),
(725,663,l),
(725,51,l),
(113,51,l)
);
},
{
closed = 1;
nodes = (
(444,26,l),
(444,688,l),
(394,688,l),
(394,26,l)
);
},
{
closed = 1;
nodes = (
(610,26,l),
(610,688,l),
(559,688,l),
(559,26,l)
);
}
);
width = 838;
}
);
unicode = 9637;
}
{
color = 4;
glyphname = blackSmallSquare;
layers = (
{
anchors = (
{
name = _center;
pos = (251,357);
}
);
layerId = master01;
shapes = (
{
closed = 1;
nodes = (
(451,157,l),
(451,557,l),
(51,557,l),
(51,157,l)
);
}
);
width = 502;
}
);
unicode = 9642;
}
{
color = 4;
glyphname = whiteRect;
layers = (
{
layerId = master01;
shapes = (
{
closed = 1;
nodes = (
(776,179,l),
(776,536,l),
(62,536,l),
(62,179,l)
);
},
{
closed = 1;
nodes = (
(113,485,l),
(725,485,l),
(725,230,l),
(113,230,l)
);
}
);
width = 838;
}
);
unicode = 9645;
}
{
color = 4;
glyphname = blackParallelogram;
layers = (
{
layerId = master01;
shapes = (
{
closed = 1;
nodes = (
(739,179,l),
(887,536,l),
(199,536,l),
(51,179,l)
);
}
);
width = 938;
}
);
unicode = 9648;
}
{
glyphname = upWhiteTriangle;
layers = (
{
layerId = master01;
shapes = (
{
closed = 1;
nodes = (
(856,0,l),
(454,697,l),
(51,0,l)
);
},
{
closed = 1;
nodes = (
(454,554,l),
(732,72,l),
(175,72,l)
);
}
);
width = 907;
}
);
unicode = 9651;
}
{
color = 4;
glyphname = rightBlackTriangle;
layers = (
{
layerId = master01;
shapes = (
{
closed = 1;
nodes = (
(802,348,l),
(105,751,l),
(105,-54,l)
);
}
);
width = 907;
}
);
unicode = 9654;
}
{
color = 4;
glyphname = rightBlackSmallTriangle;
layers = (
{
layerId = master01;
shapes = (
{
closed = 1;
nodes = (
(414,357,l),
(48,569,l),
(48,145,l)
);
}
);
width = 462;
}
);
unicode = 9656;
}
{
color = 4;
glyphname = rightBlackPointer;
layers = (
{
layerId = master01;
shapes = (
{
closed = 1;
nodes = (
(776,357,l),
(62,599,l),
(62,115,l)
);
}
);
width = 838;
}
);
unicode = 9658;
}
{
color = 4;
glyphname = rightWhitePointer;
layers = (
{
layerId = master01;
shapes = (
{
closed = 1;
nodes = (
(776,357,l),
(62,599,l),
(62,115,l)
);
},
{
closed = 1;
nodes = (
(113,528,l),
(617,357,l),
(113,186,l)
);
}
);
width = 838;
}
);
unicode = 9659;
}
{
glyphname = downWhiteTriangle;
layers = (
{
layerId = master01;
shapes = (
{
closed = 1;
nodes = (
(856,697,l),
(51,697,l),
(454,0,l)
);
},
{
closed = 1;
nodes = (
(175,625,l),
(732,625,l),
(454,143,l)
);
}
);
width = 907;
}
);
unicode = 9661;
}
{
color = 4;
glyphname = downBlackSmallTriangle;
layers = (
{
layerId = master01;
shapes = (
{
closed = 1;
nodes = (
(443,540,l),
(19,540,l),
(231,174,l)
);
}
);
width = 462;
}
);
unicode = 9662;
}
{
color = 4;
glyphname = downWhiteSmallTriangle;
layers = (
{
layerId = master01;
shapes = (
{
closed = 1;
nodes = (
(443,540,l),
(19,540,l),
(231,174,l)
);
},
{
closed = 1;
nodes = (
(107,489,l),
(355,489,l),
(231,276,l)
);
}
);
width = 462;
}
);
unicode = 9663;
}
{
glyphname = leftWhiteTriangle;
layers = (
{
layerId = master01;
shapes = (
{
closed = 1;
nodes = (
(748,751,l),
(51,348,l),
(748,-54,l)
);
},
{
closed = 1;
nodes = (
(194,348,l),
(676,627,l),
(676,70,l)
);
}
);
width = 799;
}
);
unicode = 9665;
}
{
color = 4;
glyphname = leftWhiteSmallTriangle;
layers = (
{
layerId = master01;
shapes = (
{
closed = 1;
nodes = (
(414,569,l),
(48,357,l),
(414,145,l)
);
},
{
closed = 1;
nodes = (
(150,357,l),
(363,481,l),
(363,233,l)
);
}
);
width = 462;
}
);
unicode = 9667;
}
{
color = 4;
glyphname = upperLeftWhiteCircle;
layers = (
{
layerId = master01;
shapes = (
{
closed = 1;
nodes = (
(622,-10,o),
(786,154,o),
(786,357,cs),
(786,560,o),
(622,724,o),
(419,724,cs),
(216,724,o),
(52,560,o),
(52,357,cs),
(52,156,o),
(216,-10,o),
(419,-10,cs)
);
},
{
closed = 1;
nodes = (
(103,532,o),
(244,673,o),
(419,673,c),
(419,357,l),
(103,357,l)
);
}
);
width = 838;
}
);
unicode = 9685;
}
{
color = 4;
glyphname = lowerRightBlackTriangle;
layers = (
{
layerId = master01;
shapes = (
{
closed = 1;
nodes = (
(776,0,l),
(776,714,l),
(62,0,l)
);
}
);
width = 838;
}
);
unicode = 9698;
}
{
color = 4;
glyphname = lowerLeftBlackTriangle;
layers = (
{
layerId = master01;
shapes = (
{
closed = 1;
nodes = (
(776,0,l),
(62,714,l),
(62,0,l)
);
}
);
width = 838;
}
);
unicode = 9699;
}
{
color = 4;
glyphname = upperRightBlackTriangle;
layers = (
{
layerId = master01;
shapes = (
{
closed = 1;
nodes = (
(776,714,l),
(62,714,l),
(776,0,l)
);
}
);
width = 838;
}
);
unicode = 9701;
}
{
color = 4;
glyphname = whiteBullet;
layers = (
{
layerId = master01;
shapes = (
{
closed = 1;
nodes = (
(218,223,o),
(275,279,o),
(275,352,cs),
(275,422,o),
(218,483,o),
(145,483,cs),
(70,483,o),
(15,422,o),
(15,352,cs),
(15,279,o),
(72,223,o),
(145,223,cs)
);
},
{
closed = 1;
nodes = (
(112,295,o),
(87,319,o),
(87,352,cs),
(87,384,o),
(112,411,o),
(145,411,cs),
(178,411,o),
(203,384,o),
(203,352,cs),
(203,319,o),
(178,295,o),
(145,295,cs)
);
}
);
width = 290;
}
);
unicode = 9702;
}
{
color = 4;
glyphname = rightHalfBlackSquare;
layers = (
{
layerId = master01;
shapes = (
{
closed = 1;
nodes = (
(776,0,l),
(776,714,l),
(62,714,l),
(62,0,l)
);
},
{
closed = 1;
nodes = (
(113,663,l),
(419,663,l),
(419,51,l),
(113,51,l)
);
}
);
width = 838;
}
);
unicode = 9704;
}
{
color = 4;
glyphname = upLeftHalfBlackTriangle;
layers = (
{
layerId = master01;
shapes = (
{
closed = 1;
nodes = (
(856,0,l),
(454,697,l),
(51,0,l)
);
},
{
closed = 1;
nodes = (
(454,554,l),
(732,72,l),
(454,72,l)
);
}
);
width = 907;
}
);
unicode = 9709;
}
{
color = 4;
glyphname = whiteLowerLeftQuadrantSquare;
layers = (
{
layerId = master01;
shapes = (
{
closed = 1;
nodes = (
(776,0,l),
(776,714,l),
(62,714,l),
(62,0,l)
);
},
{
closed = 1;
nodes = (
(444,25,l),
(444,382,l),
(87,382,l),
(87,332,l),
(394,332,l),
(394,25,l)
);
},
{
closed = 1;
nodes = (
(113,663,l),
(725,663,l),
(725,51,l),
(113,51,l)
);
}
);
width = 838;
}
);
unicode = 9713;
}
{
color = 4;
glyphname = lowerRightQuadrantWhiteCircle;
layers = (
{
layerId = master01;
shapes = (
{
closed = 1;
nodes = (
(622,-10,o),
(786,154,o),
(786,357,cs),
(786,560,o),
(622,724,o),
(419,724,cs),
(218,724,o),
(52,560,o),
(52,357,cs),
(52,154,o),
(216,-10,o),
(419,-10,cs)
);
},
{
closed = 1;
nodes = (
(244,41,o),
(103,182,o),
(103,357,cs),
(103,532,o),
(244,673,o),
(419,673,cs),
(594,673,o),
(735,532,o),
(735,357,cs),
(735,182,o),
(594,41,o),
(419,41,cs)
);
},
{
closed = 1;
nodes = (
(444,27,l),
(444,332,l),
(749,332,l),
(749,382,l),
(394,382,l),
(394,27,l)
);
}
);
width = 838;
}
);
unicode = 9718;
}
{
color = 4;
glyphname = upperLeftTriangle;
layers = (
{
layerId = master01;
shapes = (
{
closed = 1;
nodes = (
(776,714,l),
(62,714,l),
(62,0,l)
);
},
{
closed = 1;
nodes = (
(113,663,l),
(653,663,l),
(113,123,l)
);
}
);
width = 838;
}
);
unicode = 9720;
}
{
color = 4;
glyphname = lowerLeftTriangle;
layers = (
{
layerId = master01;
shapes = (
{
closed = 1;
nodes = (
(776,0,l),
(62,714,l),
(62,0,l)
);
},
{
closed = 1;
nodes = (
(113,591,l),
(653,51,l),
(113,51,l)
);
}
);
width = 838;
}
);
unicode = 9722;
}
{
color = 4;
glyphname = lowerRightTriangle;
layers = (
{
layerId = master01;
shapes = (
{
closed = 1;
nodes = (
(776,0,l),
(776,714,l),
(62,0,l)
);
},
{
closed = 1;
nodes = (
(725,591,l),
(725,51,l),
(185,51,l)
);
}
);
width = 838;
}
);
unicode = 9727;
}
{
glyphname = "sharp-musical";
layers = (
{
layerId = master01;
shapes = (
{
closed = 1;
nodes = (
(196,-253,l),
(196,-58,l),
(357,20,l),
(357,-155,l),
(404,-155,l),
(404,39,l),
(502,82,l),
(502,160,l),
(404,116,l),
(404,361,l),
(502,408,l),
(502,485,l),
(404,439,l),
(404,610,l),
(357,610,l),
(357,420,l),
(196,342,l),
(196,502,l),
(149,502,l),
(149,323,l),
(51,276,l),
(51,198,l),
(149,245,l),
(149,0,l),
(51,-46,l),
(51,-124,l),
(149,-77,l),
(149,-253,l)
);
},
{
closed = 1;
nodes = (
(196,264,l),
(357,342,l),
(357,97,l),
(196,19,l)
);
}
);
width = 553;
}
);
unicode = 9839;
}
{
color = 4;
glyphname = checkmark;
layers = (
{
layerId = master01;
shapes = (
{
closed = 1;
nodes = (
(319,-11,l),
(730,672,l),
(616,726,l),
(288,58,l),
(151,352,l),
(50,296,l),
(259,-11,l)
);
}
);
width = 780;
}
);
unicode = 10003;
}
{
glyphname = perpendicular;
layers = (
{
layerId = master01;
shapes = (
{
closed = 1;
nodes = (
(705,26,l),
(705,97,l),
(413,97,l),
(413,680,l),
(342,680,l),
(342,97,l),
(51,97,l),
(51,26,l)
);
}
);
width = 756;
}
);
unicode = 10178;
}
{
glyphname = squaredLogicalOr;
layers = (
{
layerId = master01;
shapes = (
{
closed = 1;
nodes = (
(705,26,l),
(705,680,l),
(51,680,l),
(51,26,l)
);
},
{
closed = 1;
nodes = (
(122,553,l),
(377,97,l),
(122,97,l)
);
},
{
closed = 1;
nodes = (
(168,609,l),
(588,609,l),
(378,232,l)
);
},
{
closed = 1;
nodes = (
(634,553,l),
(634,97,l),
(378,97,l)
);
}
);
width = 756;
}
);
unicode = 10191;
}
{
glyphname = lowerRightCornerWithDot;
layers = (
{
layerId = master01;
shapes = (
{
closed = 1;
nodes = (
(601,0,l),
(601,550,l),
(530,550,l),
(530,71,l),
(51,71,l),
(51,0,l)
);
},
{
closed = 1;
nodes = (
(324,251,o),
(351,278,o),
(351,311,cs),
(351,344,o),
(324,371,o),
(291,371,cs),
(258,371,o),
(231,344,o),
(231,311,cs),
(231,278,o),
(258,251,o),
(291,251,cs)
);
}
);
width = 652;
}
);
unicode = 10195;
}
{
glyphname = leftOuterJoin;
layers = (
{
layerId = master01;
shapes = (
{
closed = 1;
nodes = (
(252,0,l),
(571,287,l),
(889,0,l),
(889,658,l),
(571,370,l),
(252,658,l),
(51,658,l),
(51,587,l),
(252,587,l),
(252,71,l),
(51,71,l),
(51,0,l)
);
},
{
closed = 1;
nodes = (
(323,498,l),
(508,329,l),
(323,161,l)
);
},
{
closed = 1;
nodes = (
(633,329,l),
(818,498,l),
(818,160,l)
);
}
);
width = 940;
}
);
unicode = 10197;
}
{
glyphname = largeUpTack;
layers = (
{
layerId = master01;
shapes = (
{
closed = 1;
nodes = (
(704,0,l),
(704,71,l),
(413,71,l),
(413,785,l),
(342,785,l),
(342,71,l),
(51,71,l),
(51,0,l)
);
}
);
width = 755;
}
);
unicode = 10200;
}
{
glyphname = largeDownTack;
layers = (
{
layerId = master01;
shapes = (
{
closed = 1;
nodes = (
(413,0,l),
(413,714,l),
(704,714,l),
(704,785,l),
(51,785,l),
(51,714,l),
(342,714,l),
(342,0,l)
);
}
);
width = 755;
}
);
unicode = 10201;
}
{
glyphname = leftAndRightDoubleTurnstile;
layers = (
{
layerId = master01;
shapes = (
{
closed = 1;
nodes = (
(785,26,l),
(785,201,l),
(1258,201,l),
(1258,272,l),
(785,272,l),
(785,434,l),
(1258,434,l),
(1258,505,l),
(785,505,l),
(785,680,l),
(714,680,l),
(714,26,l)
);
},
{
closed = 1;
nodes = (
(595,26,l),
(595,680,l),
(524,680,l),
(524,505,l),
(51,505,l),
(51,434,l),
(524,434,l),
(524,272,l),
(51,272,l),
(51,201,l),
(524,201,l),
(524,26,l)
);
}
);
width = 1309;
}
);
unicode = 10202;
}
{
glyphname = whiteSquareWithLeftTick;
layers = (
{
layerId = master01;
shapes = (
{
closed = 1;
nodes = (
(826,26,l),
(826,680,l),
(172,680,l),
(172,388,l),
(-5,388,l),
(-5,318,l),
(172,318,l),
(172,26,l)
);
},
{
closed = 1;
nodes = (
(243,609,l),
(755,609,l),
(755,97,l),
(243,97,l)
);
}
);
width = 877;
}
);
unicode = 10212;
}
{
glyphname = whiteSquareWithRightTick;
layers = (
{
layerId = master01;
shapes = (
{
closed = 1;
nodes = (
(705,26,l),
(705,318,l),
(882,318,l),
(882,388,l),
(705,388,l),
(705,680,l),
(51,680,l),
(51,26,l)
);
},
{
closed = 1;
nodes = (
(122,609,l),
(634,609,l),
(634,97,l),
(122,97,l)
);
}
);
width = 877;
}
);
unicode = 10213;
}
{
glyphname = rightlongArrow;
layers = (
{
layerId = master01;
shapes = (
{
closed = 1;
nodes = (
(916,197,l),
(969,259,o),
(1025,305,o),
(1083,334,c),
(1083,356,l),
(1025,385,o),
(969,431,o),
(916,493,c),
(872,493,l),
(899,435,o),
(926,391,o),
(952,365,c),
(952,325,l),
(926,299,o),
(899,255,o),
(872,197,c)
);
},
{
closed = 1;
nodes = (
(982,318,l),
(982,372,l),
(51,372,l),
(51,318,l)
);
}
);
width = 1134;
}
);
unicode = 10230;
}
{
glyphname = rightLongDoubleFromBarArrow;
layers = (
{
layerId = master01;
shapes = (
{
closed = 1;
nodes = (
(867,108,l),
(921,170,o),
(991,246,o),
(1083,335,c),
(1083,355,l),
(991,444,o),
(921,520,o),
(867,582,c),
(823,582,l),
(866,498,o),
(931,401,o),
(996,329,c),
(996,361,l),
(931,289,o),
(866,192,o),
(823,108,c)
);
},
{
closed = 1;
nodes = (
(105,108,l),
(105,582,l),
(51,582,l),
(51,108,l)
);
},
{
closed = 1;
nodes = (
(968,247,l),
(968,301,l),
(51,301,l),
(51,247,l)
);
},
{
closed = 1;
nodes = (
(968,389,l),
(968,443,l),
(51,443,l),
(51,389,l)
);
}
);
width = 1134;
}
);
unicode = 10238;
}
{
glyphname = rightLongSquiggleArrow;
layers = (
{
layerId = master01;
shapes = (
{
closed = 1;
nodes = (
(329,353,l),
(398,230,l),
(474,353,l),
(546,230,l),
(621,353,l),
(690,230,l),
(766,353,l),
(838,230,l),
(912,353,l),
(981,230,l),
(1038,318,l),
(1149,318,l),
(1149,372,l),
(1019,372,l),
(981,313,l),
(912,436,l),
(838,313,l),
(766,436,l),
(690,313,l),
(621,436,l),
(546,313,l),
(474,436,l),
(398,313,l),
(329,436,l),
(255,313,l),
(187,436,l),
(128,372,l),
(51,372,l),
(51,318,l),
(134,318,l),
(178,364,l),
(255,230,l)
);
},
{
closed = 1;
nodes = (
(1083,197,l),
(1136,259,o),
(1192,305,o),
(1250,334,c),
(1250,356,l),
(1192,385,o),
(1136,431,o),
(1083,493,c),
(1039,493,l),
(1066,435,o),
(1093,391,o),
(1119,365,c),
(1119,325,l),
(1093,299,o),
(1066,255,o),
(1039,197,c)
);
}
);
width = 1301;
}
);
unicode = 10239;
}
{
glyphname = rightTwoHeadedArrowFromBar;
layers = (
{
layerId = master01;
shapes = (
{
closed = 1;
nodes = (
(676,197,l),
(729,259,o),
(785,305,o),
(843,334,c),
(843,356,l),
(785,385,o),
(729,431,o),
(676,493,c),
(632,493,l),
(659,435,o),
(686,391,o),
(712,365,c),
(712,325,l),
(686,299,o),
(659,255,o),
(632,197,c)
);
},
{
closed = 1;
nodes = (
(105,197,l),
(105,493,l),
(51,493,l),
(51,197,l)
);
},
{
closed = 1;
nodes = (
(742,318,l),
(742,372,l),
(51,372,l),
(51,318,l)
);
},
{
closed = 1;
nodes = (
(525,197,l),
(578,259,o),
(634,305,o),
(692,334,c),
(692,356,l),
(634,385,o),
(578,431,o),
(525,493,c),
(481,493,l),
(508,435,o),
(535,391,o),
(561,365,c),
(561,325,l),
(535,299,o),
(508,255,o),
(481,197,c)
);
}
);
width = 894;
}
);
unicode = 10501;
}
{
glyphname = rightDoubleArrowTail;
layers = (
{
layerId = master01;
shapes = (
{
closed = 1;
nodes = (
(252,197,l),
(373,345,l),
(252,493,l),
(188,493,l),
(308,345,l),
(188,197,l)
);
},
{
closed = 1;
nodes = (
(115,197,l),
(236,345,l),
(115,493,l),
(51,493,l),
(171,345,l),
(51,197,l)
);
},
{
closed = 1;
nodes = (
(751,318,l),
(751,372,l),
(189,372,l),
(189,318,l)
);
}
);
width = 802;
}
);
unicode = 10524;
}
{
glyphname = leftArrowToBlackDiamond;
layers = (
{
layerId = master01;
shapes = (
{
closed = 1;
nodes = (
(337,345,l),
(194,488,l),
(51,345,l),
(194,202,l)
);
},
{
closed = 1;
nodes = (
(560,197,l),
(533,255,o),
(506,299,o),
(480,325,c),
(480,365,l),
(506,391,o),
(533,435,o),
(560,493,c),
(516,493,l),
(463,431,o),
(407,385,o),
(349,356,c),
(349,334,l),
(407,305,o),
(463,259,o),
(516,197,c)
);
},
{
closed = 1;
nodes = (
(772,318,l),
(772,372,l),
(450,372,l),
(450,318,l)
);
}
);
width = 823;
}
);
unicode = 10525;
}
{
glyphname = northWestArrowWithHook;
layers = (
{
layerId = master01;
shapes = (
{
closed = 1;
nodes = (
(439,32,o),
(467,44,o),
(496,73,cs),
(526,103,o),
(538,131,o),
(538,158,cs),
(538,198,o),
(512,236,o),
(477,271,cs),
(150,599,l),
(111,560,l),
(432,239,ls),
(461,210,o),
(481,185,o),
(481,158,cs),
(481,143,o),
(474,127,o),
(458,111,cs),
(442,95,o),
(426,88,o),
(411,88,cs),
(384,88,o),
(359,108,o),
(330,137,cs),
(271,196,l),
(232,158,l),
(298,92,ls),
(333,57,o),
(371,32,o),
(411,32,cs)
);
},
{
closed = 1;
nodes = (
(125,457,o),
(137,507,o),
(137,544,c),
(165,572,l),
(202,572,o),
(252,584,o),
(313,606,c),
(281,637,l),
(262,635,o),
(244,635,o),
(226,635,cs),
(167,635,o),
(114,643,o),
(67,658,c),
(51,643,l),
(66,596,o),
(74,543,o),
(74,485,cs),
(74,466,o),
(74,447,o),
(72,428,c),
(103,397,l)
);
}
);
width = 673;
}
);
unicode = 10531;
}
{
glyphname = southWestArrowWithHook;
layers = (
{
layerId = master01;
shapes = (
{
closed = 1;
nodes = (
(477,419,ls),
(512,454,o),
(538,492,o),
(538,532,cs),
(538,559,o),
(526,587,o),
(496,617,cs),
(467,646,o),
(439,658,o),
(411,658,cs),
(371,658,o),
(333,633,o),
(298,598,cs),
(232,532,l),
(271,494,l),
(330,553,ls),
(359,582,o),
(384,602,o),
(411,602,cs),
(426,602,o),
(442,595,o),
(458,579,cs),
(474,563,o),
(481,547,o),
(481,532,cs),
(481,505,o),
(461,480,o),
(432,451,cs),
(111,130,l),
(150,91,l)
);
},
{
closed = 1;
nodes = (
(114,47,o),
(167,55,o),
(226,55,cs),
(244,55,o),
(262,55,o),
(281,53,c),
(313,84,l),
(252,106,o),
(202,118,o),
(165,118,c),
(137,146,l),
(137,183,o),
(125,233,o),
(103,293,c),
(72,262,l),
(74,243,o),
(74,224,o),
(74,205,cs),
(74,147,o),
(66,94,o),
(51,47,c),
(67,32,l)
);
}
);
width = 673;
}
);
unicode = 10534;
}
{
glyphname = southWestArrowAndNorthWestArrow;
layers = (
{
layerId = master01;
shapes = (
{
closed = 1;
nodes = (
(642,602,l),
(603,641,l),
(111,148,l),
(149,110,l)
);
},
{
closed = 1;
nodes = (
(128,71,o),
(199,78,o),
(282,71,c),
(313,102,l),
(253,124,o),
(202,136,o),
(166,136,c),
(137,165,l),
(137,201,o),
(125,252,o),
(103,312,c),
(72,281,l),
(79,199,o),
(72,127,o),
(51,66,c),
(67,50,l)
);
},
{
closed = 1;
nodes = (
(125,438,o),
(137,489,o),
(137,525,c),
(166,554,l),
(202,554,o),
(253,566,o),
(313,588,c),
(282,619,l),
(200,612,o),
(128,619,o),
(67,640,c),
(51,624,l),
(72,563,o),
(79,491,o),
(72,409,c),
(103,378,l)
);
},
{
closed = 1;
nodes = (
(642,88,l),
(149,580,l),
(111,542,l),
(603,49,l)
);
}
);
width = 693;
}
);
unicode = 10538;
}
{
glyphname = fallingDiagonalCrossingRisingDiagonal;
layers = (
{
layerId = master01;
shapes = (
{
closed = 1;
nodes = (
(643,88,l),
(90,641,l),
(51,602,l),
(604,49,l)
);
},
{
closed = 1;
nodes = (
(309,269,l),
(271,307,l),
(51,88,l),
(90,49,l)
);
},
{
closed = 1;
nodes = (
(643,602,l),
(604,641,l),
(385,421,l),
(423,383,l)
);
}
);
width = 694;
}
);
unicode = 10540;
}
{
glyphname = topArcAnticlockwiseArrow;
layers = (
{
layerId = master01;
shapes = (
{
closed = 1;
nodes = (
(257,233,l),
(298,376,o),
(413,462,o),
(568,462,cs),
(723,462,o),
(838,376,o),
(879,233,c),
(941,233,l),
(897,400,o),
(757,516,o),
(568,516,cs),
(379,516,o),
(239,400,o),
(195,233,c)
);
},
{
closed = 1;
nodes = (
(238,207,o),
(305,232,o),
(386,243,c),
(411,279,l),
(345,288,o),
(294,287,o),
(259,281,c),
(225,302,l),
(216,338,o),
(196,385,o),
(160,437,c),
(135,402,l),
(162,322,o),
(170,250,o),
(163,186,c),
(182,174,l)
);
}
);
width = 1076;
}
);
unicode = 10554;
}
{
glyphname = lowerRightSemicircularClockwiseArrow;
layers = (
{
layerId = master01;
shapes = (
{
closed = 1;
nodes = (
(510,571,l),
(562,536,o),
(630,461,o),
(630,345,cs),
(630,194,o),
(508,72,o),
(357,72,cs),
(330,72,o),
(303,76,o),
(278,84,c),
(309,100,o),
(347,128,o),
(389,169,c),
(350,185,l),
(276,147,o),
(208,126,o),
(143,120,c),
(135,101,l),
(178,52,o),
(213,-11,o),
(239,-89,c),
(279,-106,l),
(277,-48,o),
(269,-1,o),
(257,34,c),
(288,23,o),
(322,18,o),
(357,18,cs),
(538,18,o),
(684,164,o),
(684,345,cs),
(684,493,o),
(588,586,o),
(542,615,c)
);
}
);
width = 819;
}
);
unicode = 10558;
}
{
glyphname = lowerLeftSemicircularAnticlockwiseArrow;
layers = (
{
layerId = master01;
shapes = (
{
closed = 1;
nodes = (
(611,126,o),
(543,147,o),
(469,185,c),
(430,169,l),
(472,128,o),
(510,100,o),
(541,84,c),
(516,76,o),
(489,72,o),
(462,72,cs),
(311,72,o),
(189,194,o),
(189,345,cs),
(189,447,o),
(244,528,o),
(309,571,c),
(277,615,l),
(222,580,o),
(135,485,o),
(135,345,cs),
(135,164,o),
(281,18,o),
(462,18,cs),
(497,18,o),
(531,23,o),
(562,34,c),
(550,-1,o),
(542,-48,o),
(540,-106,c),
(580,-89,l),
(606,-11,o),
(641,52,o),
(684,101,c),
(676,120,l)
);
}
);
width = 819;
}
);
unicode = 10559;
}
{
glyphname = clockwiseClosedCircleArrow;
layers = (
{
layerId = master01;
shapes = (
{
closed = 1;
nodes = (
(643,18,o),
(789,164,o),
(789,345,cs),
(789,526,o),
(643,672,o),
(462,672,cs),
(281,672,o),
(135,526,o),
(135,345,cs),
(135,164,o),
(281,18,o),
(462,18,cs)
);
},
{
closed = 1;
nodes = (
(311,72,o),
(189,194,o),
(189,345,cs),
(189,496,o),
(311,618,o),
(462,618,cs),
(613,618,o),
(735,496,o),
(735,345,cs),
(735,194,o),
(613,72,o),
(462,72,cs)
);
},
{
closed = 1;
nodes = (
(401,495,l),
(454,557,o),
(510,603,o),
(568,632,c),
(568,654,l),
(510,683,o),
(454,729,o),
(401,791,c),
(357,791,l),
(384,733,o),
(411,689,o),
(437,663,c),
(437,623,l),
(411,597,o),
(384,553,o),
(357,495,c)
);
}
);
width = 924;
}
);
unicode = 10561;
}
{
glyphname = shortRightArrowAboveLeftArrow;
layers = (
{
layerId = master01;
shapes = (
{
closed = 1;
nodes = (
(576,310,l),
(629,372,o),
(685,418,o),
(743,447,c),
(743,469,l),
(685,498,o),
(629,544,o),
(576,606,c),
(532,606,l),
(559,548,o),
(586,504,o),
(612,478,c),
(612,438,l),
(586,412,o),
(559,368,o),
(532,310,c)
);
},
{
closed = 1;
nodes = (
(262,84,l),
(235,142,o),
(208,186,o),
(182,212,c),
(182,252,l),
(208,278,o),
(235,322,o),
(262,380,c),
(218,380,l),
(165,318,o),
(109,272,o),
(51,243,c),
(51,221,l),
(109,192,o),
(165,146,o),
(218,84,c)
);
},
{
closed = 1;
nodes = (
(743,205,l),
(743,259,l),
(152,259,l),
(152,205,l)
);
},
{
closed = 1;
nodes = (
(642,431,l),
(642,485,l),
(392,485,l),
(392,431,l)
);
}
);
width = 794;
}
);
unicode = 10564;
}
{
glyphname = rightArrowThroughX;
layers = (
{
layerId = master01;
shapes = (
{
closed = 1;
nodes = (
(532,493,l),
(557,440,o),
(581,399,o),
(605,372,c),
(368,372,l),
(439,443,l),
(401,481,l),
(303,383,l),
(205,481,l),
(167,443,l),
(238,372,l),
(51,372,l),
(51,318,l),
(238,318,l),
(167,247,l),
(205,209,l),
(303,307,l),
(401,209,l),
(439,247,l),
(368,318,l),
(605,318,l),
(581,291,o),
(557,250,o),
(532,197,c),
(576,197,l),
(629,259,o),
(685,305,o),
(743,334,c),
(743,356,l),
(685,385,o),
(629,431,o),
(576,493,c)
);
}
);
width = 794;
}
);
unicode = 10567;
}
{
glyphname = leftBarbDownRightBarbUpHarpoon;
layers = (
{
layerId = master01;
shapes = (
{
closed = 1;
nodes = (
(743,318,l),
(743,356,l),
(685,385,o),
(629,431,o),
(576,493,c),
(532,493,l),
(559,435,o),
(586,391,o),
(612,365,c),
(612,318,l)
);
},
{
closed = 1;
nodes = (
(262,197,l),
(235,255,o),
(208,299,o),
(182,325,c),
(182,372,l),
(51,372,l),
(51,334,l),
(109,305,o),
(165,259,o),
(218,197,c)
);
},
{
closed = 1;
nodes = (
(642,318,l),
(642,372,l),
(152,372,l),
(152,318,l)
);
}
);
width = 794;
}
);
unicode = 10571;
}
{
glyphname = upBarbRightDownBarbRightHarpoon;
layers = (
{
layerId = master01;
shapes = (
{
closed = 1;
nodes = (
(366,525,l),
(304,578,o),
(258,634,o),
(229,692,c),
(191,692,l),
(191,561,l),
(238,561,l),
(264,535,o),
(308,508,o),
(366,481,c)
);
},
{
closed = 1;
nodes = (
(229,0,l),
(258,58,o),
(304,114,o),
(366,167,c),
(366,211,l),
(308,184,o),
(264,157,o),
(238,131,c),
(191,131,l),
(191,0,l)
);
},
{
closed = 1;
nodes = (
(245,101,l),
(245,591,l),
(191,591,l),
(191,101,l)
);
}
);
width = 436;
}
);
unicode = 10575;
}
{
glyphname = upBarbLeftDownBarbLeftHarpoon;
layers = (
{
layerId = master01;
shapes = (
{
closed = 1;
nodes = (
(128,508,o),
(172,535,o),
(198,561,c),
(245,561,l),
(245,692,l),
(207,692,l),
(178,634,o),
(132,578,o),
(70,525,c),
(70,481,l)
);
},
{
closed = 1;
nodes = (
(245,0,l),
(245,131,l),
(198,131,l),
(172,157,o),
(128,184,o),
(70,211,c),
(70,167,l),
(132,114,o),
(178,58,o),
(207,0,c)
);
},
{
closed = 1;
nodes = (
(245,101,l),
(245,591,l),
(191,591,l),
(191,101,l)
);
}
);
width = 436;
}
);
unicode = 10577;
}
{
glyphname = leftHarpoonWithBarbDownAboveRightHarpoonWithBarbDown;
layers = (
{
layerId = master01;
shapes = (
{
closed = 1;
nodes = (
(576,84,l),
(629,146,o),
(685,192,o),
(743,221,c),
(743,259,l),
(612,259,l),
(612,212,l),
(586,186,o),
(559,142,o),
(532,84,c)
);
},
{
closed = 1;
nodes = (
(262,310,l),
(235,368,o),
(208,412,o),
(182,438,c),
(182,485,l),
(51,485,l),
(51,447,l),
(109,418,o),
(165,372,o),
(218,310,c)
);
},
{
closed = 1;
nodes = (
(642,205,l),
(642,259,l),
(51,259,l),
(51,205,l)
);
},
{
closed = 1;
nodes = (
(743,431,l),
(743,485,l),
(152,485,l),
(152,431,l)
);
}
);
width = 794;
}
);
unicode = 10599;
}
{
glyphname = rightArrowAboveTildeOperator;
layers = (
{
layerId = master01;
shapes = (
{
closed = 1;
nodes = (
(576,197,l),
(629,259,o),
(685,305,o),
(743,334,c),
(743,356,l),
(685,385,o),
(629,431,o),
(576,493,c),
(532,493,l),
(559,435,o),
(586,391,o),
(612,365,c),
(612,325,l),
(586,299,o),
(559,255,o),
(532,197,c)
);
},
{
closed = 1;
nodes = (
(175,107,l),
(183,144,o),
(200,163,o),
(227,163,cs),
(242,163,o),
(265,152,o),
(296,135,cs),
(327,118,o),
(352,108,o),
(371,108,cs),
(432,108,o),
(468,146,o),
(475,224,c),
(428,224,l),
(418,187,o),
(406,168,o),
(375,168,cs),
(361,168,o),
(340,178,o),
(310,196,cs),
(280,214,o),
(253,222,o),
(230,222,cs),
(168,222,o),
(134,184,o),
(126,107,c)
);
},
{
closed = 1;
nodes = (
(642,318,l),
(642,372,l),
(51,372,l),
(51,318,l)
);
}
);
width = 794;
}
);
unicode = 10612;
}
{
glyphname = measuredAngleOpeningLeft;
layers = (
{
layerId = master01;
shapes = (
{
closed = 1;
nodes = (
(247,-105,l),
(243,-84,o),
(241,-65,o),
(241,-47,cs),
(241,0,l),
(601,0,l),
(601,50,l),
(384,296,l),
(407,318,o),
(435,339,o),
(468,357,c),
(432,421,l),
(397,401,o),
(365,378,o),
(335,351,c),
(191,515,l),
(141,464,l),
(286,299,l),
(230,233,o),
(194,157,o),
(177,71,c),
(51,71,l),
(51,0,l),
(168,0,l),
(167,-11,o),
(167,-23,o),
(167,-34,cs),
(167,-66,o),
(170,-97,o),
(176,-125,c)
);
},
{
closed = 1;
nodes = (
(266,135,o),
(294,192,o),
(335,244,c),
(486,71,l),
(251,71,l)
);
}
);
width = 652;
}
);
unicode = 10651;
}
{
glyphname = angleWithSInside;
layers = (
{
layerId = master01;
shapes = (
{
closed = 1;
nodes = (
(601,0,l),
(601,71,l),
(166,71,l),
(511,464,l),
(461,515,l),
(51,50,l),
(51,0,l)
);
},
{
closed = 1;
nodes = (
(519,101,o),
(551,125,o),
(551,166,cs),
(551,205,o),
(521,225,o),
(478,236,cs),
(457,241,o),
(446,250,o),
(446,261,cs),
(446,271,o),
(455,276,o),
(474,276,cs),
(488,276,o),
(507,270,o),
(531,259,c),
(550,301,l),
(520,313,o),
(495,319,o),
(475,319,cs),
(424,319,o),
(391,297,o),
(391,260,cs),
(391,222,o),
(420,206,o),
(465,190,cs),
(487,182,o),
(498,173,o),
(498,164,cs),
(498,151,o),
(487,145,o),
(465,145,cs),
(444,145,o),
(414,157,o),
(391,172,c),
(391,119,l),
(410,107,o),
(434,101,o),
(464,101,cs)
);
}
);
width = 652;
}
);
unicode = 10654;
}
{
glyphname = angleWithUnderbar;
layers = (
{
layerId = master01;
shapes = (
{
closed = 1;
nodes = (
(601,130,l),
(601,201,l),
(166,201,l),
(511,594,l),
(461,645,l),
(51,180,l),
(51,130,l)
);
},
{
closed = 1;
nodes = (
(601,0,l),
(601,71,l),
(51,71,l),
(51,0,l)
);
}
);
width = 652;
}
);
unicode = 10660;
}
{
glyphname = measuredAngleWithOpenArmEndingInArrowPointingDownAndRight;
layers = (
{
layerId = master01;
shapes = (
{
closed = 1;
nodes = (
(563,170,l),
(504,119,l),
(495,29,l),
(366,177,l),
(422,244,o),
(458,320,o),
(475,405,c),
(601,405,l),
(601,476,l),
(484,476,l),
(485,487,o),
(485,499,o),
(485,510,cs),
(485,543,o),
(482,573,o),
(476,601,c),
(405,581,l),
(409,559,o),
(412,534,o),
(412,506,cs),
(412,496,o),
(412,486,o),
(411,476,c),
(51,476,l),
(51,426,l),
(268,180,l),
(247,159,o),
(219,139,o),
(184,119,c),
(220,55,l),
(256,76,o),
(289,99,o),
(317,125,c),
(442,-18,l),
(351,-14,l),
(293,-65,l),
(547,-86,l)
);
},
{
closed = 1;
nodes = (
(166,405,l),
(401,405,l),
(386,342,o),
(358,284,o),
(317,232,c)
);
}
);
width = 652;
}
);
unicode = 10666;
}
{
glyphname = measuredAngleWithOpenArmEndingInArrowPointingLeftAndUp;
layers = (
{
layerId = master01;
shapes = (
{
closed = 1;
nodes = (
(613,0,l),
(613,360,l),
(644,360,ls),
(670,360,o),
(695,358,o),
(718,354,c),
(738,425,l),
(708,431,o),
(678,434,o),
(646,434,cs),
(635,434,o),
(624,434,o),
(613,433,c),
(613,550,l),
(542,550,l),
(542,424,l),
(455,407,o),
(379,370,o),
(314,315,c),
(166,444,l),
(256,453,l),
(307,512,l),
(51,496,l),
(72,243,l),
(123,301,l),
(119,391,l),
(262,266,l),
(235,236,o),
(212,204,o),
(192,169,c),
(256,133,l),
(274,166,o),
(294,194,o),
(317,217,c),
(563,0,l)
);
},
{
closed = 1;
nodes = (
(369,266,l),
(420,307,o),
(478,335,o),
(542,350,c),
(542,115,l)
);
}
);
width = 789;
}
);
unicode = 10669;
}
{
glyphname = circleWithHorizontalBar;
layers = (
{
layerId = master01;
shapes = (
{
closed = 1;
nodes = (
(741,-10,o),
(907,154,o),
(907,357,cs),
(907,560,o),
(743,724,o),
(540,724,cs),
(337,724,o),
(173,560,o),
(173,357,cs),
(173,154,o),
(337,-10,o),
(540,-10,cs)
);
},
{
closed = 1;
nodes = (
(377,62,o),
(245,194,o),
(245,357,cs),
(245,520,o),
(377,652,o),
(540,652,cs),
(703,652,o),
(835,520,o),
(835,357,cs),
(835,194,o),
(703,62,o),
(540,62,cs)
);
},
{
closed = 1;
nodes = (
(1029,325,l),
(1029,389,l),
(51,389,l),
(51,325,l)
);
}
);
width = 1080;
}
);
unicode = 10677;
}
{
glyphname = bar.circled;
layers = (
{
layerId = master01;
shapes = (
{
closed = 1;
nodes = (
(236,762,o),
(51,577,o),
(51,349,cs),
(51,121,o),
(236,-64,o),
(464,-64,cs),
(692,-64,o),
(877,121,o),
(877,349,cs),
(877,577,o),
(692,762,o),
(464,762,cs)
);
},
{
closed = 1;
nodes = (
(102,541,o),
(251,697,o),
(439,710,c),
(439,-12,l),
(251,1,o),
(102,157,o),
(102,349,cs)
);
},
{
closed = 1;
nodes = (
(489,710,l),
(677,697,o),
(826,541,o),
(826,349,cs),
(826,157,o),
(677,1,o),
(489,-12,c)
);
}
);
width = 928;
}
);
unicode = 10678;
}
{
glyphname = upArrowThrough.circled;
layers = (
{
layerId = master01;
shapes = (
{
closed = 1;
nodes = (
(620,-10,o),
(786,154,o),
(786,357,cs),
(786,560,o),
(622,724,o),
(419,724,cs),
(216,724,o),
(52,560,o),
(52,357,cs),
(52,154,o),
(216,-10,o),
(419,-10,cs)
);
},
{
closed = 1;
nodes = (
(256,62,o),
(124,194,o),
(124,357,cs),
(124,520,o),
(256,652,o),
(419,652,cs),
(582,652,o),
(714,520,o),
(714,357,cs),
(714,194,o),
(582,62,o),
(419,62,cs)
);
},
{
closed = 1;
nodes = (
(451,-132,l),
(451,876,l),
(387,876,l),
(387,-132,l)
);
},
{
closed = 1;
nodes = (
(316,751,l),
(419,853,l),
(522,751,l),
(602,751,l),
(419,936,l),
(236,751,l)
);
}
);
width = 838;
}
);
unicode = 10685;
}
{
color = 4;
glyphname = circleSmallCircleRight;
layers = (
{
layerId = master01;
shapes = (
{
closed = 1;
nodes = (
(619,-10,o),
(785,154,o),
(785,357,cs),
(785,560,o),
(621,724,o),
(418,724,cs),
(215,724,o),
(51,560,o),
(51,357,cs),
(51,154,o),
(215,-10,o),
(418,-10,cs)
);
},
{
closed = 1;
nodes = (
(255,62,o),
(123,194,o),
(123,357,cs),
(123,520,o),
(255,652,o),
(418,652,cs),
(581,652,o),
(713,520,o),
(713,357,cs),
(713,194,o),
(581,62,o),
(418,62,cs)
);
},
{
closed = 1;
nodes = (
(985,251,o),
(1033,297,o),
(1033,357,cs),
(1033,417,o),
(985,463,o),
(927,463,cs),
(867,463,o),
(821,416,o),
(821,357,cs),
(821,297,o),
(868,251,o),
(927,251,cs)
);
},
{
closed = 1;
nodes = (
(896,301,o),
(871,326,o),
(871,357,cs),
(871,387,o),
(895,413,o),
(927,413,cs),
(959,413,o),
(983,387,o),
(983,357,cs),
(983,326,o),
(958,301,o),
(927,301,cs)
);
}
);
width = 1084;
}
);
unicode = 10690;
}
{
glyphname = squaredRisingDiagonalSlash;
layers = (
{
layerId = master01;
shapes = (
{
closed = 1;
nodes = (
(705,26,l),
(705,680,l),
(51,680,l),
(51,26,l)
);
},
{
closed = 1;
nodes = (
(634,559,l),
(634,97,l),
(172,97,l)
);
},
{
closed = 1;
nodes = (
(122,609,l),
(584,609,l),
(122,147,l)
);
}
);
width = 756;
}
);
unicode = 10692;
}
{
glyphname = bowtieWithRightHalfBlack;
layers = (
{
layerId = master01;
shapes = (
{
closed = 1;
nodes = (
(370,271,l),
(688,-17,l),
(688,643,l),
(370,354,l),
(51,643,l),
(51,-17,l)
);
},
{
closed = 1;
nodes = (
(122,482,l),
(307,313,l),
(122,144,l)
);
}
);
width = 739;
}
);
unicode = 10706;
}
{
glyphname = timesWithRightHalfBlack;
layers = (
{
layerId = master01;
shapes = (
{
closed = 1;
nodes = (
(370,271,l),
(688,-17,l),
(688,643,l),
(370,354,l),
(51,643,l),
(51,547,l),
(307,313,l),
(51,79,l),
(51,-17,l)
);
}
);
width = 739;
}
);
unicode = 10709;
}
{
glyphname = rightdoublewigglyfence;
layers = (
{
layerId = master01;
shapes = (
{
closed = 1;
nodes = (
(525,-107,l),
(379,3,l),
(525,112,l),
(379,216,l),
(525,330,l),
(379,439,l),
(525,548,l),
(379,650,l),
(525,766,l),
(428,766,l),
(282,650,l),
(428,548,l),
(282,439,l),
(428,330,l),
(282,216,l),
(428,112,l),
(282,3,l),
(428,-107,l)
);
},
{
closed = 1;
nodes = (
(294,-107,l),
(148,3,l),
(294,112,l),
(148,216,l),
(294,330,l),
(148,439,l),
(294,548,l),
(148,650,l),
(294,766,l),
(197,766,l),
(51,650,l),
(197,548,l),
(51,439,l),
(197,330,l),
(51,216,l),
(197,112,l),
(51,3,l),
(197,-107,l)
);
}
);
width = 576;
}
);
unicode = 10715;
}
{
glyphname = shuffleProduct;
layers = (
{
layerId = master01;
shapes = (
{
closed = 1;
nodes = (
(794,0,l),
(794,423,l),
(723,423,l),
(723,71,l),
(458,71,l),
(458,423,l),
(387,423,l),
(387,71,l),
(122,71,l),
(122,423,l),
(51,423,l),
(51,0,l)
);
}
);
width = 845;
}
);
unicode = 10722;
}
{
glyphname = identicalToAndSlantedParallel;
layers = (
{
layerId = master01;
shapes = (
{
closed = 1;
nodes = (
(113,0,l),
(199,167,l),
(295,167,l),
(209,0,l),
(271,0,l),
(357,167,l),
(637,167,l),
(637,233,l),
(391,233,l),
(437,324,l),
(637,324,l),
(637,390,l),
(471,390,l),
(518,481,l),
(637,481,l),
(637,547,l),
(552,547,l),
(638,714,l),
(576,714,l),
(490,547,l),
(394,547,l),
(480,714,l),
(418,714,l),
(332,547,l),
(52,547,l),
(52,481,l),
(298,481,l),
(251,390,l),
(52,390,l),
(52,324,l),
(217,324,l),
(171,233,l),
(52,233,l),
(52,167,l),
(137,167,l),
(51,0,l)
);
},
{
closed = 1;
nodes = (
(279,324,l),
(375,324,l),
(329,233,l),
(233,233,l)
);
},
{
closed = 1;
nodes = (
(360,481,l),
(456,481,l),
(409,390,l),
(313,390,l)
);
}
);
width = 689;
}
);
unicode = 10725;
}
{
glyphname = thermodynamic;
layers = (
{
layerId = master01;
shapes = (
{
closed = 1;
nodes = (
(339,0,l),
(339,160,l),
(556,160,l),
(556,231,l),
(339,231,l),
(339,391,l),
(556,391,l),
(556,462,l),
(339,462,l),
(339,622,l),
(268,622,l),
(268,462,l),
(51,462,l),
(51,391,l),
(268,391,l),
(268,231,l),
(51,231,l),
(51,160,l),
(268,160,l),
(268,0,l)
);
}
);
width = 607;
}
);
unicode = 10727;
}
{
glyphname = downTriangleWithLeftHalfBlack;
layers = (
{
layerId = master01;
shapes = (
{
closed = 1;
nodes = (
(897,714,l),
(51,714,l),
(474,-3,l)
);
},
{
closed = 1;
nodes = (
(474,643,l),
(753,643,l),
(474,164,l)
);
}
);
width = 948;
}
);
unicode = 10728;
}
{
glyphname = downTriangleWithRightHalfBlack;
layers = (
{
layerId = master01;
shapes = (
{
closed = 1;
nodes = (
(897,714,l),
(51,714,l),
(474,-3,l)
);
},
{
closed = 1;
nodes = (
(195,643,l),
(474,643,l),
(474,164,l)
);
}
);
width = 948;
}
);
unicode = 10729;
}
{
glyphname = whiteCircleWithDownArrow;
layers = (
{
layerId = master01;
shapes = (
{
closed = 1;
nodes = (
(581,42,o),
(733,194,o),
(733,383,cs),
(733,572,o),
(581,724,o),
(392,724,cs),
(203,724,o),
(51,572,o),
(51,383,cs),
(51,194,o),
(203,42,o),
(392,42,cs)
);
},
{
closed = 1;
nodes = (
(575,-29,l),
(495,-29,l),
(392,-131,l),
(289,-29,l),
(209,-29,l),
(392,-214,l)
);
},
{
closed = 1;
nodes = (
(424,-154,l),
(424,72,l),
(360,72,l),
(360,-154,l)
);
},
{
closed = 1;
nodes = (
(236,102,o),
(111,227,o),
(111,383,cs),
(111,539,o),
(236,664,o),
(392,664,cs),
(548,664,o),
(673,539,o),
(673,383,cs),
(673,227,o),
(548,102,o),
(392,102,cs)
);
}
);
width = 784;
}
);
unicode = 10732;
}
{
glyphname = errorBarredWhiteSquare;
layers = (
{
layerId = master01;
shapes = (
{
closed = 1;
nodes = (
(587,0,l),
(587,536,l),
(51,536,l),
(51,0,l)
);
},
{
closed = 1;
nodes = (
(538,-198,l),
(538,-138,l),
(100,-138,l),
(100,-198,l)
);
},
{
closed = 1;
nodes = (
(349,-198,l),
(349,60,l),
(289,60,l),
(289,-198,l)
);
},
{
closed = 1;
nodes = (
(111,476,l),
(527,476,l),
(527,60,l),
(111,60,l)
);
},
{
closed = 1;
nodes = (
(349,476,l),
(349,734,l),
(289,734,l),
(289,476,l)
);
},
{
closed = 1;
nodes = (
(538,674,l),
(538,734,l),
(100,734,l),
(100,674,l)
);
}
);
width = 638;
}
);
unicode = 10734;
}
{
glyphname = reverseSolidusWithHorizontalStroke;
layers = (
{
layerId = master01;
shapes = (
{
closed = 1;
nodes = (
(420,-121,l),
(190,760,l),
(119,760,l),
(349,-121,l)
);
},
{
closed = 1;
nodes = (
(488,286,l),
(488,353,l),
(51,353,l),
(51,286,l)
);
}
);
width = 539;
}
);
unicode = 10743;
}
{
glyphname = bigSolidus;
layers = (
{
layerId = master01;
shapes = (
{
closed = 1;
nodes = (
(59,-293,l),
(415,1069,l),
(344,1069,l),
(-12,-293,l)
);
}
);
width = 403;
}
);
unicode = 10744;
}
{
glyphname = bigReverseSolidus;
layers = (
{
layerId = master01;
shapes = (
{
closed = 1;
nodes = (
(415,-293,l),
(59,1069,l),
(-12,1069,l),
(344,-293,l)
);
}
);
width = 403;
}
);
unicode = 10745;
}
{
glyphname = triplePlus;
layers = (
{
layerId = master01;
shapes = (
{
closed = 1;
nodes = (
(322,110,l),
(322,316,l),
(422,316,l),
(422,110,l),
(494,110,l),
(494,316,l),
(594,316,l),
(594,110,l),
(666,110,l),
(666,316,l),
(865,316,l),
(865,387,l),
(666,387,l),
(666,594,l),
(594,594,l),
(594,387,l),
(494,387,l),
(494,594,l),
(422,594,l),
(422,387,l),
(322,387,l),
(322,594,l),
(250,594,l),
(250,387,l),
(51,387,l),
(51,316,l),
(250,316,l),
(250,110,l)
);
}
);
width = 916;
}
);
unicode = 10747;
}
{
glyphname = miny;
layers = (
{
layerId = master01;
shapes = (
{
closed = 1;
nodes = (
(129,310,o),
(245,317,o),
(305,317,cs),
(364,317,o),
(480,310,o),
(547,301,c),
(555,313,o),
(559,330,o),
(559,352,cs),
(559,375,o),
(555,392,o),
(547,403,c),
(479,394,o),
(378,387,o),
(305,387,cs),
(233,387,o),
(129,395,o),
(63,403,c),
(55,392,o),
(51,375,o),
(51,352,cs),
(51,330,o),
(55,313,o),
(63,301,c)
);
}
);
width = 610;
}
);
unicode = 10751;
}
{
glyphname = nAryTimesOperator;
layers = (
{
layerId = master01;
shapes = (
{
closed = 1;
nodes = (
(857,666,l),
(809,714,l),
(51,-44,l),
(99,-92,l)
);
},
{
closed = 1;
nodes = (
(857,-44,l),
(99,714,l),
(51,666,l),
(809,-92,l)
);
}
);
width = 908;
}
);
unicode = 10761;
userData = {
com.nagwa.MATHPlugin.variants = {
vVariants = (
nAryTimesOperator,
nAryTimesOperator.s1
);
};
};
}
{
glyphname = lineIntegrationWithRectangularPathAroundPole;
layers = (
{
layerId = master01;
shapes = (
{
closed = 1;
nodes = (
(227,-240,o),
(282,-179,o),
(282,-62,cs),
(282,134,l),
(440,134,l),
(440,511,l),
(282,511,l),
(282,701,ls),
(282,777,o),
(310,815,o),
(365,815,cs),
(384,815,o),
(403,811,o),
(421,803,c),
(421,876,l),
(406,882,o),
(385,885,o),
(358,885,cs),
(250,885,o),
(197,826,o),
(197,707,cs),
(197,444,l),
(369,444,l),
(369,201,l),
(197,201,l),
(197,-56,ls),
(197,-132,o),
(168,-170,o),
(111,-170,cs),
(91,-170,o),
(71,-166,o),
(51,-158,c),
(51,-230,l),
(71,-237,o),
(93,-240,o),
(119,-240,cs)
);
},
{
closed = 1;
nodes = (
(274,263,o),
(300,290,o),
(300,323,cs),
(300,356,o),
(273,383,o),
(240,383,cs),
(208,383,o),
(180,357,o),
(180,323,cs),
(180,290,o),
(207,263,o),
(240,263,cs)
);
}
);
width = 491;
}
);
unicode = 10770;
}
{
glyphname = integralAroundAPointOperator;
layers = (
{
anchors = (
{
name = math.ic;
pos = (745,-288);
}
);
layerId = master01;
shapes = (
{
closed = 1;
nodes = (
(260,-240,o),
(315,-179,o),
(315,-62,cs),
(315,134,l),
(415,150,o),
(484,222,o),
(484,322,cs),
(484,421,o),
(416,494,o),
(315,510,c),
(315,701,ls),
(315,777,o),
(343,815,o),
(398,815,cs),
(416,815,o),
(435,811,o),
(454,803,c),
(454,876,l),
(439,882,o),
(418,885,o),
(391,885,cs),
(284,885,o),
(230,826,o),
(230,707,cs),
(230,510,l),
(127,494,o),
(61,420,o),
(61,322,cs),
(61,222,o),
(128,150,o),
(230,134,c),
(230,-56,ls),
(230,-132,o),
(201,-170,o),
(144,-170,cs),
(124,-170,o),
(104,-166,o),
(84,-158,c),
(84,-230,l),
(104,-237,o),
(126,-240,o),
(152,-240,cs)
);
},
{
closed = 1;
nodes = (
(188,196,o),
(132,246,o),
(132,322,cs),
(132,398,o),
(188,448,o),
(272,448,cs),
(356,448,o),
(413,398,o),
(413,322,cs),
(413,246,o),
(355,196,o),
(272,196,cs)
);
},
{
closed = 1;
nodes = (
(306,262,o),
(333,289,o),
(333,322,cs),
(333,357,o),
(304,382,o),
(273,382,cs),
(240,382,o),
(213,355,o),
(213,322,cs),
(213,290,o),
(239,262,o),
(273,262,cs)
);
}
);
userData = {
math = {
};
};
width = 545;
}
);
unicode = 10773;
}
{
glyphname = integralWithUnderbar;
layers = (
{
layerId = master01;
shapes = (
{
closed = 1;
nodes = (
(238,-240,o),
(293,-179,o),
(293,-62,cs),
(293,701,ls),
(293,777,o),
(321,815,o),
(376,815,cs),
(394,815,o),
(413,811,o),
(432,803,c),
(432,876,l),
(417,882,o),
(396,885,o),
(369,885,cs),
(262,885,o),
(208,826,o),
(208,707,cs),
(208,-56,ls),
(208,-132,o),
(179,-170,o),
(122,-170,cs),
(102,-170,o),
(82,-166,o),
(62,-158,c),
(62,-230,l),
(82,-237,o),
(104,-240,o),
(130,-240,cs)
);
},
{
closed = 1;
nodes = (
(451,-383,l),
(451,-312,l),
(51,-312,l),
(51,-383,l)
);
}
);
width = 511;
}
);
unicode = 10780;
}
{
glyphname = plusSignWithDotBelow;
layers = (
{
layerId = master01;
shapes = (
{
closed = 1;
nodes = (
(322,110,l),
(322,316,l),
(521,316,l),
(521,387,l),
(322,387,l),
(322,594,l),
(250,594,l),
(250,387,l),
(51,387,l),
(51,316,l),
(250,316,l),
(250,110,l)
);
},
{
closed = 1;
nodes = (
(321,-78,o),
(348,-51,o),
(348,-18,cs),
(348,13,o),
(323,42,o),
(288,42,cs),
(255,42,o),
(228,15,o),
(228,-18,cs),
(228,-52,o),
(256,-78,o),
(288,-78,cs)
);
}
);
width = 572;
}
);
unicode = 10789;
}
{
glyphname = plusSignWithBlackTriangle;
layers = (
{
layerId = master01;
shapes = (
{
closed = 1;
nodes = (
(322,109,l),
(322,170,l),
(453,170,l),
(322,316,l),
(521,316,l),
(521,387,l),
(322,387,l),
(322,594,l),
(250,594,l),
(250,387,l),
(51,387,l),
(51,316,l),
(250,316,l),
(119,170,l),
(250,170,l),
(250,109,l)
);
}
);
width = 572;
}
);
unicode = 10792;
}
{
glyphname = plusSignInLeftHalfCircled;
layers = (
{
layerId = master01;
shapes = (
{
closed = 1;
nodes = (
(464,-13,l),
(264,-13,o),
(102,149,o),
(102,349,cs),
(102,549,o),
(264,711,o),
(464,711,c),
(464,762,l),
(236,762,o),
(51,577,o),
(51,349,cs),
(51,121,o),
(236,-64,o),
(464,-64,c)
);
},
{
closed = 1;
nodes = (
(500,110,l),
(500,594,l),
(428,594,l),
(428,110,l)
);
},
{
closed = 1;
nodes = (
(699,316,l),
(699,387,l),
(229,387,l),
(229,316,l)
);
}
);
width = 750;
}
);
unicode = 10797;
}
{
glyphname = righthandInteriorProduct;
layers = (
{
layerId = master01;
shapes = (
{
closed = 1;
nodes = (
(521,128,l),
(521,199,l),
(122,199,l),
(122,388,l),
(51,388,l),
(51,128,l)
);
}
);
width = 572;
}
);
unicode = 10813;
}
{
glyphname = intersectionWithOverbar;
layers = (
{
layerId = master01;
shapes = (
{
closed = 1;
nodes = (
(122,0,l),
(122,321,ls),
(122,504,o),
(194,592,o),
(342,592,cs),
(490,592,o),
(562,503,o),
(562,321,cs),
(562,0,l),
(633,0,l),
(633,321,ls),
(633,545,o),
(534,664,o),
(342,664,cs),
(151,664,o),
(51,545,o),
(51,321,cs),
(51,0,l)
);
},
{
closed = 1;
nodes = (
(452,724,l),
(452,781,l),
(232,781,l),
(232,724,l)
);
}
);
userData = {
com.schriftgestaltung.annotations = (
{
position = (
21,
21
);
type = Text;
width = 100;
},
{
position = (
-385,
-1767
);
type = Text;
width = 100;
}
);
};
width = 684;
}
);
unicode = 10819;
}
{
glyphname = intersectionWithLogicalAnd;
layers = (
{
layerId = master01;
shapes = (
{
closed = 1;
nodes = (
(122,0,l),
(122,321,ls),
(122,504,o),
(194,592,o),
(342,592,cs),
(490,592,o),
(562,503,o),
(562,321,cs),
(562,0,l),
(633,0,l),
(633,321,ls),
(633,545,o),
(534,664,o),
(342,664,cs),
(151,664,o),
(51,545,o),
(51,321,cs),
(51,0,l)
);
},
{
closed = 1;
nodes = (
(234,0,l),
(341,90,l),
(450,0,l),
(510,0,l),
(387,160,l),
(297,160,l),
(174,0,l)
);
}
);
width = 684;
}
);
unicode = 10820;
}
{
glyphname = unionAboveIntersection;
layers = (
{
layerId = master01;
shapes = (
{
closed = 1;
nodes = (
(374,381,o),
(453,458,o),
(453,576,cs),
(453,696,l),
(389,696,l),
(389,598,ls),
(389,493,o),
(346,440,o),
(252,440,cs),
(160,440,o),
(115,489,o),
(115,598,cs),
(115,696,l),
(51,696,l),
(51,576,ls),
(51,458,o),
(131,381,o),
(253,381,cs)
);
},
{
closed = 1;
nodes = (
(115,0,l),
(115,98,ls),
(115,206,o),
(159,256,o),
(252,256,cs),
(346,256,o),
(389,204,o),
(389,98,cs),
(389,0,l),
(453,0,l),
(453,120,ls),
(453,238,o),
(374,315,o),
(253,315,cs),
(132,315,o),
(51,238,o),
(51,120,cs),
(51,0,l)
);
}
);
width = 504;
}
);
unicode = 10822;
}
{
glyphname = intersectionAboveUnion;
layers = (
{
layerId = master01;
shapes = (
{
closed = 1;
nodes = (
(115,381,l),
(115,479,ls),
(115,588,o),
(160,637,o),
(252,637,cs),
(344,637,o),
(389,586,o),
(389,479,cs),
(389,381,l),
(453,381,l),
(453,501,ls),
(453,619,o),
(374,696,o),
(253,696,cs),
(132,696,o),
(51,619,o),
(51,501,cs),
(51,381,l)
);
},
{
closed = 1;
nodes = (
(375,0,o),
(453,78,o),
(453,195,cs),
(453,315,l),
(389,315,l),
(389,217,ls),
(389,109,o),
(344,59,o),
(252,59,cs),
(161,59,o),
(115,107,o),
(115,217,cs),
(115,315,l),
(51,315,l),
(51,195,ls),
(51,77,o),
(132,0,o),
(253,0,cs)
);
}
);
width = 504;
}
);
unicode = 10823;
}
{
glyphname = intersectionAboveBarAboveUnion;
layers = (
{
layerId = master01;
shapes = (
{
closed = 1;
nodes = (
(115,430,l),
(115,528,ls),
(115,637,o),
(160,686,o),
(252,686,cs),
(344,686,o),
(389,635,o),
(389,528,cs),
(389,430,l),
(453,430,l),
(453,550,ls),
(453,668,o),
(374,745,o),
(253,745,cs),
(132,745,o),
(51,667,o),
(51,550,cs),
(51,430,l)
);
},
{
closed = 1;
nodes = (
(375,0,o),
(453,78,o),
(453,195,cs),
(453,315,l),
(389,315,l),
(389,217,ls),
(389,109,o),
(344,59,o),
(252,59,cs),
(161,59,o),
(115,107,o),
(115,217,cs),
(115,315,l),
(51,315,l),
(51,195,ls),
(51,77,o),
(132,0,o),
(253,0,cs)
);
},
{
closed = 1;
nodes = (
(421,348,l),
(421,397,l),
(82,397,l),
(82,348,l)
);
}
);
width = 504;
}
);
unicode = 10825;
}
{
glyphname = unionBesideAndJoinedWithUnion;
layers = (
{
layerId = master01;
shapes = (
{
closed = 1;
nodes = (
(316,0,o),
(369,25,o),
(401,76,c),
(435,25,o),
(488,0,o),
(561,0,cs),
(680,0,o),
(751,74,o),
(751,195,cs),
(751,315,l),
(687,315,l),
(687,217,ls),
(687,103,o),
(647,59,o),
(560,59,cs),
(474,59,o),
(433,102,o),
(433,217,cs),
(433,315,l),
(369,315,l),
(369,217,ls),
(369,103,o),
(330,59,o),
(242,59,cs),
(156,59,o),
(115,102,o),
(115,217,cs),
(115,315,l),
(51,315,l),
(51,195,ls),
(51,76,o),
(123,0,o),
(243,0,cs)
);
}
);
width = 802;
}
);
unicode = 10826;
}
{
glyphname = intersectionBesideAndJoinedWithIntersection;
layers = (
{
layerId = master01;
shapes = (
{
closed = 1;
nodes = (
(115,0,l),
(115,98,ls),
(115,211,o),
(154,256,o),
(242,256,cs),
(332,256,o),
(369,211,o),
(369,98,cs),
(369,0,l),
(433,0,l),
(433,98,ls),
(433,211,o),
(472,256,o),
(560,256,cs),
(649,256,o),
(687,211,o),
(687,98,cs),
(687,0,l),
(751,0,l),
(751,120,ls),
(751,241,o),
(680,315,o),
(561,315,cs),
(488,315,o),
(435,290,o),
(401,239,c),
(369,290,o),
(316,315,o),
(243,315,cs),
(124,315,o),
(51,241,o),
(51,120,cs),
(51,0,l)
);
}
);
width = 802;
}
);
unicode = 10827;
}
{
glyphname = closedIntersectionWithSerifs;
layers = (
{
layerId = master01;
shapes = (
{
closed = 1;
nodes = (
(186,0,l),
(186,321,ls),
(186,504,o),
(258,592,o),
(406,592,cs),
(554,592,o),
(626,503,o),
(626,321,cs),
(626,0,l),
(697,0,l),
(697,321,ls),
(697,545,o),
(598,664,o),
(406,664,cs),
(215,664,o),
(115,545,o),
(115,321,cs),
(115,0,l)
);
},
{
closed = 1;
nodes = (
(761,0,l),
(761,65,l),
(51,65,l),
(51,0,l)
);
}
);
width = 812;
}
);
unicode = 10829;
}
{
glyphname = doubleSquareUnion;
layers = (
{
layerId = master01;
shapes = (
{
closed = 1;
nodes = (
(689,0,l),
(689,725,l),
(618,725,l),
(618,71,l),
(122,71,l),
(122,725,l),
(51,725,l),
(51,0,l)
);
},
{
closed = 1;
nodes = (
(553,136,l),
(553,725,l),
(482,725,l),
(482,207,l),
(258,207,l),
(258,725,l),
(187,725,l),
(187,136,l)
);
}
);
width = 740;
}
);
unicode = 10831;
}
{
glyphname = doubleLogicalOr;
layers = (
{
layerId = master01;
shapes = (
{
closed = 1;
nodes = (
(382,0,l),
(663,580,l),
(586,580,l),
(347,68,l),
(367,68,l),
(128,580,l),
(51,580,l),
(332,0,l)
);
},
{
closed = 1;
nodes = (
(371,239,l),
(530,580,l),
(461,580,l),
(347,324,l),
(367,324,l),
(253,580,l),
(184,580,l),
(343,239,l)
);
}
);
width = 714;
}
);
unicode = 10836;
}
{
glyphname = slopingLargeAnd;
layers = (
{
layerId = master01;
shapes = (
{
closed = 1;
nodes = (
(147,0,l),
(604,474,l),
(591,479,l),
(591,0,l),
(662,0,l),
(662,580,l),
(612,580,l),
(51,0,l)
);
}
);
width = 713;
}
);
unicode = 10840;
}
{
glyphname = logicalAndWithHorizontalDash;
layers = (
{
layerId = master01;
shapes = (
{
closed = 1;
nodes = (
(151,0,l),
(374,478,l),
(597,0,l),
(680,0,l),
(399,580,l),
(349,580,l),
(68,0,l)
);
},
{
closed = 1;
nodes = (
(697,154,l),
(697,225,l),
(51,225,l),
(51,154,l)
);
}
);
width = 748;
}
);
unicode = 10844;
}
{
glyphname = zNotationDomainAntirestriction;
layers = (
{
layerId = master01;
shapes = (
{
closed = 1;
nodes = (
(720,695,l),
(51,371,l),
(51,321,l),
(720,-3,l)
);
},
{
closed = 1;
nodes = (
(227,311,l),
(650,311,l),
(650,113,l)
);
},
{
closed = 1;
nodes = (
(650,579,l),
(650,381,l),
(227,381,l)
);
}
);
width = 771;
}
);
unicode = 10852;
}
{
glyphname = zNotationRangeAntirestriction;
layers = (
{
layerId = master01;
shapes = (
{
closed = 1;
nodes = (
(720,321,l),
(720,371,l),
(51,695,l),
(51,-3,l)
);
},
{
closed = 1;
nodes = (
(121,311,l),
(544,311,l),
(121,113,l)
);
},
{
closed = 1;
nodes = (
(121,579,l),
(544,381,l),
(121,381,l)
);
}
);
width = 771;
}
);
unicode = 10853;
}
{
glyphname = equalsSignWithDotBelow;
layers = (
{
layerId = master01;
shapes = (
{
closed = 1;
nodes = (
(521,416,l),
(521,487,l),
(51,487,l),
(51,416,l)
);
},
{
closed = 1;
nodes = (
(319,22,o),
(346,49,o),
(346,82,cs),
(346,115,o),
(319,142,o),
(286,142,cs),
(253,142,o),
(226,115,o),
(226,82,cs),
(226,49,o),
(253,22,o),
(286,22,cs)
);
},
{
closed = 1;
nodes = (
(521,217,l),
(521,288,l),
(51,288,l),
(51,217,l)
);
}
);
width = 572;
}
);
unicode = 10854;
}
{
glyphname = tripleHorizontalBarWithDoubleVerticalStroke;
layers = (
{
layerId = master01;
shapes = (
{
closed = 1;
nodes = (
(296,0,l),
(296,149,l),
(449,149,l),
(449,0,l),
(514,0,l),
(514,149,l),
(694,149,l),
(694,216,l),
(514,216,l),
(514,323,l),
(694,323,l),
(694,389,l),
(514,389,l),
(514,496,l),
(694,496,l),
(694,562,l),
(514,562,l),
(514,714,l),
(449,714,l),
(449,562,l),
(296,562,l),
(296,714,l),
(231,714,l),
(231,562,l),
(51,562,l),
(51,496,l),
(231,496,l),
(231,389,l),
(51,389,l),
(51,323,l),
(231,323,l),
(231,216,l),
(51,216,l),
(51,149,l),
(231,149,l),
(231,0,l)
);
},
{
closed = 1;
nodes = (
(296,323,l),
(449,323,l),
(449,216,l),
(296,216,l)
);
},
{
closed = 1;
nodes = (
(296,496,l),
(449,496,l),
(449,389,l),
(296,389,l)
);
}
);
width = 745;
}
);
unicode = 10856;
}
{
glyphname = twoConsecutiveEqualsSigns;
layers = (
{
layerId = master01;
shapes = (
{
closed = 1;
nodes = (
(821,416,l),
(821,487,l),
(481,487,l),
(481,416,l)
);
},
{
closed = 1;
nodes = (
(391,217,l),
(391,288,l),
(51,288,l),
(51,217,l)
);
},
{
closed = 1;
nodes = (
(391,416,l),
(391,487,l),
(51,487,l),
(51,416,l)
);
},
{
closed = 1;
nodes = (
(821,217,l),
(821,288,l),
(481,288,l),
(481,217,l)
);
}
);
width = 872;
}
);
unicode = 10869;
}
{
glyphname = lessThanWithQuestionMarkAbove;
layers = (
{
layerId = master01;
shapes = (
{
closed = 1;
nodes = (
(522,194,l),
(145,352,l),
(522,530,l),
(522,608,l),
(51,373,l),
(51,323,l),
(522,116,l)
);
},
{
closed = 1;
nodes = (
(191,482,l),
(191,523,l),
(145,523,l),
(145,482,l)
);
},
{
closed = 1;
nodes = (
(191,543,l),
(191,568,ls),
(191,580,o),
(200,594,o),
(219,609,cs),
(238,624,o),
(247,642,o),
(247,662,cs),
(247,699,o),
(215,722,o),
(171,722,cs),
(121,722,o),
(93,697,o),
(93,652,c),
(138,652,l),
(138,673,o),
(149,684,o),
(171,684,cs),
(187,684,o),
(199,676,o),
(199,662,cs),
(199,651,o),
(190,638,o),
(172,625,cs),
(154,612,o),
(145,593,o),
(145,568,cs),
(145,543,l)
);
}
);
width = 573;
}
);
unicode = 10875;
}
{
glyphname = greaterThanOrSlantedEqualTo;
layers = (
{
layerId = master01;
shapes = (
{
closed = 1;
nodes = (
(521,360,l),
(521,410,l),
(51,631,l),
(51,553,l),
(417,385,l),
(51,217,l),
(51,139,l)
);
},
{
closed = 1;
nodes = (
(521,169,l),
(521,247,l),
(51,26,l),
(51,-52,l)
);
}
);
width = 572;
}
);
unicode = 10878;
}
{
glyphname = greaterThanOrSlantedEqualToWithDotAbove;
layers = (
{
layerId = master01;
shapes = (
{
closed = 1;
nodes = (
(521,360,l),
(521,410,l),
(51,631,l),
(51,553,l),
(417,385,l),
(51,217,l),
(51,139,l)
);
},
{
closed = 1;
nodes = (
(521,169,l),
(521,247,l),
(51,26,l),
(51,-52,l)
);
},
{
closed = 1;
nodes = (
(488,503,o),
(514,531,o),
(514,563,cs),
(514,594,o),
(489,623,o),
(454,623,cs),
(421,623,o),
(394,596,o),
(394,563,cs),
(394,530,o),
(421,503,o),
(454,503,cs)
);
}
);
width = 572;
}
);
unicode = 10882;
}
{
glyphname = lessThanOrSlantedEqualToWithDotAboveRight;
layers = (
{
layerId = master01;
shapes = (
{
closed = 1;
nodes = (
(521,217,l),
(155,385,l),
(521,553,l),
(521,631,l),
(51,410,l),
(51,360,l),
(521,139,l)
);
},
{
closed = 1;
nodes = (
(521,26,l),
(51,247,l),
(51,169,l),
(521,-52,l)
);
},
{
closed = 1;
nodes = (
(489,670,o),
(515,698,o),
(515,730,cs),
(515,761,o),
(490,790,o),
(455,790,cs),
(422,790,o),
(395,763,o),
(395,730,cs),
(395,697,o),
(422,670,o),
(455,670,cs)
);
}
);
width = 572;
}
);
unicode = 10883;
}
{
glyphname = greaterThanAndSingleLineNotEqualTo;
layers = (
{
layerId = master01;
shapes = (
{
closed = 1;
nodes = (
(521,387,l),
(521,437,l),
(51,658,l),
(51,580,l),
(417,412,l),
(51,244,l),
(51,166,l)
);
},
{
closed = 1;
nodes = (
(382,190,l),
(325,220,l),
(199,-45,l),
(257,-73,l)
);
},
{
closed = 1;
nodes = (
(521,47,l),
(521,118,l),
(51,118,l),
(51,47,l)
);
}
);
width = 572;
}
);
unicode = 10888;
}
{
glyphname = lessThanAboveSimilarOrEqual;
layers = (
{
layerId = master01;
shapes = (
{
closed = 1;
nodes = (
(521,390,l),
(159,511,l),
(521,633,l),
(521,706,l),
(51,536,l),
(51,486,l),
(521,317,l)
);
},
{
closed = 1;
nodes = (
(521,-1,l),
(521,70,l),
(51,70,l),
(51,-1,l)
);
},
{
closed = 1;
nodes = (
(87,178,o),
(129,200,o),
(164,200,cs),
(195,200,o),
(232,190,o),
(274,171,cs),
(317,151,o),
(359,141,o),
(401,141,cs),
(448,141,o),
(488,159,o),
(521,195,c),
(521,272,l),
(486,235,o),
(441,213,o),
(406,213,cs),
(377,213,o),
(340,224,o),
(296,243,cs),
(252,262,o),
(210,272,o),
(170,272,cs),
(123,272,o),
(83,254,o),
(51,219,c),
(51,141,l)
);
}
);
width = 572;
}
);
unicode = 10893;
}
{
glyphname = greaterThanAboveLessThanAboveDoubleLineEqual;
layers = (
{
layerId = master01;
shapes = (
{
closed = 1;
nodes = (
(521,595,l),
(521,645,l),
(51,815,l),
(51,742,l),
(413,620,l),
(51,499,l),
(51,426,l)
);
},
{
closed = 1;
nodes = (
(521,-146,l),
(521,-75,l),
(51,-75,l),
(51,-146,l)
);
},
{
closed = 1;
nodes = (
(521,14,l),
(521,85,l),
(51,85,l),
(51,14,l)
);
},
{
closed = 1;
nodes = (
(521,188,l),
(159,309,l),
(521,431,l),
(521,504,l),
(51,334,l),
(51,284,l),
(521,115,l)
);
}
);
width = 572;
}
);
unicode = 10898;
}
{
glyphname = greaterThanAboveSlantedEqualAboveLessThanAboveSlantedEqual;
layers = (
{
layerId = master01;
shapes = (
{
closed = 1;
nodes = (
(521,650,l),
(521,700,l),
(51,870,l),
(51,797,l),
(413,675,l),
(51,554,l),
(51,481,l)
);
},
{
closed = 1;
nodes = (
(521,-102,l),
(51,67,l),
(51,-5,l),
(521,-174,l)
);
},
{
closed = 1;
nodes = (
(521,68,l),
(159,189,l),
(521,311,l),
(521,384,l),
(51,214,l),
(51,164,l),
(521,-5,l)
);
},
{
closed = 1;
nodes = (
(521,481,l),
(521,553,l),
(51,384,l),
(51,312,l)
);
}
);
width = 572;
}
);
unicode = 10900;
}
{
glyphname = slantedEqualToOrLessThan;
layers = (
{
layerId = master01;
shapes = (
{
closed = 1;
nodes = (
(521,26,l),
(155,194,l),
(521,362,l),
(521,440,l),
(51,219,l),
(51,169,l),
(521,-52,l)
);
},
{
closed = 1;
nodes = (
(521,553,l),
(521,631,l),
(51,410,l),
(51,332,l)
);
}
);
width = 572;
}
);
unicode = 10901;
}
{
glyphname = similarOrLessThan;
layers = (
{
layerId = master01;
shapes = (
{
closed = 1;
nodes = (
(521,124,l),
(159,245,l),
(521,367,l),
(521,440,l),
(51,270,l),
(51,220,l),
(521,51,l)
);
},
{
closed = 1;
nodes = (
(90,524,o),
(131,544,o),
(164,544,cs),
(193,544,o),
(230,535,o),
(276,515,cs),
(322,495,o),
(363,485,o),
(401,485,cs),
(447,485,o),
(487,503,o),
(521,539,c),
(521,616,l),
(486,579,o),
(441,557,o),
(406,557,cs),
(377,557,o),
(340,568,o),
(295,587,cs),
(250,606,o),
(208,616,o),
(170,616,cs),
(124,616,o),
(83,599,o),
(51,563,c),
(51,485,l)
);
}
);
width = 572;
}
);
unicode = 10909;
}
{
glyphname = greaterThanOverlappingLessThan;
layers = (
{
layerId = master01;
shapes = (
{
closed = 1;
nodes = (
(341,236,l),
(632,96,l),
(632,174,l),
(420,274,l),
(522,323,l),
(522,373,l),
(410,433,l),
(632,550,l),
(632,628,l),
(341,470,l),
(51,628,l),
(51,550,l),
(273,433,l),
(161,373,l),
(161,323,l),
(262,274,l),
(51,174,l),
(51,96,l)
);
},
{
closed = 1;
nodes = (
(255,352,l),
(341,397,l),
(428,352,l),
(341,311,l)
);
}
);
width = 683;
}
);
unicode = 10916;
}
{
glyphname = largerThanOrEqualTo;
layers = (
{
layerId = master01;
shapes = (
{
closed = 1;
nodes = (
(630,387,l),
(630,437,l),
(51,719,l),
(51,636,l),
(454,447,l),
(51,447,l),
(51,377,l),
(454,377,l),
(51,188,l),
(51,105,l)
);
},
{
closed = 1;
nodes = (
(630,-14,l),
(630,57,l),
(51,57,l),
(51,-14,l)
);
}
);
width = 681;
}
);
unicode = 10925;
}
{
glyphname = succeedsAboveNotEqualTo;
layers = (
{
layerId = master01;
shapes = (
{
closed = 1;
nodes = (
(196,340,o),
(379,437,o),
(521,470,c),
(521,516,l),
(385,547,o),
(196,646,o),
(81,753,c),
(81,667,l),
(137,614,o),
(284,526,o),
(380,495,c),
(380,491,l),
(286,461,o),
(148,379,o),
(81,319,c),
(81,233,l)
);
},
{
closed = 1;
nodes = (
(520,-46,l),
(520,25,l),
(51,25,l),
(51,-46,l)
);
},
{
closed = 1;
nodes = (
(403,248,l),
(346,278,l),
(158,-119,l),
(216,-147,l)
);
},
{
closed = 1;
nodes = (
(520,114,l),
(520,185,l),
(51,185,l),
(51,114,l)
);
}
);
width = 572;
}
);
unicode = 10934;
}
{
glyphname = precedesAboveAlmostEqualTo;
layers = (
{
layerId = master01;
shapes = (
{
closed = 1;
nodes = (
(518,319,l),
(449,381,o),
(312,462,o),
(219,491,c),
(219,495,l),
(313,525,o),
(461,614,o),
(518,667,c),
(518,753,l),
(406,647,o),
(215,547,o),
(78,516,c),
(78,470,l),
(221,437,o),
(404,340,o),
(518,233,c)
);
},
{
closed = 1;
nodes = (
(89,-34,o),
(131,-13,o),
(164,-13,cs),
(194,-13,o),
(231,-23,o),
(274,-42,cs),
(318,-62,o),
(360,-72,o),
(401,-72,cs),
(448,-72,o),
(488,-54,o),
(521,-18,c),
(521,59,l),
(486,22,o),
(441,0,o),
(406,0,cs),
(376,0,o),
(339,10,o),
(295,30,cs),
(252,49,o),
(210,59,o),
(170,59,cs),
(124,59,o),
(83,42,o),
(51,6,c),
(51,-72,l)
);
},
{
closed = 1;
nodes = (
(90,127,o),
(131,147,o),
(164,147,cs),
(193,147,o),
(230,137,o),
(276,118,cs),
(322,99,o),
(363,88,o),
(401,88,cs),
(447,88,o),
(487,106,o),
(521,142,c),
(521,219,l),
(486,182,o),
(441,160,o),
(406,160,cs),
(377,160,o),
(340,171,o),
(295,190,cs),
(250,209,o),
(208,219,o),
(170,219,cs),
(124,219,o),
(83,202,o),
(51,166,c),
(51,88,l)
);
}
);
width = 572;
}
);
unicode = 10935;
}
{
glyphname = succeedsAboveAlmostEqualTo;
layers = (
{
layerId = master01;
shapes = (
{
closed = 1;
nodes = (
(192,340,o),
(374,437,o),
(518,470,c),
(518,516,l),
(381,547,o),
(191,647,o),
(78,753,c),
(78,667,l),
(123,622,o),
(274,528,o),
(377,495,c),
(377,491,l),
(282,461,o),
(135,373,o),
(78,319,c),
(78,233,l)
);
},
{
closed = 1;
nodes = (
(89,-34,o),
(131,-13,o),
(164,-13,cs),
(194,-13,o),
(231,-23,o),
(274,-42,cs),
(318,-62,o),
(360,-72,o),
(401,-72,cs),
(448,-72,o),
(488,-54,o),
(521,-18,c),
(521,59,l),
(486,22,o),
(441,0,o),
(406,0,cs),
(376,0,o),
(339,10,o),
(295,30,cs),
(252,49,o),
(210,59,o),
(170,59,cs),
(124,59,o),
(83,42,o),
(51,6,c),
(51,-72,l)
);
},
{
closed = 1;
nodes = (
(90,127,o),
(131,147,o),
(164,147,cs),
(193,147,o),
(230,137,o),
(276,118,cs),
(322,99,o),
(363,88,o),
(401,88,cs),
(447,88,o),
(487,106,o),
(521,142,c),
(521,219,l),
(486,182,o),
(441,160,o),
(406,160,cs),
(377,160,o),
(340,171,o),
(295,190,cs),
(250,209,o),
(208,219,o),
(170,219,cs),
(124,219,o),
(83,202,o),
(51,166,c),
(51,88,l)
);
}
);
width = 572;
}
);
unicode = 10936;
}
{
glyphname = subsetWithPlusSignBelow;
layers = (
{
layerId = master01;
shapes = (
{
closed = 1;
nodes = (
(628,272,l),
(628,343,l),
(394,343,ls),
(196,343,o),
(123,393,o),
(123,513,cs),
(123,634,o),
(197,683,o),
(394,683,cs),
(628,683,l),
(628,754,l),
(394,754,ls),
(159,754,o),
(51,680,o),
(51,513,cs),
(51,346,o),
(159,272,o),
(394,272,cs)
);
},
{
closed = 1;
nodes = (
(431,-38,l),
(431,188,l),
(377,188,l),
(377,-38,l)
);
},
{
closed = 1;
nodes = (
(517,48,l),
(517,102,l),
(291,102,l),
(291,48,l)
);
}
);
width = 679;
}
);
unicode = 10943;
}
{
glyphname = supersetOfAboveNotEqualTo;
layers = (
{
layerId = master01;
shapes = (
{
closed = 1;
nodes = (
(285,272,ls),
(520,272,o),
(628,346,o),
(628,513,cs),
(628,680,o),
(520,754,o),
(285,754,cs),
(51,754,l),
(51,683,l),
(285,683,ls),
(482,683,o),
(556,634,o),
(556,513,cs),
(556,392,o),
(483,343,o),
(285,343,cs),
(51,343,l),
(51,272,l)
);
},
{
closed = 1;
nodes = (
(628,-28,l),
(628,43,l),
(51,43,l),
(51,-28,l)
);
},
{
closed = 1;
nodes = (
(456,222,l),
(398,250,l),
(231,-102,l),
(289,-130,l)
);
},
{
closed = 1;
nodes = (
(628,132,l),
(628,203,l),
(51,203,l),
(51,132,l)
);
}
);
width = 679;
}
);
unicode = 10956;
}
{
glyphname = squareRightOpenBoxOperator;
layers = (
{
layerId = master01;
shapes = (
{
closed = 1;
nodes = (
(1004,82,l),
(1004,624,l),
(51,624,l),
(51,553,l),
(933,553,l),
(933,153,l),
(533,153,l),
(533,82,l)
);
}
);
width = 1055;
}
);
unicode = 10958;
}
{
glyphname = closedSubset;
layers = (
{
layerId = master01;
shapes = (
{
closed = 1;
nodes = (
(628,112,l),
(628,594,l),
(394,594,ls),
(159,594,o),
(51,520,o),
(51,353,cs),
(51,186,o),
(159,112,o),
(394,112,cs)
);
},
{
closed = 1;
nodes = (
(197,183,o),
(123,232,o),
(123,353,cs),
(123,474,o),
(197,523,o),
(394,523,cs),
(557,523,l),
(557,183,l),
(394,183,ls)
);
}
);
width = 679;
}
);
unicode = 10959;
}
{
glyphname = closedSubsetOrEqualTo;
layers = (
{
layerId = master01;
shapes = (
{
closed = 1;
nodes = (
(628,140,l),
(628,622,l),
(394,622,ls),
(159,622,o),
(51,547,o),
(51,381,cs),
(51,214,o),
(159,140,o),
(394,140,cs)
);
},
{
closed = 1;
nodes = (
(628,0,l),
(628,71,l),
(51,71,l),
(51,0,l)
);
},
{
closed = 1;
nodes = (
(197,211,o),
(123,260,o),
(123,381,cs),
(123,502,o),
(197,551,o),
(394,551,cs),
(557,551,l),
(557,211,l),
(394,211,ls)
);
}
);
width = 679;
}
);
unicode = 10961;
}
{
glyphname = supersetAboveSubset;
layers = (
{
layerId = master01;
shapes = (
{
closed = 1;
nodes = (
(285,392,ls),
(520,392,o),
(628,466,o),
(628,633,cs),
(628,799,o),
(520,874,o),
(285,874,cs),
(51,874,l),
(51,803,l),
(285,803,ls),
(480,803,o),
(556,754,o),
(556,633,cs),
(556,512,o),
(482,463,o),
(285,463,cs),
(51,463,l),
(51,392,l)
);
},
{
closed = 1;
nodes = (
(628,-171,l),
(628,-100,l),
(394,-100,ls),
(197,-100,o),
(123,-51,o),
(123,70,cs),
(123,191,o),
(199,240,o),
(394,240,cs),
(628,240,l),
(628,311,l),
(394,311,ls),
(159,311,o),
(51,236,o),
(51,70,cs),
(51,-97,o),
(159,-171,o),
(394,-171,cs)
);
}
);
width = 679;
}
);
unicode = 10964;
}
{
glyphname = subsetAboveSubset;
layers = (
{
layerId = master01;
shapes = (
{
closed = 1;
nodes = (
(628,392,l),
(628,463,l),
(394,463,ls),
(197,463,o),
(123,512,o),
(123,633,cs),
(123,754,o),
(199,803,o),
(394,803,cs),
(628,803,l),
(628,874,l),
(394,874,ls),
(159,874,o),
(51,799,o),
(51,633,cs),
(51,466,o),
(159,392,o),
(394,392,cs)
);
},
{
closed = 1;
nodes = (
(628,-171,l),
(628,-100,l),
(394,-100,ls),
(197,-100,o),
(123,-51,o),
(123,70,cs),
(123,191,o),
(199,240,o),
(394,240,cs),
(628,240,l),
(628,311,l),
(394,311,ls),
(159,311,o),
(51,236,o),
(51,70,cs),
(51,-97,o),
(159,-171,o),
(394,-171,cs)
);
}
);
width = 679;
}
);
unicode = 10965;
}
{
glyphname = pitchforkWithTeeTop;
layers = (
{
layerId = master01;
shapes = (
{
closed = 1;
nodes = (
(122,0,l),
(122,218,ls),
(122,399,o),
(193,489,o),
(341,489,cs),
(489,489,o),
(560,399,o),
(560,218,cs),
(560,0,l),
(631,0,l),
(631,218,ls),
(631,444,o),
(533,560,o),
(341,560,cs),
(149,560,o),
(51,444,o),
(51,218,cs),
(51,0,l)
);
},
{
closed = 1;
nodes = (
(377,-120,l),
(377,720,l),
(306,720,l),
(306,-120,l)
);
},
{
closed = 1;
nodes = (
(471,649,l),
(471,720,l),
(212,720,l),
(212,649,l)
);
}
);
width = 682;
}
);
unicode = 10970;
}
{
glyphname = forking;
layers = (
{
layerId = master01;
shapes = (
{
closed = 1;
nodes = (
(122,41,l),
(180,114,l),
(215,97,o),
(259,89,o),
(312,89,cs),
(479,89,o),
(553,170,o),
(553,364,cs),
(553,443,l),
(482,443,l),
(482,364,ls),
(482,229,o),
(445,171,o),
(347,163,c),
(347,324,l),
(552,583,l),
(481,583,l),
(347,414,l),
(347,583,l),
(276,583,l),
(276,324,l),
(180,204,l),
(154,235,o),
(141,288,o),
(141,364,cs),
(141,443,l),
(70,443,l),
(70,364,ls),
(70,261,o),
(91,188,o),
(135,146,c),
(51,41,l)
);
},
{
closed = 1;
nodes = (
(256,165,o),
(239,167,o),
(227,173,c),
(276,235,l),
(276,163,l)
);
}
);
width = 604;
}
);
unicode = 10972;
}
{
glyphname = shortLeftTack;
layers = (
{
layerId = master01;
shapes = (
{
closed = 1;
nodes = (
(432,26,l),
(432,680,l),
(361,680,l),
(361,389,l),
(51,389,l),
(51,318,l),
(361,318,l),
(361,26,l)
);
}
);
width = 483;
}
);
unicode = 10974;
}
{
glyphname = shortUpTack;
layers = (
{
layerId = master01;
shapes = (
{
closed = 1;
nodes = (
(705,162,l),
(705,233,l),
(413,233,l),
(413,543,l),
(342,543,l),
(342,233,l),
(51,233,l),
(51,162,l)
);
}
);
width = 756;
}
);
unicode = 10976;
}
{
glyphname = longDashFromLeftMemberOfDoubleVertical;
layers = (
{
layerId = master01;
shapes = (
{
closed = 1;
nodes = (
(122,26,l),
(122,318,l),
(241,318,l),
(241,26,l),
(312,26,l),
(312,318,l),
(785,318,l),
(785,390,l),
(312,390,l),
(312,680,l),
(241,680,l),
(241,390,l),
(122,390,l),
(122,680,l),
(51,680,l),
(51,26,l)
);
}
);
width = 836;
}
);
unicode = 10982;
}
{
glyphname = doesNotDivideWithReversedNegationSlash;
layers = (
{
layerId = master01;
shapes = (
{
closed = 1;
nodes = (
(380,187,l),
(99,488,l),
(51,444,l),
(334,142,l)
);
},
{
closed = 1;
nodes = (
(247,-120,l),
(247,760,l),
(176,760,l),
(176,-120,l)
);
}
);
width = 431;
}
);
unicode = 10990;
}
{
glyphname = tripleColonOperator;
layers = (
{
layerId = master01;
shapes = (
{
closed = 1;
nodes = (
(144,598,o),
(171,625,o),
(171,658,cs),
(171,692,o),
(144,718,o),
(111,718,cs),
(78,718,o),
(51,691,o),
(51,658,cs),
(51,626,o),
(77,598,o),
(111,598,cs)
);
},
{
closed = 1;
nodes = (
(144,-10,o),
(171,16,o),
(171,50,cs),
(171,83,o),
(144,110,o),
(111,110,cs),
(76,110,o),
(51,81,o),
(51,50,cs),
(51,18,o),
(77,-10,o),
(111,-10,cs)
);
},
{
closed = 1;
nodes = (
(144,292,o),
(171,319,o),
(171,352,cs),
(171,387,o),
(142,412,o),
(111,412,cs),
(78,412,o),
(51,385,o),
(51,352,cs),
(51,320,o),
(77,292,o),
(111,292,cs)
);
}
);
width = 222;
}
);
unicode = 10998;
}
{
glyphname = tripleNestedGreaterThan;
layers = (
{
layerId = master01;
shapes = (
{
closed = 1;
nodes = (
(877,307,l),
(877,367,l),
(51,767,l),
(51,690,l),
(772,337,l),
(51,-13,l),
(51,-91,l)
);
},
{
closed = 1;
nodes = (
(269,322,l),
(269,354,l),
(51,457,l),
(51,377,l),
(138,337,l),
(51,293,l),
(51,219,l)
);
},
{
closed = 1;
nodes = (
(586,322,l),
(586,354,l),
(51,607,l),
(51,530,l),
(455,337,l),
(51,145,l),
(51,67,l)
);
}
);
width = 928;
}
);
unicode = 11000;
}
{
glyphname = leftArrowTipDown;
layers = (
{
layerId = master01;
shapes = (
{
closed = 1;
nodes = (
(290,61,l),
(290,318,l),
(807,318,l),
(807,372,l),
(236,372,l),
(236,61,l)
);
},
{
closed = 1;
nodes = (
(274,-2,l),
(303,56,o),
(349,112,o),
(411,165,c),
(411,209,l),
(353,182,o),
(309,155,o),
(283,129,c),
(243,129,l),
(217,155,o),
(173,182,o),
(115,209,c),
(115,165,l),
(177,112,o),
(223,56,o),
(252,-2,c)
);
}
);
width = 922;
}
);
unicode = 11024;
}
{
color = 4;
glyphname = bottomHalfBlackDiamond;
layers = (
{
layerId = master01;
shapes = (
{
closed = 1;
nodes = (
(908,357,l),
(469,796,l),
(30,357,l),
(469,-82,l)
);
},
{
closed = 1;
nodes = (
(102,357,l),
(836,357,l),
(469,-10,l)
);
}
);
width = 938;
}
);
unicode = 11033;
}
{
glyphname = leftArrowWithTailWithDoubleVerticalStroke;
layers = (
{
layerId = master01;
shapes = (
{
closed = 1;
nodes = (
(262,197,l),
(235,255,o),
(208,299,o),
(182,325,c),
(182,365,l),
(208,391,o),
(235,435,o),
(262,493,c),
(218,493,l),
(165,431,o),
(109,385,o),
(51,356,c),
(51,334,l),
(109,305,o),
(165,259,o),
(218,197,c)
);
},
{
closed = 1;
nodes = (
(386,197,l),
(386,493,l),
(332,493,l),
(332,197,l)
);
},
{
closed = 1;
nodes = (
(613,318,l),
(613,372,l),
(152,372,l),
(152,318,l)
);
},
{
closed = 1;
nodes = (
(510,197,l),
(510,493,l),
(456,493,l),
(456,197,l)
);
},
{
closed = 1;
nodes = (
(751,197,l),
(631,345,l),
(751,493,l),
(687,493,l),
(566,345,l),
(687,197,l)
);
}
);
width = 802;
}
);
unicode = 11066;
}
{
glyphname = leftArrowAboveAlmostEqualTo;
layers = (
{
layerId = master01;
shapes = (
{
closed = 1;
nodes = (
(262,197,l),
(235,255,o),
(208,299,o),
(182,325,c),
(182,365,l),
(208,391,o),
(235,435,o),
(262,493,c),
(218,493,l),
(165,431,o),
(109,385,o),
(51,356,c),
(51,334,l),
(109,305,o),
(165,259,o),
(218,197,c)
);
},
{
closed = 1;
nodes = (
(368,7,l),
(376,44,o),
(393,63,o),
(420,63,cs),
(435,63,o),
(458,52,o),
(489,35,cs),
(520,18,o),
(545,8,o),
(564,8,cs),
(625,8,o),
(661,46,o),
(668,124,c),
(621,124,l),
(611,87,o),
(599,68,o),
(568,68,cs),
(554,68,o),
(533,78,o),
(503,96,cs),
(473,114,o),
(446,122,o),
(423,122,cs),
(361,122,o),
(327,84,o),
(319,7,c)
);
},
{
closed = 1;
nodes = (
(368,147,l),
(376,184,o),
(393,203,o),
(420,203,cs),
(435,203,o),
(458,192,o),
(489,175,cs),
(520,158,o),
(545,148,o),
(564,148,cs),
(625,148,o),
(661,186,o),
(668,264,c),
(621,264,l),
(611,227,o),
(599,208,o),
(568,208,cs),
(554,208,o),
(533,218,o),
(503,236,cs),
(473,254,o),
(446,262,o),
(423,262,cs),
(361,262,o),
(327,224,o),
(319,147,c)
);
},
{
closed = 1;
nodes = (
(743,318,l),
(743,372,l),
(152,372,l),
(152,318,l)
);
}
);
width = 794;
}
);
unicode = 11082;
}
{
glyphname = leftArrowAboveReverseTildeOperator;
layers = (
{
layerId = master01;
shapes = (
{
closed = 1;
nodes = (
(262,197,l),
(235,255,o),
(208,299,o),
(182,325,c),
(182,365,l),
(208,391,o),
(235,435,o),
(262,493,c),
(218,493,l),
(165,431,o),
(109,385,o),
(51,356,c),
(51,334,l),
(109,305,o),
(165,259,o),
(218,197,c)
);
},
{
closed = 1;
nodes = (
(668,107,l),
(660,184,o),
(626,222,o),
(564,222,cs),
(541,222,o),
(514,214,o),
(484,196,cs),
(454,178,o),
(433,168,o),
(419,168,cs),
(388,168,o),
(376,187,o),
(366,224,c),
(319,224,l),
(326,146,o),
(362,108,o),
(423,108,cs),
(442,108,o),
(467,118,o),
(498,135,cs),
(529,152,o),
(552,163,o),
(567,163,cs),
(594,163,o),
(611,144,o),
(619,107,c)
);
},
{
closed = 1;
nodes = (
(743,318,l),
(743,372,l),
(152,372,l),
(152,318,l)
);
}
);
width = 794;
}
);
unicode = 11083;
}
{
glyphname = rightArrowAboveReverseTildeOperator;
layers = (
{
layerId = master01;
shapes = (
{
closed = 1;
nodes = (
(576,197,l),
(629,259,o),
(685,305,o),
(743,334,c),
(743,356,l),
(685,385,o),
(629,431,o),
(576,493,c),
(532,493,l),
(559,435,o),
(586,391,o),
(612,365,c),
(612,325,l),
(586,299,o),
(559,255,o),
(532,197,c)
);
},
{
closed = 1;
nodes = (
(475,107,l),
(467,184,o),
(433,222,o),
(371,222,cs),
(348,222,o),
(321,214,o),
(291,196,cs),
(261,178,o),
(240,168,o),
(226,168,cs),
(195,168,o),
(183,187,o),
(173,224,c),
(126,224,l),
(133,146,o),
(169,108,o),
(230,108,cs),
(249,108,o),
(274,118,o),
(305,135,cs),
(336,152,o),
(359,163,o),
(374,163,cs),
(401,163,o),
(418,144,o),
(426,107,c)
);
},
{
closed = 1;
nodes = (
(642,318,l),
(642,372,l),
(51,372,l),
(51,318,l)
);
}
);
width = 794;
}
);
unicode = 11084;
}
{
color = 4;
glyphname = "Sbold-math";
layers = (
{
anchors = (
{
name = math.ta;
pos = (283,764);
}
);
layerId = master01;
shapes = (
{
closed = 1;
nodes = (
(430,-10,o),
(536,80,o),
(536,209,cs),
(536,307,o),
(482,365,o),
(345,421,cs),
(210,475,o),
(180,514,o),
(180,571,cs),
(180,631,o),
(225,663,o),
(279,663,cs),
(356,663,o),
(385,581,o),
(385,525,c),
(467,525,o),
(508,561,o),
(508,608,cs),
(508,673,o),
(442,724,o),
(295,724,cs),
(154,724,o),
(50,645,o),
(50,523,cs),
(50,425,o),
(97,362,o),
(237,305,cs),
(349,259,o),
(404,226,o),
(404,158,cs),
(404,97,o),
(358,50,o),
(280,50,cs),
(200,50,o),
(143,109,o),
(143,223,c),
(85,223,o),
(30,198,o),
(30,130,cs),
(30,65,o),
(85,-10,o),
(264,-10,cs)
);
}
);
width = 586;
}
);
unicode = 119826;
}
{
color = 4;
glyphname = "Zbold-math";
layers = (
{
anchors = (
{
name = math.ta;
pos = (352,764);
}
);
layerId = master01;
shapes = (
{
closed = 1;
nodes = (
(617,0,l),
(622,206,l),
(550,206,l),
(545,161,ls),
(540,111,o),
(522,61,o),
(440,61,cs),
(224,61,l),
(600,663,l),
(600,714,l),
(66,714,l),
(61,508,l),
(133,508,l),
(138,562,ls),
(143,617,o),
(157,653,o),
(220,653,cs),
(417,653,l),
(42,50,l),
(42,0,l)
);
}
);
width = 666;
}
);
unicode = 119833;
}
{
color = 4;
glyphname = "ibold-math";
layers = (
{
anchors = (
{
name = math.ta;
pos = (157,586);
}
);
layerId = master01;
shapes = (
{
closed = 1;
nodes = (
(335,0,l),
(335,53,l),
(323,53,ls),
(294,53,o),
(252,61,o),
(252,118,cs),
(252,536,l),
(17,536,l),
(17,483,l),
(29,483,ls),
(57,483,o),
(100,475,o),
(100,422,cs),
(100,118,ls),
(100,61,o),
(58,53,o),
(29,53,cs),
(17,53,l),
(17,0,l)
);
},
{
closed = 1;
nodes = (
(217,626,o),
(257,649,o),
(257,698,cs),
(257,749,o),
(217,770,o),
(171,770,cs),
(123,770,o),
(86,749,o),
(86,698,cs),
(86,649,o),
(123,626,o),
(171,626,cs)
);
}
);
width = 352;
}
);
unicode = 119842;
}
{
color = 4;
glyphname = "vbold-math";
layers = (
{
anchors = (
{
name = math.ta;
pos = (288,586);
}
);
layerId = master01;
shapes = (
{
closed = 1;
nodes = (
(244,0,l),
(376,0,l),
(521,410,ls),
(544,474,o),
(559,483,o),
(586,483,cs),
(606,483,l),
(606,536,l),
(386,536,l),
(386,483,l),
(415,483,ls),
(438,483,o),
(454,476,o),
(454,454,cs),
(454,436,o),
(449,417,o),
(443,399,cs),
(375,198,ls),
(366,171,o),
(353,125,o),
(347,93,c),
(341,127,o),
(326,176,o),
(311,218,cs),
(244,407,ls),
(240,418,o),
(235,435,o),
(235,451,cs),
(235,472,o),
(248,483,o),
(268,483,cs),
(310,483,l),
(310,536,l),
(0,536,l),
(0,483,l),
(44,483,o),
(66,473,o),
(80,435,cs)
);
}
);
width = 606;
}
);
unicode = 119855;
}
{
color = 4;
glyphname = "Oitalic-math";
kernLeft = O;
kernRight = O;
layers = (
{
anchors = (
{
name = bottom;
pos = (314,0);
},
{
name = center;
pos = (409,357);
},
{
name = math.ta;
pos = (466,764);
},
{
name = top;
pos = (466,714);
},
{
name = topright;
pos = (817,714);
}
);
layerId = master01;
shapes = (
{
closed = 1;
nodes = (
(582,-11,o),
(711,266,o),
(711,450,cs),
(711,641,o),
(590,725,o),
(452,725,cs),
(187,725,o),
(52,458,o),
(52,266,cs),
(52,85,o),
(166,-11,o),
(314,-11,cs)
);
},
{
closed = 1;
nodes = (
(231,44,o),
(161,102,o),
(161,238,cs),
(161,400,o),
(250,671,o),
(444,671,cs),
(535,671,o),
(601,612,o),
(601,477,cs),
(601,315,o),
(514,44,o),
(320,44,cs)
);
}
);
width = 742;
}
);
unicode = 119874;
}
{
color = 4;
glyphname = "Pitalic-math";
kernLeft = B;
kernRight = P;
layers = (
{
anchors = (
{
name = bottom;
pos = (128,0);
},
{
name = math.ta;
pos = (405,764);
},
{
name = top;
pos = (405,714);
},
{
name = topright;
pos = (695,714);
}
);
layerId = master01;
shapes = (
{
closed = 1;
nodes = (
(290,0,l),
(299,42,l),
(266,42,ls),
(224,42,o),
(194,48,o),
(194,82,cs),
(194,88,o),
(196,102,o),
(198,110,cs),
(234,278,l),
(308,278,ls),
(565,278,o),
(614,420,o),
(614,521,cs),
(614,648,o),
(526,714,o),
(386,714,cs),
(130,714,l),
(121,672,l),
(134,672,ls),
(176,672,o),
(206,666,o),
(206,632,cs),
(206,626,o),
(204,612,o),
(202,604,cs),
(98,114,ls),
(85,51,o),
(46,42,o),
(2,42,cs),
(-11,42,l),
(-20,0,l)
);
},
{
closed = 1;
nodes = (
(244,325,l),
(316,666,l),
(362,666,ls),
(457,666,o),
(508,625,o),
(508,520,cs),
(508,406,o),
(452,325,o),
(297,325,cs)
);
}
);
width = 620;
}
);
unicode = 119875;
}
{
color = 4;
glyphname = "Vitalic-math";
kernLeft = V;
kernRight = V;
layers = (
{
anchors = (
{
name = bottom;
pos = (281,0);
},
{
name = math.ic;
pos = (786,250);
},
{
name = math.ta;
pos = (433,764);
},
{
name = top;
pos = (433,714);
},
{
name = topright;
pos = (750,714);
}
);
layerId = master01;
shapes = (
{
closed = 1;
nodes = (
(240,0,l),
(313,0,l),
(646,594,ls),
(682,659,o),
(699,672,o),
(738,672,cs),
(757,672,l),
(766,714,l),
(519,714,l),
(511,672,l),
(534,672,ls),
(572,672,o),
(590,661,o),
(590,636,cs),
(590,622,o),
(584,604,o),
(571,580,cs),
(393,262,ls),
(358,200,o),
(333,146,o),
(312,98,c),
(312,146,o),
(309,203,o),
(302,262,cs),
(262,587,ls),
(261,596,o),
(260,610,o),
(260,621,cs),
(260,653,o),
(289,672,o),
(332,672,cs),
(355,672,l),
(363,714,l),
(91,714,l),
(82,672,l),
(95,672,ls),
(134,672,o),
(149,661,o),
(155,619,cs)
);
}
);
width = 675;
}
);
unicode = 119881;
}
{
color = 4;
glyphname = "jitalic-math";
kernLeft = j;
kernRight = j;
layers = (
{
anchors = (
{
name = bottom;
pos = (-82,-240);
},
{
name = math.ta;
pos = (251,811);
},
{
name = top;
pos = (251,761);
},
{
name = topright;
pos = (376,761);
}
);
layerId = master01;
shapes = (
{
closed = 1;
nodes = (
(26,-240,o),
(98,-186,o),
(136,-8,cs),
(251,536,l),
(72,536,l),
(63,494,l),
(76,494,ls),
(113,494,o),
(137,488,o),
(137,452,cs),
(137,445,o),
(136,436,o),
(134,426,cs),
(42,-8,ls),
(14,-141,o),
(-20,-193,o),
(-85,-193,cs),
(-100,-193,o),
(-120,-189,o),
(-131,-186,c),
(-140,-232,l),
(-127,-236,o),
(-102,-240,o),
(-82,-240,cs)
);
},
{
closed = 1;
nodes = (
(254,636,o),
(285,654,o),
(285,706,cs),
(285,743,o),
(261,761,o),
(229,761,cs),
(193,761,o),
(169,733,o),
(169,691,cs),
(169,654,o),
(192,636,o),
(225,636,cs)
);
}
);
width = 291;
}
);
unicode = 119895;
}
{
color = 4;
glyphname = "witalic-math";
kernLeft = w;
kernRight = w;
layers = (
{
anchors = (
{
name = bottom;
pos = (353,0);
},
{
name = math.ta;
pos = (467,586);
},
{
name = top;
pos = (467,536);
},
{
name = topright;
pos = (856,536);
}
);
layerId = master01;
shapes = (
{
closed = 1;
nodes = (
(548,1,l),
(697,202,o),
(799,352,o),
(799,471,cs),
(799,522,o),
(779,546,o),
(746,546,cs),
(713,546,o),
(691,519,o),
(687,487,c),
(714,478,o),
(730,460,o),
(730,427,cs),
(730,340,o),
(632,183,o),
(542,73,c),
(535,73,l),
(535,156,o),
(523,431,o),
(514,531,c),
(431,527,l),
(369,379,o),
(272,189,o),
(209,80,c),
(205,80,l),
(205,215,o),
(204,395,o),
(201,536,c),
(51,536,l),
(37,494,l),
(47,494,ls),
(86,494,o),
(112,483,o),
(113,422,cs),
(120,-9,l),
(223,3,l),
(252,54,o),
(414,367,o),
(434,423,c),
(436,344,o),
(448,113,o),
(449,-10,c)
);
}
);
width = 819;
}
);
unicode = 119908;
}
{
color = 4;
glyphname = "xitalic-math";
kernLeft = x;
layers = (
{
anchors = (
{
name = bottom;
pos = (216,0);
},
{
name = math.ic;
pos = (579,250);
},
{
name = math.ta;
pos = (330,586);
},
{
name = top;
pos = (330,536);
},
{
name = topright;
pos = (583,536);
}
);
layerId = master01;
shapes = (
{
closed = 1;
nodes = (
(107,0,l),
(257,220,l),
(338,0,l),
(472,0,l),
(480,42,l),
(467,42,ls),
(428,42,o),
(416,56,o),
(395,114,cs),
(326,287,l),
(431,422,ls),
(478,480,o),
(496,494,o),
(535,494,cs),
(548,494,l),
(559,536,l),
(436,536,l),
(303,334,l),
(227,536,l),
(94,536,l),
(86,494,l),
(99,494,ls),
(138,494,o),
(147,479,o),
(171,422,cs),
(236,266,l),
(108,111,ls),
(61,53,o),
(42,42,o),
(4,42,cs),
(-9,42,l),
(-20,0,l)
);
}
);
width = 546;
}
);
unicode = 119909;
}
{
color = 4;
glyphname = "Abolditalic-math";
kernLeft = A;
kernRight = A;
layers = (
{
anchors = (
{
name = bottom;
pos = (320,0);
},
{
name = math.ta;
pos = (472,764);
},
{
name = top;
pos = (472,714);
},
{
name = topright;
pos = (828,714);
}
);
layerId = master01;
shapes = (
{
closed = 1;
nodes = (
(211,0,l),
(222,53,l),
(202,53,ls),
(164,53,o),
(146,64,o),
(146,89,cs),
(146,103,o),
(152,121,o),
(165,145,cs),
(347,473,ls),
(382,535,o),
(399,565,o),
(419,613,c),
(420,565,o),
(426,523,o),
(432,464,cs),
(472,127,ls),
(473,117,o),
(474,106,o),
(474,95,cs),
(474,66,o),
(447,53,o),
(404,53,cs),
(381,53,l),
(370,0,l),
(700,0,l),
(711,53,l),
(693,53,ls),
(652,53,o),
(638,83,o),
(632,125,cs),
(548,714,l),
(411,714,l),
(72,131,ls),
(35,68,o),
(20,53,o),
(-17,53,cs),
(-38,53,l),
(-49,0,l)
);
},
{
closed = 1;
nodes = (
(543,235,l),
(543,296,l),
(193,296,l),
(193,235,l)
);
}
);
width = 753;
}
);
unicode = 119912;
}
{
color = 4;
glyphname = "Ibolditalic-math";
kernLeft = B;
kernRight = H;
layers = (
{
anchors = (
{
name = bottom;
pos = (144,0);
},
{
name = math.ic;
pos = (492,250);
},
{
name = math.ta;
pos = (296,764);
},
{
name = top;
pos = (296,714);
},
{
name = topright;
pos = (476,714);
}
);
layerId = master01;
shapes = (
{
closed = 1;
nodes = (
(321,0,l),
(332,53,l),
(319,53,ls),
(277,53,o),
(246,58,o),
(246,87,cs),
(246,92,o),
(249,103,o),
(250,110,cs),
(353,600,ls),
(364,653,o),
(404,661,o),
(448,661,cs),
(461,661,l),
(472,714,l),
(127,714,l),
(116,661,l),
(129,661,ls),
(171,661,o),
(201,656,o),
(201,627,cs),
(201,622,o),
(200,610,o),
(197,597,cs),
(93,113,ls),
(82,61,o),
(43,53,o),
(1,53,cs),
(-12,53,l),
(-23,0,l)
);
}
);
width = 401;
}
);
unicode = 119920;
}
{
color = 4;
glyphname = "Lbolditalic-math";
kernLeft = B;
kernRight = L;
layers = (
{
anchors = (
{
name = bottom;
pos = (270,0);
},
{
name = center;
pos = (365,357);
},
{
name = math.ta;
pos = (422,764);
},
{
name = top;
pos = (422,714);
},
{
name = topright;
pos = (729,714);
}
);
layerId = master01;
shapes = (
{
closed = 1;
nodes = (
(563,0,l),
(618,223,l),
(554,223,l),
(536,170,ls),
(511,97,o),
(480,61,o),
(407,61,cs),
(240,61,l),
(353,600,ls),
(364,653,o),
(404,661,o),
(448,661,cs),
(461,661,l),
(472,714,l),
(127,714,l),
(116,661,l),
(129,661,ls),
(171,661,o),
(201,656,o),
(201,627,cs),
(201,622,o),
(199,611,o),
(195,593,cs),
(93,113,ls),
(82,61,o),
(43,53,o),
(1,53,cs),
(-12,53,l),
(-23,0,l)
);
}
);
width = 654;
}
);
unicode = 119923;
}
{
color = 4;
glyphname = "Nbolditalic-math";
kernLeft = B;
kernRight = N;
layers = (
{
anchors = (
{
name = bottom;
pos = (337,0);
},
{
name = math.ic;
pos = (889,250);
},
{
name = math.ta;
pos = (489,764);
},
{
name = top;
pos = (489,714);
},
{
name = topright;
pos = (863,714);
}
);
layerId = master01;
shapes = (
{
closed = 1;
nodes = (
(229,0,l),
(240,53,l),
(237,53,ls),
(195,53,o),
(164,58,o),
(164,87,cs),
(164,92,o),
(166,103,o),
(169,118,cs),
(263,566,l),
(534,0,l),
(626,0,l),
(753,601,ls),
(764,653,o),
(803,661,o),
(845,661,cs),
(858,661,l),
(869,714,l),
(617,714,l),
(606,661,l),
(609,661,ls),
(651,661,o),
(682,656,o),
(682,627,cs),
(682,622,o),
(680,611,o),
(677,596,cs),
(593,201,l),
(349,714,l),
(127,714,l),
(116,661,l),
(129,661,ls),
(171,661,o),
(201,656,o),
(201,627,cs),
(201,622,o),
(199,611,o),
(195,593,cs),
(93,113,ls),
(82,61,o),
(43,53,o),
(1,53,cs),
(-12,53,l),
(-23,0,l)
);
}
);
width = 788;
}
);
unicode = 119925;
}
{
color = 4;
glyphname = "Qbolditalic-math";
kernLeft = O;
kernRight = O;
layers = (
{
anchors = (
{
name = bottom;
pos = (286,-240);
},
{
name = math.ta;
pos = (489,764);
},
{
name = top;
pos = (489,714);
},
{
name = topright;
pos = (862,714);
}
);
layerId = master01;
shapes = (
{
closed = 1;
nodes = (
(521,-240,o),
(547,-235,o),
(574,-225,c),
(567,-179,l),
(562,-180,o),
(552,-182,o),
(538,-182,cs),
(484,-182,o),
(440,-147,o),
(436,0,c),
(657,53,o),
(764,287,o),
(764,450,cs),
(764,641,o),
(635,725,o),
(488,725,cs),
(206,725,o),
(62,458,o),
(62,266,cs),
(62,114,o),
(147,22,o),
(268,-3,c),
(272,-172,o),
(362,-240,o),
(482,-240,cs)
);
},
{
closed = 1;
nodes = (
(285,55,o),
(225,111,o),
(225,242,cs),
(225,399,o),
(301,660,o),
(467,660,cs),
(545,660,o),
(602,603,o),
(602,473,cs),
(602,316,o),
(527,55,o),
(361,55,cs)
);
}
);
width = 787;
}
);
unicode = 119928;
}
{
color = 4;
glyphname = "gbolditalic-math";
kernLeft = o;
kernRight = g;
layers = (
{
anchors = (
{
name = bottom;
pos = (182,-240);
},
{
name = math.ic;
pos = (647,250);
},
{
name = math.ta;
pos = (347,586);
},
{
name = top;
pos = (347,536);
},
{
name = topright;
pos = (617,536);
}
);
layerId = master01;
shapes = (
{
closed = 1;
nodes = (
(368,-240,o),
(481,-159,o),
(481,-38,cs),
(481,47,o),
(424,89,o),
(326,98,cs),
(214,109,ls),
(183,112,o),
(160,117,o),
(160,139,cs),
(160,160,o),
(184,178,o),
(215,192,c),
(226,190,o),
(254,189,o),
(266,189,cs),
(433,189,o),
(507,316,o),
(507,403,cs),
(507,433,o),
(496,464,o),
(482,483,c),
(495,494,o),
(510,501,o),
(528,501,cs),
(551,501,o),
(563,485,o),
(563,458,c),
(612,458,o),
(627,496,o),
(627,529,cs),
(627,560,o),
(609,582,o),
(568,582,cs),
(519,582,o),
(482,552,o),
(452,514,c),
(423,536,o),
(383,546,o),
(339,546,cs),
(170,546,o),
(89,422,o),
(89,329,cs),
(89,272,o),
(115,230,o),
(159,209,c),
(84,168,o),
(51,139,o),
(51,97,cs),
(51,62,o),
(76,29,o),
(102,15,c),
(20,1,o),
(-58,-42,o),
(-58,-113,cs),
(-58,-190,o),
(8,-240,o),
(170,-240,cs)
);
},
{
closed = 1;
nodes = (
(87,-180,o),
(61,-147,o),
(61,-106,cs),
(61,-60,o),
(110,-22,o),
(168,-14,c),
(257,-22,ls),
(326,-28,o),
(352,-47,o),
(352,-85,cs),
(352,-135,o),
(302,-180,o),
(185,-180,cs)
);
},
{
closed = 1;
nodes = (
(235,250,o),
(215,270,o),
(215,319,cs),
(215,380,o),
(251,484,o),
(320,484,cs),
(355,484,o),
(374,463,o),
(374,416,cs),
(374,358,o),
(340,250,o),
(269,250,cs)
);
}
);
width = 580;
}
);
unicode = 119944;
}
{
color = 4;
glyphname = "lbolditalic-math";
kernLeft = l;
kernRight = l;
layers = (
{
anchors = (
{
name = bottom;
pos = (120,0);
},
{
name = center;
pos = (234,268);
},
{
name = math.ta;
pos = (282,810);
},
{
name = top;
pos = (282,760);
},
{
name = topright;
pos = (439,760);
}
);
layerId = master01;
shapes = (
{
closed = 1;
nodes = (
(242,-10,o),
(290,25,o),
(322,59,c),
(298,93,l),
(275,78,o),
(260,70,o),
(239,70,cs),
(217,70,o),
(204,86,o),
(204,115,cs),
(204,143,o),
(210,175,o),
(218,211,cs),
(337,760,l),
(95,760,l),
(86,707,l),
(107,707,ls),
(145,707,o),
(160,701,o),
(160,665,cs),
(160,660,o),
(157,639,o),
(153,622,cs),
(66,212,ls),
(55,161,o),
(50,121,o),
(50,93,cs),
(50,29,o),
(93,-10,o),
(169,-10,cs)
);
}
);
width = 354;
}
);
unicode = 119949;
}
{
color = 4;
glyphname = "Ascript-math";
layers = (
{
anchors = (
{
name = math.ic;
pos = (1037,250);
},
{
name = math.ta;
pos = (999,764);
}
);
layerId = master01;
shapes = (
{
closed = 1;
nodes = (
(192,-22,o),
(273,35,o),
(378,143,c),
(429,98,o),
(482,66,o),
(538,49,c),
(516,-5,l),
(662,14,l),
(671,34,l),
(749,43,o),
(799,78,o),
(920,207,cs),
(973,264,o),
(991,276,o),
(1007,286,cs),
(1012,289,o),
(1017,292,o),
(1017,297,cs),
(1017,300,o),
(1015,303,o),
(1010,303,cs),
(999,303,o),
(972,288,o),
(906,219,cs),
(769,74,o),
(737,63,o),
(681,56,c),
(782,297,o),
(881,501,o),
(977,667,cs),
(995,699,ls),
(999,707,o),
(1002,714,o),
(1002,716,cs),
(1002,721,o),
(999,722,o),
(997,722,cs),
(962,722,o),
(901,686,o),
(811,615,cs),
(723,545,o),
(628,454,o),
(528,342,c),
(493,379,o),
(456,398,o),
(416,398,cs),
(353,398,o),
(310,349,o),
(310,286,cs),
(310,243,o),
(327,201,o),
(364,157,c),
(260,50,o),
(175,-5,o),
(102,-5,cs),
(54,-5,o),
(25,18,o),
(25,44,cs),
(25,63,o),
(37,75,o),
(61,80,cs),
(108,89,o),
(140,105,o),
(140,144,cs),
(140,175,o),
(116,199,o),
(76,199,cs),
(19,199,o),
(-20,153,o),
(-20,91,cs),
(-20,22,o),
(23,-22,o),
(99,-22,cs)
);
},
{
closed = 1;
nodes = (
(497,79,o),
(445,109,o),
(390,158,c),
(528,311,l),
(554,276,o),
(566,234,o),
(566,184,cs),
(566,147,o),
(559,109,o),
(546,68,c)
);
},
{
closed = 1;
nodes = (
(362,192,o),
(353,213,o),
(353,238,cs),
(353,295,o),
(407,350,o),
(460,350,cs),
(480,350,o),
(498,342,o),
(514,325,c),
(470,274,o),
(425,223,o),
(378,175,c)
);
},
{
closed = 1;
nodes = (
(585,146,o),
(587,167,o),
(587,187,cs),
(587,231,o),
(573,277,o),
(541,326,c),
(713,513,o),
(839,640,o),
(954,689,c),
(814,495,o),
(690,307,o),
(583,126,c)
);
}
);
width = 997;
}
);
unicode = 119964;
}
{
color = 4;
glyphname = "Cscript-math";
layers = (
{
anchors = (
{
name = math.ta;
pos = (576,764);
}
);
layerId = master01;
shapes = (
{
closed = 1;
nodes = (
(503,-10,o),
(639,85,o),
(639,199,cs),
(639,259,o),
(600,293,o),
(541,293,cs),
(456,293,o),
(388,221,o),
(388,126,cs),
(388,113,o),
(392,106,o),
(399,106,cs),
(407,106,o),
(411,122,o),
(415,139,cs),
(429,201,o),
(466,275,o),
(549,275,cs),
(589,275,o),
(622,248,o),
(622,199,cs),
(622,98,o),
(492,6,o),
(377,6,cs),
(303,6,o),
(266,44,o),
(266,113,cs),
(266,158,o),
(286,214,o),
(329,283,c),
(562,318,o),
(812,530,o),
(812,643,cs),
(812,689,o),
(779,718,o),
(721,718,cs),
(579,718,o),
(290,488,o),
(186,286,c),
(116,293,o),
(81,326,o),
(81,384,cs),
(81,422,o),
(99,468,o),
(140,522,cs),
(211,614,o),
(322,691,o),
(446,698,cs),
(464,699,o),
(472,700,o),
(472,706,cs),
(472,714,o),
(455,715,o),
(421,715,cs),
(360,715,o),
(281,689,o),
(226,660,cs),
(115,601,o),
(40,511,o),
(40,420,cs),
(40,334,o),
(89,281,o),
(179,272,c),
(165,234,o),
(159,203,o),
(159,178,cs),
(159,76,o),
(235,-10,o),
(375,-10,cs)
);
},
{
closed = 1;
nodes = (
(410,415,o),
(481,506,o),
(553,578,cs),
(624,649,o),
(684,702,o),
(724,702,cs),
(750,702,o),
(762,685,o),
(762,663,cs),
(762,619,o),
(718,542,o),
(620,451,cs),
(528,366,o),
(436,314,o),
(340,301,c)
);
}
);
width = 832;
}
);
unicode = 119966;
}
{
color = 4;
glyphname = "Wscript-math";
layers = (
{
anchors = (
{
name = math.ic;
pos = (1175,250);
},
{
name = math.ta;
pos = (674,764);
}
);
layerId = master01;
shapes = (
{
closed = 1;
nodes = (
(862,574,l),
(813,503,ls),
(693,330,o),
(645,221,o),
(645,126,cs),
(645,55,o),
(668,-2,o),
(701,-2,cs),
(727,-2,o),
(749,35,o),
(810,140,cs),
(900,294,o),
(997,429,o),
(1135,544,cs),
(1153,559,o),
(1155,561,o),
(1155,564,cs),
(1155,567,o),
(1153,569,o),
(1150,569,cs),
(1142,569,o),
(1118,554,o),
(1078,519,cs),
(941,398,o),
(813,208,o),
(730,56,c),
(727,57,l),
(731,93,o),
(750,161,o),
(781,243,cs),
(828,367,o),
(906,548,o),
(951,641,cs),
(964,668,o),
(976,698,o),
(976,705,cs),
(976,710,o),
(973,713,o),
(967,713,cs),
(961,713,o),
(931,689,o),
(905,657,cs),
(870,615,o),
(721,437,o),
(621,338,cs),
(493,211,o),
(362,116,o),
(254,60,c),
(252,64,l),
(395,176,o),
(488,270,o),
(542,340,cs),
(593,406,o),
(626,479,o),
(626,539,cs),
(626,648,o),
(556,722,o),
(450,722,cs),
(282,722,o),
(35,511,o),
(35,355,cs),
(35,287,o),
(80,247,o),
(150,247,cs),
(267,247,o),
(378,361,o),
(378,497,cs),
(378,564,o),
(360,610,o),
(349,610,cs),
(345,610,o),
(343,606,o),
(343,600,cs),
(343,590,o),
(344,581,o),
(344,570,cs),
(344,524,o),
(326,476,o),
(298,427,cs),
(242,328,o),
(167,271,o),
(124,271,cs),
(83,271,o),
(53,304,o),
(53,355,cs),
(53,501,o),
(301,701,o),
(432,701,cs),
(492,701,o),
(525,665,o),
(525,603,cs),
(525,446,o),
(378,245,o),
(240,102,cs),
(182,42,o),
(151,9,o),
(151,3,cs),
(151,-4,o),
(156,-8,o),
(167,-8,cs),
(182,-8,o),
(246,27,o),
(344,90,cs),
(543,218,o),
(681,365,o),
(793,499,cs),
(817,528,o),
(840,555,o),
(859,576,c)
);
}
);
width = 1150;
}
);
unicode = 119986;
}
{
color = 4;
glyphname = "cscript-math";
layers = (
{
anchors = (
{
name = math.ta;
pos = (321,358);
}
);
layerId = master01;
shapes = (
{
closed = 1;
nodes = (
(297,105,l),
(251,54,o),
(199,9,o),
(154,9,cs),
(134,9,o),
(124,18,o),
(124,35,cs),
(124,45,o),
(132,68,o),
(147,104,cs),
(177,176,o),
(231,252,o),
(259,271,cs),
(272,280,o),
(284,286,o),
(293,286,cs),
(301,286,o),
(307,284,o),
(314,279,c),
(283,275,o),
(264,255,o),
(264,234,cs),
(264,214,o),
(279,199,o),
(302,199,cs),
(327,199,o),
(348,220,o),
(348,249,cs),
(348,289,o),
(324,308,o),
(277,308,cs),
(187,308,o),
(42,205,o),
(42,95,cs),
(42,33,o),
(80,-7,o),
(142,-7,cs),
(206,-7,o),
(250,32,o),
(307,92,c)
);
}
);
width = 367;
}
);
unicode = 119992;
}
{
glyphname = "vscript-math";
layers = (
{
anchors = (
{
name = math.ta;
pos = (339,357);
}
);
layerId = master01;
shapes = (
{
closed = 1;
nodes = (
(215,-6,o),
(266,23,o),
(321,81,c),
(328,80,o),
(335,79,o),
(342,79,cs),
(372,80,o),
(396,91,o),
(418,108,c),
(408,121,l),
(393,108,o),
(369,96,o),
(345,96,cs),
(336,96,l),
(392,160,o),
(421,207,o),
(421,256,cs),
(421,290,o),
(409,306,o),
(384,306,cs),
(340,306,o),
(279,224,o),
(279,148,cs),
(279,125,o),
(288,105,o),
(305,88,c),
(256,36,o),
(209,10,o),
(164,10,cs),
(152,10,o),
(146,14,o),
(146,22,cs),
(146,34,o),
(156,55,o),
(177,85,cs),
(218,145,o),
(250,201,o),
(250,246,cs),
(250,285,o),
(233,307,o),
(206,307,cs),
(193,307,o),
(181,302,o),
(162,286,cs),
(143,270,o),
(94,215,o),
(70,182,c),
(84,169,l),
(114,209,o),
(141,238,o),
(147,238,cs),
(151,238,o),
(153,235,o),
(153,231,cs),
(153,222,o),
(141,200,o),
(117,167,cs),
(93,133,o),
(81,102,o),
(81,74,cs),
(81,26,o),
(113,-6,o),
(167,-6,cs)
);
},
{
closed = 1;
nodes = (
(305,115,o),
(299,130,o),
(299,147,cs),
(299,190,o),
(341,237,o),
(377,237,cs),
(388,237,o),
(394,232,o),
(394,222,cs),
(394,201,o),
(368,161,o),
(317,102,c)
);
}
);
width = 466;
}
);
unicode = 120011;
}
{
color = 4;
glyphname = "Pboldscript-math";
layers = (
{
anchors = (
{
name = math.ta;
pos = (871,764);
}
);
layerId = master01;
shapes = (
{
closed = 1;
nodes = (
(401,-10,o),
(553,109,o),
(620,305,c),
(808,326,o),
(938,423,o),
(938,531,cs),
(938,582,o),
(912,628,o),
(850,665,c),
(866,673,o),
(890,681,o),
(912,684,cs),
(932,687,o),
(940,689,o),
(940,697,cs),
(940,704,o),
(935,708,o),
(926,708,cs),
(893,708,o),
(858,696,o),
(819,682,c),
(764,707,o),
(705,722,o),
(642,722,cs),
(407,722,o),
(147,578,o),
(147,416,cs),
(147,350,o),
(199,309,o),
(287,309,cs),
(420,309,o),
(525,416,o),
(525,570,cs),
(525,613,o),
(520,631,o),
(509,631,cs),
(498,631,o),
(494,618,o),
(490,598,cs),
(484,568,o),
(472,541,o),
(451,501,cs),
(408,418,o),
(319,346,o),
(254,346,cs),
(206,346,o),
(175,370,o),
(175,419,cs),
(175,565,o),
(424,696,o),
(642,696,cs),
(700,696,o),
(748,684,o),
(783,665,c),
(661,609,o),
(557,495,o),
(479,320,c),
(442,314,o),
(398,304,o),
(367,293,cs),
(344,285,o),
(335,279,o),
(335,272,cs),
(335,267,o),
(338,263,o),
(344,263,cs),
(351,263,o),
(365,267,o),
(382,272,cs),
(403,278,o),
(437,285,o),
(465,288,c),
(382,102,o),
(300,16,o),
(202,16,cs),
(135,16,o),
(99,47,o),
(99,79,cs),
(99,94,o),
(114,102,o),
(133,104,cs),
(169,108,o),
(194,128,o),
(194,164,cs),
(194,197,o),
(165,224,o),
(123,224,cs),
(64,224,o),
(25,172,o),
(25,120,cs),
(25,44,o),
(95,-10,o),
(208,-10,cs)
);
},
{
closed = 1;
nodes = (
(688,508,o),
(740,606,o),
(806,646,c),
(820,631,o),
(825,608,o),
(825,578,cs),
(825,466,o),
(733,349,o),
(629,335,c)
);
}
);
width = 965;
}
);
unicode = 120031;
}
{
color = 4;
glyphname = "Rboldscript-math";
layers = (
{
anchors = (
{
name = math.ta;
pos = (634,764);
}
);
layerId = master01;
shapes = (
{
closed = 1;
nodes = (
(340,-10,o),
(455,61,o),
(528,209,cs),
(557,268,o),
(578,344,o),
(601,434,cs),
(636,569,o),
(681,629,o),
(748,668,c),
(775,650,o),
(786,610,o),
(786,564,cs),
(786,444,o),
(691,375,o),
(667,375,cs),
(663,375,o),
(657,375,o),
(652,379,cs),
(647,382,o),
(639,385,o),
(630,385,cs),
(609,385,o),
(600,377,o),
(600,363,cs),
(600,351,o),
(612,345,o),
(624,345,cs),
(632,345,o),
(638,346,o),
(647,348,c),
(651,344,o),
(653,337,o),
(653,327,cs),
(653,305,o),
(641,274,o),
(628,248,cs),
(601,195,o),
(567,128,o),
(567,80,cs),
(567,13,o),
(598,-10,o),
(653,-10,cs),
(723,-10,o),
(787,52,o),
(846,147,cs),
(851,155,o),
(854,161,o),
(854,166,cs),
(854,172,o),
(850,176,o),
(843,176,cs),
(838,176,o),
(831,172,o),
(821,158,cs),
(769,85,o),
(728,44,o),
(702,44,cs),
(691,44,o),
(688,52,o),
(688,63,cs),
(688,72,o),
(691,85,o),
(695,98,cs),
(717,163,o),
(734,216,o),
(734,256,cs),
(734,298,o),
(716,331,o),
(688,353,c),
(835,393,o),
(905,465,o),
(905,549,cs),
(905,607,o),
(863,662,o),
(789,688,c),
(800,692,o),
(809,695,o),
(823,697,cs),
(841,700,o),
(845,705,o),
(845,712,cs),
(845,719,o),
(839,724,o),
(823,724,cs),
(801,724,o),
(773,715,o),
(749,705,c),
(720,715,o),
(672,724,o),
(611,724,cs),
(331,724,o),
(118,537,o),
(118,394,cs),
(118,325,o),
(162,283,o),
(236,283,cs),
(354,283,o),
(452,388,o),
(452,531,cs),
(452,563,o),
(443,616,o),
(428,616,cs),
(416,616,o),
(413,607,o),
(412,583,cs),
(409,498,o),
(313,319,o),
(217,319,cs),
(176,319,o),
(146,347,o),
(146,395,cs),
(146,530,o),
(361,698,o),
(612,698,cs),
(656,698,o),
(690,692,o),
(710,685,c),
(571,609,o),
(484,444,o),
(422,313,cs),
(331,119,o),
(277,16,o),
(186,16,cs),
(134,16,o),
(93,47,o),
(93,78,cs),
(93,100,o),
(102,111,o),
(131,115,cs),
(164,120,o),
(190,136,o),
(190,171,cs),
(190,206,o),
(162,231,o),
(122,231,cs),
(69,231,o),
(25,185,o),
(25,125,cs),
(25,44,o),
(88,-10,o),
(199,-10,cs)
);
}
);
width = 935;
}
);
unicode = 120033;
}
{
color = 4;
glyphname = "Xboldscript-math";
layers = (
{
anchors = (
{
name = math.ta;
pos = (746,764);
}
);
layerId = master01;
shapes = (
{
closed = 1;
nodes = (
(296,-8,o),
(410,59,o),
(543,203,c),
(545,201,l),
(521,147,o),
(507,102,o),
(507,58,cs),
(507,20,o),
(530,-2,o),
(561,-2,cs),
(603,-2,o),
(641,35,o),
(690,90,cs),
(756,164,o),
(822,236,o),
(874,283,cs),
(889,296,o),
(890,299,o),
(890,304,cs),
(890,307,o),
(888,310,o),
(881,310,cs),
(865,310,o),
(818,269,o),
(730,170,cs),
(648,78,o),
(600,25,o),
(566,25,cs),
(548,25,o),
(539,42,o),
(539,64,cs),
(539,172,o),
(767,589,o),
(835,621,c),
(825,609,o),
(825,598,o),
(825,589,cs),
(825,561,o),
(846,533,o),
(888,533,cs),
(925,533,o),
(960,561,o),
(960,601,cs),
(960,638,o),
(932,665,o),
(888,665,cs),
(822,665,o),
(773,619,o),
(696,484,c),
(694,486,l),
(698,501,o),
(701,528,o),
(701,567,cs),
(701,661,o),
(632,722,o),
(522,722,cs),
(347,722,o),
(133,499,o),
(133,366,cs),
(133,293,o),
(180,248,o),
(260,248,cs),
(382,248,o),
(495,367,o),
(495,512,cs),
(495,541,o),
(490,564,o),
(480,583,cs),
(470,603,o),
(461,611,o),
(453,611,cs),
(446,611,o),
(444,606,o),
(444,591,cs),
(444,547,o),
(431,497,o),
(407,444,cs),
(359,337,o),
(287,282,o),
(235,282,cs),
(197,282,o),
(161,314,o),
(161,360,cs),
(161,489,o),
(367,694,o),
(496,694,cs),
(554,694,o),
(584,661,o),
(584,597,cs),
(584,544,o),
(563,468,o),
(518,375,cs),
(427,187,o),
(280,20,o),
(175,20,cs),
(100,20,o),
(58,54,o),
(58,97,cs),
(58,107,o),
(62,112,o),
(69,112,cs),
(74,112,o),
(81,108,o),
(86,104,cs),
(106,89,o),
(119,81,o),
(137,81,cs),
(165,81,o),
(194,102,o),
(194,137,cs),
(194,169,o),
(170,198,o),
(120,198,cs),
(67,198,o),
(25,153,o),
(25,106,cs),
(25,37,o),
(79,-8,o),
(176,-8,cs)
);
}
);
width = 985;
}
);
unicode = 120039;
}
{
glyphname = "hboldscript-math";
layers = (
{
anchors = (
{
name = math.ta;
pos = (326,586);
}
);
layerId = master01;
shapes = (
{
closed = 1;
nodes = (
(490,112,l),
(432,57,o),
(396,31,o),
(386,31,cs),
(382,31,o),
(379,34,o),
(379,41,cs),
(379,51,o),
(389,70,o),
(411,96,cs),
(455,148,o),
(485,185,o),
(485,224,cs),
(485,277,o),
(457,308,o),
(414,308,cs),
(369,308,o),
(313,271,o),
(244,196,c),
(450,586,l),
(329,573,l),
(236,406,ls),
(179,303,o),
(130,248,o),
(64,189,c),
(83,169,l),
(104,187,o),
(129,212,o),
(151,238,c),
(21,-7,l),
(148,1,l),
(219,110,ls),
(257,169,o),
(299,213,o),
(331,238,cs),
(364,263,o),
(388,275,o),
(403,275,cs),
(406,275,o),
(408,273,o),
(408,270,cs),
(408,268,o),
(407,265,o),
(404,261,cs),
(347,196,ls),
(318,163,o),
(302,138,o),
(296,124,cs),
(289,109,o),
(286,95,o),
(286,78,cs),
(286,26,o),
(317,-6,o),
(358,-6,cs),
(385,-6,o),
(414,6,o),
(444,31,cs),
(459,44,o),
(482,64,o),
(510,92,c)
);
}
);
width = 567;
}
);
unicode = 120049;
}
{
glyphname = "iboldscript-math";
layers = (
{
anchors = (
{
name = math.ta;
pos = (307,511);
}
);
layerId = master01;
shapes = (
{
closed = 1;
nodes = (
(270,112,l),
(211,52,o),
(178,31,o),
(162,31,cs),
(158,31,o),
(157,34,o),
(157,40,cs),
(157,46,o),
(170,74,o),
(198,124,cs),
(300,308,l),
(160,299,l),
(126,259,o),
(72,203,o),
(53,189,c),
(73,169,l),
(92,185,o),
(112,205,o),
(125,220,c),
(75,136,o),
(52,85,o),
(52,61,cs),
(52,16,o),
(77,-7,o),
(127,-7,cs),
(150,-7,o),
(172,-1,o),
(192,10,cs),
(212,21,o),
(246,48,o),
(289,92,c)
);
},
{
closed = 1;
nodes = (
(307,362,o),
(336,387,o),
(336,418,cs),
(336,443,o),
(314,461,o),
(287,461,cs),
(252,461,o),
(223,436,o),
(223,406,cs),
(223,378,o),
(243,362,o),
(274,362,cs)
);
}
);
width = 344;
}
);
unicode = 120050;
}
{
color = 4;
glyphname = "K-fraktur";
layers = (
{
anchors = (
{
name = math.ta;
pos = (369,764);
}
);
layerId = master01;
shapes = (
{
closed = 1;
nodes = (
(48,-13,o),
(59,-8,o),
(71,-8,cs),
(85,-8,o),
(102,-11,o),
(120,-16,cs),
(138,-21,o),
(159,-23,o),
(182,-23,cs),
(270,-23,o),
(323,35,o),
(323,146,cs),
(323,190,o),
(314,235,o),
(297,279,c),
(327,303,o),
(347,315,o),
(358,315,cs),
(374,315,o),
(392,291,o),
(410,238,cs),
(440,154,ls),
(452,121,o),
(466,86,o),
(480,58,cs),
(493,31,o),
(518,-21,o),
(556,-21,cs),
(559,-21,o),
(562,-21,o),
(566,-20,c),
(646,49,l),
(633,65,l),
(619,57,o),
(607,53,o),
(597,53,cs),
(580,53,o),
(567,65,o),
(555,89,cs),
(543,113,o),
(528,152,o),
(508,208,cs),
(488,263,o),
(473,302,o),
(463,325,cs),
(454,347,o),
(441,359,o),
(427,363,c),
(485,402,o),
(526,429,o),
(550,443,c),
(550,464,l),
(544,465,o),
(531,476,o),
(509,499,cs),
(487,521,o),
(464,556,o),
(439,602,c),
(419,602,l),
(408,586,o),
(388,575,o),
(368,567,cs),
(302,541,o),
(247,515,o),
(247,455,cs),
(247,444,o),
(249,430,o),
(254,413,cs),
(284,302,l),
(243,370,o),
(214,420,o),
(195,455,cs),
(177,488,o),
(167,514,o),
(167,530,cs),
(167,621,o),
(274,703,o),
(395,703,cs),
(515,703,o),
(613,619,o),
(613,527,cs),
(613,516,o),
(611,504,o),
(609,493,c),
(614,488,o),
(620,485,o),
(628,485,cs),
(650,485,o),
(661,496,o),
(661,519,cs),
(661,624,o),
(543,727,o),
(394,727,cs),
(232,727,o),
(84,581,o),
(84,494,cs),
(84,476,o),
(102,441,o),
(136,387,cs),
(180,318,ls),
(235,231,o),
(258,154,o),
(258,92,cs),
(258,31,o),
(232,0,o),
(180,0,cs),
(137,0,o),
(113,24,o),
(113,63,cs),
(113,76,o),
(117,91,o),
(124,107,c),
(106,119,l),
(95,108,o),
(79,102,o),
(56,102,cs),
(42,102,o),
(30,104,o),
(19,110,c),
(4,91,l),
(18,75,o),
(25,52,o),
(25,21,cs),
(25,12,o),
(23,1,o),
(19,-9,c),
(36,-23,l)
);
},
{
closed = 1;
nodes = (
(273,424,ls),
(271,432,o),
(269,441,o),
(269,451,cs),
(269,490,o),
(326,529,o),
(363,529,cs),
(394,529,o),
(459,439,o),
(459,424,cs),
(459,417,o),
(453,409,o),
(442,402,cs),
(304,314,l)
);
}
);
width = 755;
}
);
unicode = 120078;
}
{
color = 4;
glyphname = "W-fraktur";
layers = (
{
anchors = (
{
name = math.ta;
pos = (457,764);
}
);
layerId = master01;
shapes = (
{
closed = 1;
nodes = (
(446,-21,o),
(513,32,o),
(568,77,c),
(676,10,o),
(734,-21,o),
(761,-21,cs),
(777,-21,o),
(811,-10,o),
(854,16,cs),
(924,58,o),
(1003,126,o),
(1003,192,cs),
(1003,246,o),
(952,293,o),
(907,330,cs),
(867,363,o),
(853,389,o),
(853,411,cs),
(853,458,o),
(891,481,o),
(972,492,c),
(972,510,l),
(961,510,o),
(956,518,o),
(953,542,cs),
(950,569,ls),
(940,661,o),
(883,723,o),
(771,723,cs),
(693,723,o),
(633,691,o),
(593,627,c),
(587,702,o),
(546,747,o),
(484,747,cs),
(433,747,o),
(395,717,o),
(379,662,c),
(346,702,o),
(300,721,o),
(243,721,cs),
(127,721,o),
(38,616,o),
(38,480,cs),
(38,369,o),
(106,296,o),
(220,281,c),
(225,304,l),
(124,316,o),
(62,382,o),
(62,473,cs),
(62,575,o),
(121,645,o),
(220,645,cs),
(316,645,o),
(386,550,o),
(386,413,cs),
(386,306,o),
(357,226,o),
(298,173,c),
(292,175,o),
(284,177,o),
(276,177,cs),
(266,177,o),
(242,166,o),
(203,141,cs),
(146,105,l),
(159,86,l),
(184,101,o),
(202,109,o),
(215,109,cs),
(229,109,o),
(244,104,o),
(261,93,cs),
(278,82,o),
(304,60,o),
(338,29,cs),
(368,1,o),
(392,-21,o),
(411,-21,cs)
);
},
{
closed = 1;
nodes = (
(455,44,o),
(438,58,o),
(368,119,cs),
(317,163,l),
(409,232,o),
(454,320,o),
(454,445,cs),
(454,521,o),
(436,587,o),
(398,644,c),
(408,695,o),
(441,723,o),
(480,723,cs),
(536,723,o),
(567,684,o),
(570,601,c),
(553,567,o),
(545,537,o),
(545,510,cs),
(545,493,o),
(554,452,o),
(576,412,cs),
(592,383,o),
(605,359,o),
(615,338,cs),
(633,300,o),
(644,274,o),
(644,243,cs),
(644,218,o),
(632,190,o),
(614,165,cs),
(569,102,o),
(489,44,o),
(466,44,cs)
);
},
{
closed = 1;
nodes = (
(809,41,o),
(785,51,o),
(753,69,cs),
(627,141,l),
(678,204,o),
(707,251,o),
(707,307,cs),
(707,330,o),
(699,356,o),
(682,387,cs),
(667,414,o),
(652,441,o),
(638,469,cs),
(621,504,o),
(607,538,o),
(607,568,cs),
(607,638,o),
(670,692,o),
(739,692,cs),
(820,692,o),
(864,641,o),
(870,566,cs),
(873,529,o),
(878,504,o),
(888,493,c),
(816,471,o),
(781,434,o),
(781,383,cs),
(781,352,o),
(798,322,o),
(824,296,cs),
(848,272,o),
(878,245,o),
(903,223,cs),
(936,195,o),
(944,172,o),
(944,149,cs),
(944,101,o),
(873,41,o),
(824,41,cs)
);
}
);
width = 1107;
}
);
unicode = 120090;
}
{
color = 4;
glyphname = "Y-fraktur";
layers = (
{
anchors = (
{
name = math.ta;
pos = (326,764);
}
);
layerId = master01;
shapes = (
{
closed = 1;
nodes = (
(349,-197,o),
(409,-167,o),
(472,-109,cs),
(598,8,o),
(669,177,o),
(669,337,cs),
(669,423,o),
(647,506,o),
(600,585,cs),
(548,672,o),
(543,687,o),
(543,698,cs),
(543,703,o),
(545,708,o),
(549,716,c),
(536,728,l),
(483,688,o),
(430,635,o),
(375,569,c),
(336,670,o),
(269,725,o),
(193,725,cs),
(95,725,o),
(7,628,o),
(7,509,cs),
(7,409,o),
(72,335,o),
(166,325,c),
(169,347,l),
(83,359,o),
(31,419,o),
(31,506,cs),
(31,584,o),
(85,648,o),
(153,648,cs),
(253,648,o),
(327,542,o),
(327,386,cs),
(327,240,o),
(262,170,o),
(114,139,c),
(118,115,l),
(131,118,o),
(150,121,o),
(166,121,cs),
(194,121,o),
(246,73,o),
(278,42,cs),
(295,26,o),
(302,19,o),
(302,13,cs),
(302,8,o),
(297,2,o),
(288,-8,c),
(306,-21,l),
(355,16,o),
(405,48,o),
(454,76,c),
(440,96,l),
(417,83,o),
(395,75,o),
(385,75,cs),
(377,75,o),
(367,81,o),
(353,94,cs),
(334,111,o),
(285,154,o),
(259,174,c),
(349,241,o),
(394,331,o),
(394,444,cs),
(394,473,o),
(391,505,o),
(384,543,c),
(401,567,o),
(429,599,o),
(468,637,c),
(564,485,o),
(590,386,o),
(590,276,cs),
(590,150,o),
(548,5,o),
(459,-89,cs),
(418,-132,o),
(365,-160,o),
(308,-160,cs),
(275,-160,o),
(247,-142,o),
(247,-124,cs),
(247,-121,o),
(248,-117,o),
(250,-112,c),
(253,-108,o),
(254,-102,o),
(254,-93,cs),
(254,-77,o),
(238,-63,o),
(215,-63,cs),
(188,-63,o),
(169,-81,o),
(169,-108,cs),
(169,-156,o),
(224,-197,o),
(292,-197,cs)
);
}
);
width = 792;
}
);
unicode = 120092;
}
{
color = 4;
glyphname = "b-fraktur";
layers = (
{
anchors = (
{
name = math.ta;
pos = (194,586);
}
);
layerId = master01;
shapes = (
{
closed = 1;
nodes = (
(187,-23,l),
(248,33,ls),
(336,113,o),
(377,185,o),
(377,256,cs),
(377,305,o),
(354,348,o),
(312,410,cs),
(291,441,o),
(280,458,o),
(280,464,cs),
(280,469,o),
(283,475,o),
(290,480,c),
(279,493,l),
(134,394,l),
(134,555,ls),
(134,641,o),
(155,679,o),
(226,683,c),
(226,704,l),
(157,704,o),
(112,672,o),
(92,607,c),
(88,627,o),
(78,645,o),
(63,660,c),
(49,650,l),
(61,630,o),
(67,610,o),
(67,590,cs),
(67,113,ls),
(67,82,o),
(67,66,o),
(44,64,c),
(44,44,l),
(85,33,o),
(116,20,o),
(137,7,cs),
(159,-6,o),
(168,-17,o),
(168,-23,c)
);
},
{
closed = 1;
nodes = (
(221,48,o),
(215,50,o),
(211,52,cs),
(145,85,ls),
(138,89,o),
(134,96,o),
(134,107,cs),
(134,368,l),
(214,423,l),
(252,361,ls),
(294,292,o),
(318,240,o),
(318,199,cs),
(318,136,o),
(248,48,o),
(227,48,cs)
);
}
);
width = 459;
}
);
unicode = 120095;
}
{
color = 4;
glyphname = "p-fraktur";
layers = (
{
anchors = (
{
name = math.ta;
pos = (263,563);
}
);
layerId = master01;
shapes = (
{
closed = 1;
nodes = (
(123,-194,l),
(129,-124,o),
(135,-53,o),
(140,17,c),
(180,0,o),
(202,-13,o),
(204,-23,c),
(223,-23,l),
(241,7,o),
(274,51,o),
(320,110,cs),
(366,169,o),
(389,223,o),
(389,271,cs),
(389,309,o),
(375,346,o),
(347,384,cs),
(319,421,o),
(302,449,o),
(295,468,c),
(309,478,l),
(294,493,l),
(146,385,l),
(146,390,ls),
(146,408,o),
(139,425,o),
(125,441,cs),
(110,458,o),
(103,470,o),
(103,479,cs),
(103,483,o),
(106,492,o),
(112,503,c),
(94,513,l),
(74,484,ls),
(57,459,o),
(38,430,o),
(38,420,cs),
(38,413,o),
(41,406,o),
(48,399,cs),
(55,392,o),
(62,382,o),
(69,371,cs),
(76,360,o),
(79,333,o),
(79,290,cs),
(79,106,l),
(22,26,l),
(38,16,l),
(49,28,o),
(60,34,o),
(70,34,cs),
(75,34,o),
(80,33,o),
(84,31,c),
(88,-43,o),
(94,-118,o),
(102,-194,c)
);
},
{
closed = 1;
nodes = (
(228,53,o),
(216,58,o),
(194,71,cs),
(181,79,o),
(165,88,o),
(146,98,c),
(146,360,l),
(230,421,l),
(243,397,o),
(261,370,o),
(283,338,cs),
(318,287,o),
(334,243,o),
(334,211,cs),
(334,150,o),
(264,53,o),
(239,53,cs)
);
}
);
width = 489;
}
);
unicode = 120109;
}
{
glyphname = LdoubleStruck;
layers = (
{
anchors = (
{
name = math.ta;
pos = (228,764);
}
);
layerId = master01;
shapes = (
{
closed = 1;
nodes = (
(511,0,l),
(511,53,l),
(250,53,l),
(250,714,l),
(77,714,l),
(77,0,l)
);
},
{
closed = 1;
nodes = (
(130,661,l),
(197,661,l),
(197,53,l),
(130,53,l)
);
}
);
width = 536;
}
);
unicode = 120131;
}
{
glyphname = UdoubleStruck;
layers = (
{
anchors = (
{
name = math.ta;
pos = (304,764);
}
);
layerId = master01;
shapes = (
{
closed = 1;
nodes = (
(508,-10,o),
(584,71,o),
(584,253,cs),
(584,714,l),
(531,714,l),
(531,250,ls),
(531,102,o),
(477,41,o),
(324,41,cs),
(290,41,o),
(263,43,o),
(243,49,c),
(243,714,l),
(70,714,l),
(70,253,ls),
(70,52,o),
(138,-10,o),
(323,-10,cs)
);
},
{
closed = 1;
nodes = (
(146,76,o),
(123,146,o),
(123,250,cs),
(123,661,l),
(190,661,l),
(190,64,l)
);
}
);
width = 654;
}
);
unicode = 120140;
}
{
color = 4;
glyphname = "iBold-fraktur";
layers = (
{
anchors = (
{
name = math.ta;
pos = (159,586);
}
);
layerId = master01;
shapes = (
{
closed = 1;
nodes = (
(220,16,o),
(262,64,o),
(309,107,c),
(287,127,l),
(266,106,o),
(251,95,o),
(245,95,cs),
(226,95,o),
(224,108,o),
(224,139,cs),
(224,343,ls),
(224,370,o),
(233,384,o),
(251,386,c),
(251,416,l),
(227,416,o),
(168,452,o),
(168,471,cs),
(168,475,o),
(172,482,o),
(180,493,c),
(154,509,l),
(102,448,o),
(58,405,o),
(21,378,c),
(41,356,l),
(59,372,o),
(74,380,o),
(86,380,cs),
(104,380,o),
(107,371,o),
(107,342,cs),
(107,171,ls),
(107,158,o),
(107,146,o),
(106,134,cs),
(105,119,o),
(104,103,o),
(104,88,cs),
(104,42,o),
(126,25,o),
(173,3,c),
(167,-7,l),
(193,-23,l)
);
},
{
closed = 1;
nodes = (
(137,553,l),
(177,594,o),
(241,660,o),
(241,698,cs),
(241,725,o),
(228,739,o),
(200,739,cs),
(162,739,o),
(140,707,o),
(126,648,cs),
(118,615,o),
(112,584,o),
(106,553,c)
);
}
);
width = 320;
}
);
unicode = 120206;
}
{
color = 4;
glyphname = "kBold-fraktur";
layers = (
{
anchors = (
{
name = math.ta;
pos = (222,586);
}
);
layerId = master01;
shapes = (
{
closed = 1;
nodes = (
(147,-23,l),
(165,14,o),
(209,57,o),
(257,94,c),
(239,116,l),
(211,92,l),
(201,99,ls),
(192,106,o),
(186,115,o),
(186,127,cs),
(186,192,l),
(240,225,l),
(277,184,o),
(293,155,o),
(302,84,cs),
(306,49,o),
(318,24,o),
(340,9,c),
(327,-6,l),
(352,-23,l),
(466,97,l),
(444,116,l),
(427,99,l),
(416,108,o),
(407,116,o),
(404,137,cs),
(394,212,o),
(372,262,o),
(337,291,c),
(363,310,o),
(383,325,o),
(396,336,cs),
(410,347,o),
(416,359,o),
(416,371,cs),
(416,384,o),
(409,404,o),
(396,431,cs),
(383,458,o),
(376,473,o),
(376,477,cs),
(376,480,o),
(378,485,o),
(383,491,c),
(364,511,l),
(186,403,l),
(186,578,ls),
(186,656,o),
(208,695,o),
(276,699,c),
(276,729,l),
(198,729,o),
(144,682,o),
(120,604,c),
(109,649,o),
(94,679,o),
(75,694,c),
(49,674,l),
(63,652,o),
(70,636,o),
(70,599,cs),
(70,120,ls),
(70,93,o),
(61,69,o),
(37,69,c),
(37,39,l),
(66,33,o),
(106,9,o),
(117,-23,c)
);
},
{
closed = 1;
nodes = (
(186,360,l),
(276,415,l),
(283,399,o),
(290,385,o),
(297,373,cs),
(305,359,o),
(307,347,o),
(307,334,cs),
(307,321,o),
(299,308,o),
(280,296,cs),
(186,234,l)
);
}
);
width = 466;
}
);
unicode = 120208;
}
{
color = 4;
glyphname = "xBold-fraktur";
layers = (
{
anchors = (
{
name = math.ta;
pos = (258,565);
}
);
layerId = master01;
shapes = (
{
closed = 1;
nodes = (
(460,109,l),
(437,127,l),
(426,113,o),
(417,106,o),
(410,106,cs),
(402,106,o),
(392,114,o),
(384,129,cs),
(291,304,l),
(338,392,l),
(348,383,o),
(357,367,o),
(366,342,c),
(396,342,l),
(407,374,o),
(427,396,o),
(454,408,c),
(454,438,l),
(431,444,o),
(402,474,o),
(393,509,c),
(363,509,l),
(269,341,l),
(218,436,ls),
(201,467,o),
(186,483,o),
(175,483,c),
(180,500,l),
(154,515,l),
(45,387,l),
(69,368,l),
(98,394,l),
(107,389,o),
(118,375,o),
(132,351,cs),
(213,212,l),
(157,105,l),
(146,113,o),
(135,129,o),
(125,154,c),
(95,154,l),
(76,122,o),
(56,100,o),
(34,89,c),
(34,59,l),
(56,47,o),
(94,13,o),
(104,-12,c),
(134,-12,l),
(234,175,l),
(292,69,ls),
(311,35,o),
(328,18,o),
(341,16,c),
(325,-8,l),
(352,-23,l)
);
}
);
width = 491;
}
);
unicode = 120221;
}
{
glyphname = "Gsans-math";
layers = (
{
anchors = (
{
name = bottom;
pos = (402,0);
},
{
name = math.ta;
pos = (405,764);
},
{
name = top;
pos = (405,714);
},
{
name = topright;
pos = (708,714);
}
);
layerId = master01;
shapes = (
{
closed = 1;
nodes = (
(503,-10,o),
(577,2,o),
(654,27,c),
(654,377,l),
(407,377,l),
(407,297,l),
(564,297,l),
(564,85,l),
(528,76,o),
(487,68,o),
(424,68,cs),
(232,68,o),
(155,186,o),
(155,357,cs),
(155,535,o),
(255,645,o),
(426,645,cs),
(494,645,o),
(559,626,o),
(610,604,c),
(644,682,l),
(583,708,o),
(511,724,o),
(431,724,cs),
(197,724,o),
(61,580,o),
(61,357,cs),
(61,131,o),
(181,-10,o),
(403,-10,cs)
);
}
);
width = 728;
}
);
unicode = 120230;
}
{
glyphname = "Wsans-math";
layers = (
{
anchors = (
{
name = bottom;
pos = (458,0);
},
{
name = math.ta;
pos = (465,764);
},
{
name = top;
pos = (465,714);
},
{
name = topright;
pos = (910,714);
}
);
layerId = master01;
shapes = (
{
closed = 1;
nodes = (
(292,0,l),
(427,465,ls),
(445,526,o),
(459,591,o),
(461,609,c),
(464,591,o),
(480,525,o),
(497,468,cs),
(636,0,l),
(727,0,l),
(917,714,l),
(823,714,l),
(713,279,ls),
(697,216,o),
(684,157,o),
(678,108,c),
(671,154,o),
(658,218,o),
(639,280,cs),
(508,714,l),
(415,714,l),
(289,283,ls),
(272,224,o),
(258,160,o),
(251,108,c),
(244,158,o),
(233,216,o),
(217,278,cs),
(106,714,l),
(12,714,l),
(201,0,l)
);
}
);
width = 930;
}
);
unicode = 120246;
}
{
glyphname = "ksans-math";
layers = (
{
anchors = (
{
name = bottom;
pos = (267,0);
},
{
name = math.ta;
pos = (129,810);
},
{
name = top;
pos = (129,760);
},
{
name = topright;
pos = (529,760);
}
);
layerId = master01;
shapes = (
{
closed = 1;
nodes = (
(172,0,l),
(172,197,l),
(233,250,l),
(419,0,l),
(525,0,l),
(293,307,l),
(510,536,l),
(407,536,l),
(236,355,ls),
(218,335,o),
(184,292,o),
(172,276,c),
(168,276,l),
(170,309,o),
(172,342,o),
(172,363,cs),
(172,760,l),
(85,760,l),
(85,0,l)
);
}
);
width = 534;
}
);
unicode = 120260;
}
{
glyphname = "Ssansbold-math";
layers = (
{
anchors = (
{
name = bottom;
pos = (268,0);
},
{
name = math.ta;
pos = (284,764);
},
{
name = top;
pos = (284,714);
},
{
name = topright;
pos = (531,714);
}
);
layerId = master01;
shapes = (
{
closed = 1;
nodes = (
(416,-10,o),
(511,71,o),
(511,198,cs),
(511,310,o),
(446,361,o),
(337,412,cs),
(247,454,o),
(202,475,o),
(202,526,cs),
(202,569,o),
(234,598,o),
(291,598,cs),
(345,598,o),
(393,583,o),
(459,556,c),
(508,674,l),
(434,706,o),
(370,724,o),
(296,724,cs),
(147,724,o),
(54,649,o),
(54,521,cs),
(54,391,o),
(158,338,o),
(224,308,cs),
(303,272,o),
(363,244,o),
(363,191,cs),
(363,147,o),
(334,115,o),
(260,115,cs),
(188,115,o),
(114,144,o),
(46,174,c),
(46,33,l),
(104,5,o),
(174,-10,o),
(248,-10,cs)
);
}
);
width = 551;
}
);
unicode = 120294;
}
{
glyphname = "Lsansitalic-math";
layers = (
{
anchors = (
{
name = bottom;
pos = (222,0);
},
{
name = center;
pos = (277,357);
},
{
name = math.ta;
pos = (252,764);
},
{
name = top;
pos = (252,714);
},
{
name = topright;
pos = (460,714);
}
);
layerId = master01;
shapes = (
{
closed = 1;
nodes = (
(403,0,l),
(420,80,l),
(146,80,l),
(281,714,l),
(192,714,l),
(41,0,l)
);
}
);
width = 478;
}
);
unicode = 120339;
}
{
glyphname = "Tsansitalic-math";
layers = (
{
anchors = (
{
name = bottom;
pos = (194,0);
},
{
name = center;
pos = (289,357);
},
{
name = math.ic;
pos = (609,250);
},
{
name = math.ta;
pos = (346,764);
},
{
name = top;
pos = (346,714);
},
{
name = topright;
pos = (576,714);
}
);
layerId = master01;
shapes = (
{
closed = 1;
nodes = (
(242,0,l),
(377,635,l),
(573,635,l),
(589,714,l),
(107,714,l),
(90,635,l),
(286,635,l),
(152,0,l)
);
}
);
width = 501;
}
);
unicode = 120347;
}
{
glyphname = "Xsansitalic-math";
layers = (
{
anchors = (
{
name = bottom;
pos = (207,0);
},
{
name = math.ic;
pos = (629,250);
},
{
name = math.ta;
pos = (342,764);
},
{
name = top;
pos = (342,714);
},
{
name = topright;
pos = (602,714);
}
);
layerId = master01;
shapes = (
{
closed = 1;
nodes = (
(46,0,l),
(278,309,l),
(380,0,l),
(474,0,l),
(339,374,l),
(609,714,l),
(511,714,l),
(299,441,l),
(202,714,l),
(112,714,l),
(239,378,l),
(-52,0,l)
);
}
);
width = 527;
}
);
unicode = 120351;
}
{
glyphname = "esansitalic-math";
layers = (
{
anchors = (
{
name = bottom;
pos = (225,0);
},
{
name = math.ta;
pos = (314,586);
},
{
name = top;
pos = (314,536);
},
{
name = topright;
pos = (536,536);
}
);
layerId = master01;
shapes = (
{
closed = 1;
nodes = (
(310,-10,o),
(353,6,o),
(404,29,c),
(404,104,l),
(351,78,o),
(308,63,o),
(258,63,cs),
(176,63,o),
(137,113,o),
(137,195,cs),
(137,206,o),
(138,220,o),
(139,232,c),
(156,232,ls),
(376,232,o),
(469,316,o),
(469,421,cs),
(469,499,o),
(417,546,o),
(316,546,cs),
(150,546,o),
(48,362,o),
(48,192,cs),
(48,68,o),
(118,-10,o),
(242,-10,cs)
);
},
{
closed = 1;
nodes = (
(181,411,o),
(247,473,o),
(311,473,cs),
(360,473,o),
(383,448,o),
(383,414,cs),
(383,332,o),
(279,303,o),
(159,303,cs),
(152,303,l)
);
}
);
width = 499;
}
);
unicode = 120358;
}
{
glyphname = "jsansitalic-math";
layers = (
{
anchors = (
{
name = bottom;
pos = (-64,-240);
},
{
name = math.ic;
pos = (289,250);
},
{
name = math.ta;
pos = (229,786);
},
{
name = top;
pos = (229,736);
},
{
name = topright;
pos = (338,736);
}
);
layerId = master01;
shapes = (
{
closed = 1;
nodes = (
(35,-240,o),
(78,-177,o),
(99,-77,cs),
(229,536,l),
(142,536,l),
(14,-69,ls),
(0,-135,o),
(-28,-167,o),
(-68,-167,cs),
(-90,-167,o),
(-110,-162,o),
(-126,-156,c),
(-126,-230,l),
(-111,-236,o),
(-89,-240,o),
(-64,-240,cs)
);
},
{
closed = 1;
nodes = (
(240,625,o),
(269,650,o),
(269,691,cs),
(269,719,o),
(255,736,o),
(224,736,cs),
(186,736,o),
(165,706,o),
(165,672,cs),
(165,642,o),
(185,625,o),
(212,625,cs)
);
}
);
width = 258;
}
);
unicode = 120363;
}
{
glyphname = "nsansitalic-math";
layers = (
{
anchors = (
{
name = bottom;
pos = (235,0);
},
{
name = math.ta;
pos = (349,586);
},
{
name = top;
pos = (349,536);
},
{
name = topright;
pos = (616,536);
}
);
layerId = master01;
shapes = (
{
closed = 1;
nodes = (
(118,-3,l),
(168,230,ls),
(206,405,o),
(297,469,o),
(364,469,cs),
(409,469,o),
(432,447,o),
(432,405,cs),
(432,386,o),
(428,366,o),
(422,337,cs),
(350,-3,l),
(444,-3,l),
(515,325,ls),
(520,349,o),
(526,383,o),
(526,414,cs),
(526,499,o),
(474,549,o),
(388,549,cs),
(301,549,o),
(244,489,o),
(206,440,c),
(217,539,l),
(139,539,l),
(24,-3,l)
);
}
);
width = 579;
}
);
unicode = 120367;
}
{
glyphname = "usansitalic-math";
layers = (
{
anchors = (
{
name = bottom;
pos = (224,0);
},
{
name = math.ta;
pos = (347,586);
},
{
name = top;
pos = (347,536);
},
{
name = topright;
pos = (616,536);
}
);
layerId = master01;
shapes = (
{
closed = 1;
nodes = (
(276,-10,o),
(332,50,o),
(370,99,c),
(375,99,l),
(364,0,l),
(436,0,l),
(550,536,l),
(463,536,l),
(414,305,ls),
(377,129,o),
(282,63,o),
(214,63,cs),
(164,63,o),
(144,89,o),
(144,132,cs),
(144,149,o),
(147,170,o),
(153,199,cs),
(225,536,l),
(136,536,l),
(66,209,ls),
(60,179,o),
(55,153,o),
(55,123,cs),
(55,36,o),
(108,-10,o),
(189,-10,cs)
);
}
);
width = 579;
}
);
unicode = 120374;
}
{
glyphname = "Jsansbolditalic-math";
layers = (
{
anchors = (
{
name = bottom;
pos = (-66,-210);
},
{
name = math.ic;
pos = (357,250);
},
{
name = math.ta;
pos = (262,764);
},
{
name = top;
pos = (262,714);
},
{
name = topright;
pos = (405,714);
}
);
layerId = master01;
shapes = (
{
closed = 1;
nodes = (
(75,-210,o),
(154,-145,o),
(189,19,cs),
(337,714,l),
(188,714,l),
(45,40,ls),
(27,-45,o),
(-13,-83,o),
(-77,-83,cs),
(-109,-83,o),
(-135,-78,o),
(-157,-73,c),
(-157,-197,l),
(-133,-204,o),
(-107,-210,o),
(-66,-210,cs)
);
}
);
width = 331;
}
);
unicode = 120389;
}
{
color = 4;
glyphname = "Fmono-math";
layers = (
{
anchors = (
{
name = bottom;
pos = (317,0);
},
{
name = math.ta;
pos = (317,764);
},
{
name = top;
pos = (317,714);
},
{
name = topright;
pos = (580,714);
}
);
layerId = master01;
shapes = (
{
closed = 1;
nodes = (
(185,0,l),
(185,302,l),
(496,302,l),
(496,382,l),
(185,382,l),
(185,634,l),
(515,634,l),
(515,714,l),
(95,714,l),
(95,0,l)
);
}
);
width = 600;
}
);
unicode = 120437;
}
{
color = 4;
glyphname = "bmono-math";
layers = (
{
anchors = (
{
name = bottom;
pos = (300,0);
},
{
name = math.ta;
pos = (300,810);
},
{
name = top;
pos = (300,760);
},
{
name = topright;
pos = (580,760);
}
);
layerId = master01;
shapes = (
{
closed = 1;
nodes = (
(457,-10,o),
(545,85,o),
(545,269,cs),
(545,451,o),
(458,546,o),
(329,546,cs),
(247,546,o),
(195,508,o),
(167,466,c),
(163,466,l),
(167,503,o),
(167,539,o),
(167,576,cs),
(167,760,l),
(80,760,l),
(80,0,l),
(152,0,l),
(160,68,l),
(166,68,l),
(196,26,o),
(250,-10,o),
(329,-10,cs)
);
},
{
closed = 1;
nodes = (
(213,63,o),
(167,136,o),
(167,271,cs),
(167,400,o),
(219,473,o),
(311,473,cs),
(410,473,o),
(453,400,o),
(453,269,cs),
(453,136,o),
(409,63,o),
(312,63,cs)
);
}
);
width = 600;
}
);
unicode = 120459;
}
{
color = 4;
glyphname = "idotlessitalic-math";
layers = (
{
anchors = (
{
name = math.ta;
pos = (257,811);
},
{
name = top;
pos = (257,761);
}
);
layerId = master01;
shapes = (
{
closed = 1;
nodes = (
(205,-10,o),
(261,24,o),
(290,50,c),
(272,79,l),
(247,64,o),
(222,53,o),
(200,53,cs),
(178,53,o),
(167,70,o),
(167,104,cs),
(167,131,o),
(177,193,o),
(182,215,cs),
(250,536,l),
(71,536,l),
(62,494,l),
(75,494,ls),
(112,494,o),
(136,488,o),
(136,452,cs),
(136,445,o),
(135,436,o),
(133,426,cs),
(94,242,ls),
(86,203,o),
(72,126,o),
(72,85,cs),
(72,33,o),
(102,-10,o),
(155,-10,cs)
);
}
);
width = 304;
}
);
unicode = 120484;
}
{
color = 4;
glyphname = "Psibold-math";
layers = (
{
anchors = (
{
name = math.ta;
pos = (487,764);
}
);
layerId = master01;
shapes = (
{
closed = 1;
nodes = (
(655,0,l),
(655,53,l),
(642,53,ls),
(597,53,o),
(560,61,o),
(560,114,cs),
(560,238,l),
(598,238,ls),
(823,238,o),
(870,346,o),
(870,465,cs),
(870,589,ls),
(870,652,o),
(907,661,o),
(952,661,c),
(952,714,l),
(724,714,l),
(724,478,ls),
(724,351,o),
(697,296,o),
(582,296,cs),
(560,296,l),
(560,599,ls),
(560,652,o),
(597,661,o),
(642,661,cs),
(655,661,l),
(655,714,l),
(319,714,l),
(319,661,l),
(332,661,ls),
(377,661,o),
(414,652,o),
(414,599,cs),
(414,296,l),
(392,296,ls),
(277,296,o),
(250,351,o),
(250,478,cs),
(250,714,l),
(22,714,l),
(22,661,l),
(67,661,o),
(104,652,o),
(104,589,cs),
(104,465,ls),
(104,346,o),
(151,238,o),
(376,238,cs),
(414,238,l),
(414,114,ls),
(414,61,o),
(377,53,o),
(332,53,cs),
(319,53,l),
(319,0,l)
);
}
);
width = 976;
}
);
unicode = 120511;
}
{
color = 4;
glyphname = "betabold-math";
layers = (
{
anchors = (
{
name = math.ta;
pos = (394,586);
}
);
layerId = master01;
shapes = (
{
closed = 1;
nodes = (
(93,-240,l),
(244,-240,l),
(244,35,l),
(274,8,o),
(323,-10,o),
(393,-10,cs),
(530,-10,o),
(616,68,o),
(616,223,cs),
(616,339,o),
(544,394,o),
(452,424,c),
(452,430,l),
(452,430,o),
(582,475,o),
(582,606,cs),
(582,708,o),
(502,770,o),
(342,770,cs),
(202,770,o),
(93,720,o),
(93,571,cs)
);
},
{
closed = 1;
nodes = (
(311,49,o),
(269,78,o),
(244,108,c),
(244,579,ls),
(244,662,o),
(277,715,o),
(343,715,cs),
(406,715,o),
(439,664,o),
(439,589,cs),
(439,513,o),
(417,469,o),
(375,449,c),
(363,453,o),
(330,457,o),
(316,457,cs),
(282,457,o),
(265,443,o),
(265,417,cs),
(265,393,o),
(282,379,o),
(304,379,cs),
(332,379,o),
(352,385,o),
(368,392,c),
(430,368,o),
(464,326,o),
(464,221,cs),
(464,103,o),
(423,49,o),
(365,49,cs)
);
}
);
width = 663;
}
);
unicode = 120515;
}
{
color = 4;
glyphname = "epsilonbold-math";
layers = (
{
anchors = (
{
name = math.ta;
pos = (278,586);
}
);
layerId = master01;
shapes = (
{
closed = 1;
nodes = (
(437,-10,o),
(498,42,o),
(498,98,cs),
(498,115,o),
(487,133,o),
(475,139,c),
(445,102,o),
(396,65,o),
(314,65,cs),
(235,65,o),
(191,97,o),
(191,158,cs),
(191,210,o),
(212,245,o),
(245,255,c),
(267,246,o),
(320,236,o),
(342,236,cs),
(383,236,o),
(409,257,o),
(409,286,cs),
(409,313,o),
(390,324,o),
(361,324,cs),
(330,324,o),
(294,315,o),
(266,307,c),
(226,312,o),
(205,355,o),
(205,404,cs),
(205,451,o),
(221,491,o),
(273,491,cs),
(319,491,o),
(342,450,o),
(342,383,c),
(434,383,o),
(479,401,o),
(479,443,cs),
(479,492,o),
(418,548,o),
(276,548,cs),
(139,548,o),
(52,498,o),
(52,406,cs),
(52,352,o),
(90,302,o),
(150,283,c),
(150,278,l),
(92,258,o),
(37,231,o),
(37,151,cs),
(37,62,o),
(112,-10,o),
(270,-10,cs)
);
}
);
width = 535;
}
);
unicode = 120518;
}
